<?xml version="1.0" encoding="UTF-8"?><svg id="Calque_2" xmlns="http://www.w3.org/2000/svg" viewBox="0 0 197.62 228.61"><defs><style>.cls-1{fill:#e7e9ea;}.cls-2{fill:#926339;}.cls-3{fill:#949599;}.cls-4{fill:#5b5a59;}.cls-5{fill:#2f1013;}</style></defs><g id="Calque_1-2"><g><path class="cls-4" d="m132.11,212.79c-4.64,2.77-8.56,6.47-13.44,8.96-6.22,3.17-12.64,6.11-19.7,6.82-3.04.31-6.4-1.34-9.5-2.39-9.09-3.05-17.15-7.68-24.04-13.96-2.98-3.25-5.67-6.73-9.12-9.6-.78-2.75.42-6.32-3.77-7.65-2.38-4.92-3.76-10.15-5.59-15.24-1.15-3.21-.2-6.71-2.06-9.73,1.36-7.4,3.67-14.63,4.58-22.1.91,1.99,1.69,4.09,4.68,4.03.69.61,1.27,1.43,2.09,1.79,8.7,3.8,17.74,4.39,26.93,1.93,5.49-1.47,11.35-.86,16.72-2.8.34-.12.83.11,1.24.19,6.82,1.21,13.61,2.7,20.48,3.56,8.42,1.04,16.5.06,23.28-5.33,1.38.39,2.02-1.12,3.27-1.09,1.92,6.73,3.79,13.48,4.65,20.41-.79.75-1.05,1.74-1.17,2.69-.88,6.93-3.19,13.49-5.9,19.96-.27.65-.73,1.25-.02,1.89-.81,2.31-3.93,3.7-3.14,6.66-1,.54-2.44.85-2.93,1.65-2.11,3.42-5.34,6.05-7.56,9.37Z"/><path class="cls-4" d="m180.69,92.44c-6.8,8.46-13.39,17.07-22.55,23.66-4.73,3.41-9.15,7.18-14.9,9.15-.96-.15-1.75-.04-2.67.51-4.24,2.52-9.95,2.52-13.32,6.57-7.55,1.52-14.77,4.21-22.4,5.45-2.59.42-3.67-.85-4.03-3.36-.45-3.12-.94-6.18-.42-9.33.12-.74.04-1.83-1.1-1.78-1.02.04-.65,1.08-.71,1.71-.37,3.74-.92,7.48-.65,11.24.18,2.56-.96,2.82-3.51,2.5-5.74-.73-11.22-2.3-16.76-3.7-5.82-1.47-11.12-4.13-16.59-6.39-2.12-.88-4.06-2.27-6.56-2.22.27-1.39-1.05-1.58-1.9-2.03-7.33-3.88-13.93-8.64-19.85-14.17-6.52-6.08-11.97-12.92-16.54-20.35-.54-.87-1.11-1.63-1.11-1.63-1.22-2.39-1.64-3.69-1.64-3.69-1.16-3.62-2.18-4.2-2.94-6.15,0-.69-1.32-2.79-1.34-3.48-.08-2.4-.9-4.33.45-3.34,1.51,2.55,1.46,1.62,5.21,5.31,1.64,2.25,2.44,2.58,3.51,3.55,1.38,1.55,1.46,1.39,2.15,1.9,4.09,3.03,8.21,6.03,12.41,8.93,9.92,6.84,20.21,13.1,32.51,15.74,4.99,1.07,9.77.28,13.68-2.99,4.92-4.1,4.92-9.89,5.77-15.31.8-5.1.93-10.31,2.12-15.32.89-3.74,1.21-7.52,1.71-11.26.86-6.46,2.63-12.77,3.17-19.27.4-4.74,1.42-9.43,2.16-14.14.83-5.34,1.6-10.69,2.52-16.02.73-4.21,1.3-8.43,1.77-12.7,2.85,5.2,2.26,10.9,3.37,16.31.85,4.15.83,8.42,2.05,12.52-.02.3-.1.61-.04.89,2.61,12.24,3.15,24.73,5.61,37.01,1.75,8.74,2.67,17.66,4.05,26.48.99,6.33,3.44,11.51,10.85,13.57,5.16,1.43,9.8-.32,14.28-1.89,11.62-4.07,21.93-10.34,31.31-17.74,2.86-2.25,6.2-4.08,8.48-6.71,2.74-2.82.27-.12,3.17-3.34,4.21-3.62,3.94-3.4,6.43-6.07,2.24-.06-.62,6.72-.71,7.96"/><path class="cls-1" d="m13.75,88.77c1.57-1.03,1.94.23,2.47,1.11,4.57,7.44,10.02,14.27,16.54,20.35,5.92,5.53,12.52,10.29,19.85,14.17.86.45,2.17.64,1.9,2.03-.65.2-.61.72-.66,1.19-.82,6.87-2.96,13.5-4.38,20.27-.91,7.47-3.22,14.71-4.58,22.1-1.93,6.45-3.17,13.04-4.52,19.61-.18,1.84-1.66,3.42-1.32,5.37-1.24,2.68-.99,5.65-1.95,8.38-.67,3.11-1.39,6.2-1.97,9.33-.33,1.76-1.07,1.62-2.33.73-11.74-8.31-20.01-18.96-25.29-31.63-.56-1.35-.59-2.89-1.69-4.04-2.07-8.26-4.22-16.5-5.17-24.95-.18-1.94-.51-3.88-.53-5.82-.06-6.34.11-12.69-.03-19.03-.14-6.14-.48-12.23,3.34-17.68.41-1.07.49-1.14.6-1.72.65-1.67,0,0,.71-1.76l-.05.09c2.11-4.16,4.21-8.32,6.32-12.49,1.49-1.63,1.72-3.78,2.75-5.6Z"/><path class="cls-3" d="m184.08,193.22c-4.21,6.61-9.45,12.27-15.59,17.33-.32.26-.71.45-1.02.73-1.19,1.05-1.95,3.2-3.93,2.49-1.68-.61-1.13-2.75-1.65-4.19-.75-2.06-.54-4.34-1.77-6.28,0-2.94-.9-5.7-2-8.43-.17-1.8.4-3.74-1.26-5.23-.23-1.04-.18-2.1-.45-3.17-1.32-5.27-2.41-10.58-3.59-15.88-.86-6.94-2.74-13.68-4.65-20.41.68-3.2-1.12-6.03-1.76-9.01-1.14-5.29-2.77-10.49-3.18-15.91,5.76-1.97,10.17-5.75,14.9-9.15,9.16-6.59,15.75-15.2,22.55-23.66.91-1.13,1.3-2.91,1.94-4.09,3.18,5.96,7.85,14.25,11.02,20.21,3.13,7.05,4.05,14.4,3.96,21.99-.11,8.21-.16,16.41-1.25,24.58-.59,3.45-1.31,6.89-1.84,10.32"/><path class="cls-1" d="m94.05,28.72c-.74,4.71-1.77,9.41-2.16,14.14-.54,6.51-2.31,12.82-3.17,19.27-.5,3.74-.82,7.52-1.71,11.26-1.2,5.01-1.32,10.22-2.12,15.32-.85,5.43-.85,11.21-5.77,15.31-3.92,3.27-8.69,4.06-13.68,2.99-12.3-2.64-22.59-8.9-32.51-15.74-4.2-2.9-8.32-5.9-12.41-8.93-.69-.51-2.04-1.02-1.02-2.29,3-4.23,6-8.46,9-12.69,4.76-5,9.18-10.27,14.54-14.78,1.48-1.24,3.2-2.31,4.09-4.07,0,0-.05-.02-.05-.02.33-.08.66-.15.98-.23,6.31-4.86,12.96-9.23,20.42-12.51,7.93-3.49,16.26-5.81,24.82-7.5.21-.04.5.3.76.46Z"/><path class="cls-3" d="m178.22,80.04c-1.76,3.38-5.53,4.85-8.39,7.1-9.39,7.41-19.7,13.68-31.31,17.74-4.47,1.56-9.12,3.32-14.28,1.89-7.42-2.05-9.86-7.23-10.85-13.57-1.38-8.83-2.3-17.74-4.05-26.48-2.45-12.28-2.99-24.77-5.61-37.01-.06-.28.02-.59.04-.89,5.03-.17,9.64,1.48,14.31,2.83,10.64,3.09,19.91,8.53,28.89,14.43.4.71.87,1.33,1.89,1.2,0,0,.01.14.01.14-.06.51.39.7.73.96,1.35,1.1,2.69,2.21,4.04,3.31"/><path class="cls-5" d="m37.1,203.35c.96-2.73.71-5.7,1.95-8.38,5.75,2.55,11.5,5.1,17.25,7.65,3.46,2.86,6.15,6.35,9.12,9.6-4.1.66-7.49-1.54-11.23-2.35-6.1-1.31-11.07-5.07-17.09-6.52Z"/><path class="cls-5" d="m158.12,194.87c1.09,2.72,2,5.48,1.99,8.43-4.88,1.15-8.96,3.97-13.7,5.46-4.73,1.48-9.34,3.29-14.31,4.04,2.22-3.32,5.45-5.95,7.56-9.37.49-.8,1.93-1.11,2.94-1.65,5.46-1.75,10.65-4.03,15.52-6.91Z"/><path class="cls-2" d="m144.91,151.25c-6.78,5.4-14.87,6.38-23.28,5.34-6.88-.85-13.66-2.35-20.48-3.56-.42-.07-.91-.31-1.24-.19-5.38,1.94-11.24,1.33-16.72,2.8-9.19,2.46-18.23,1.88-26.93-1.93-.82-.36-1.4-1.18-2.09-1.79.72-3.92,2.46-7.56,3.66-11.35,1.84-5.78,1.78-5.8,7.79-4.62-2.64,1.59-4.42,3.72-5.16,6.61-.34,1.32-.03,1.81,1.47,1.78,3.1-.07,6.21-.07,9.32-.09,3.48,0,6.95,0,10.43,0,1.78-.6,4.9,1.93,5.31-1.91,1.76-.24,3.44.16,5.03.76,4.58,1.73,9.11,1.75,13.66-.07.78-.31,1.65-.45,2.47-.67.58,3.65,3.62,1.31,5.46,1.9,3.59,0,7.17,0,10.76,0,2.67.03,5.36-.06,8.02.12,2.72.18,2.73-1.12,2.16-2.87-.66-2.05-2.47-3.36-3.82-4.96,1.9-1.17,4.22-1.29,6.27-2.08,2.42-.94,3.78-.42,4.34,2.09,1.1,4.92,2.38,9.81,3.58,14.71Z"/><path class="cls-5" d="m68.05,136.16c-.86-.24-1.63-.19-2.45-.21-6-1.18-5.94-1.16-7.79,4.62-1.21,3.79-2.94,7.43-3.66,11.35-2.99.06-3.78-2.04-4.68-4.03,1.42-6.76,3.56-13.39,4.38-20.27.06-.48.01-1,.66-1.19,2.5-.05,4.44,1.35,6.56,2.22,5.47,2.26,10.77,4.92,16.59,6.39,5.54,1.4,11.02,2.97,16.76,3.7,2.55.32,3.69.06,3.51-2.5-.27-3.76.29-7.5.65-11.24.06-.63-.32-1.66.71-1.71,1.14-.05,1.23,1.04,1.1,1.78-.52,3.15-.03,6.21.42,9.33.36,2.52,1.44,3.79,4.03,3.36,7.63-1.24,14.84-3.93,22.4-5.45,3.37-4.04,9.08-4.05,13.32-6.57.93-.55,1.71-.65,2.67-.51.41,5.42,2.04,10.62,3.18,15.91.64,2.98,2.44,5.81,1.76,9.01-1.25-.03-1.88,1.48-3.27,1.09-1.2-4.9-2.48-9.79-3.58-14.71-.56-2.51-1.93-3.03-4.34-2.09-2.05.79-5.55,1.64-6.27,2.08-.58-.2-.58-.2,0,0,1.74.59,0,0,0,0,.12.02,0,0,0,0-3.59,0-18.39,4.81-22.58,5.82-.32-4.21,5.04-2.36.72-.49-.27.12-.48.33-.72.49-.83.22-1.69.36-2.47.67-4.55,1.82-9.08,1.8-13.66.07-1.59-.6-3.27-1-5.03-.76"/><path class="cls-5" d="m40.37,189.61c1.34-6.57,2.58-13.16,4.52-19.61,1.86,3.02.9,6.53,2.06,9.73,1.83,5.09,3.21,10.32,5.59,15.24-1.37.13-2.43-.61-3.54-1.14-2.89-1.38-5.75-2.81-8.63-4.22Z"/><path class="cls-5" d="m152.83,170.58c1.17,5.3,2.26,10.62,3.59,15.88.27,1.07.22,2.13.45,3.17-3.71,1.83-7.41,3.66-11.12,5.49-.71-.64-.26-1.24.02-1.89,2.7-6.47,5.02-13.03,5.9-19.96.12-.95.37-1.94,1.17-2.69Z"/><path class="cls-2" d="m40.37,189.61c2.87,1.41,5.74,2.84,8.63,4.22,1.11.53,2.16,1.27,3.54,1.14,4.19,1.33,2.98,4.91,3.77,7.65-5.75-2.55-11.5-5.1-17.25-7.65-.33-1.95,1.14-3.53,1.32-5.37Z"/><path class="cls-2" d="m145.75,195.12c3.71-1.83,7.41-3.66,11.12-5.49,1.66,1.49,1.09,3.44,1.26,5.23-4.87,2.88-10.05,5.16-15.52,6.91-.79-2.95,2.33-4.34,3.14-6.65Z"/></g></g></svg>