<?xml version="1.0" encoding="UTF-8"?><svg id="Calque_2" xmlns="http://www.w3.org/2000/svg" xmlns:xlink="http://www.w3.org/1999/xlink" viewBox="0 0 349.83 509.36"><defs><style>.cls-1{fill:#f3e1d3;}.cls-2{fill:#010101;}.cls-3{fill:#f0a88d;}.cls-4{fill:#30353d;}.cls-5{fill:#c48975;}.cls-6{fill:#435563;}.cls-7{fill:#160e0c;}.cls-8{fill:#2b353f;}.cls-9{opacity:.2;}.cls-10{fill:url(#Dégradé_sans_nom_28);opacity:.55;}</style><radialGradient id="Dégradé_sans_nom_28" cx="174.92" cy="467.01" fx="174.92" fy="467.01" r="175.98" gradientTransform="translate(0 356.47) scale(1 .24)" gradientUnits="userSpaceOnUse"><stop offset="0" stop-color="#010101"/><stop offset=".44" stop-color="#252735"/><stop offset=".81" stop-color="#3f435a"/><stop offset="1" stop-color="#4a4e69"/></radialGradient></defs><g id="Calque_1-2"><ellipse class="cls-10" cx="174.92" cy="467.01" rx="174.92" ry="42.35"/><g><g><path class="cls-6" d="m156.74,38.1c-.2-.96.04-1.84-.02-2.79-.1-1.69-.69-3.45-.98-5.12-.61-3.59-1.02-7.2-1.24-10.83-.17-2.87-.07-6.12,2.12-8.09.45-.41.98-.74,1.38-1.2.92-1.09.91-2.67,1.69-3.85,1.27-1.94,4.05-2.2,6.33-2.91,1.7-.53,3.26-1.4,4.91-2.05,1.65-.65,3.49-1.08,5.23-.66.85.2,1.72.61,2.56.35.34-.1.63-.31.94-.47,1.39-.72,3.13-.53,4.61,0,2.31.83,4.22,2.41,6.67,2.84,2.46.44,4.99.13,7.45.54.93.15,1.99.56,2.16,1.44.12.59-.22,1.25.07,1.78.22.4.73.57,1.15.79,2.58,1.33,2.68,4.79,2.8,7.22.18,3.45.17,6.92-.14,10.37-.38,4.21-1.92,13.8-1.92,13.83-.06.37-19.05-.5-20.34-.53-5.09-.13-10.19-.27-15.28-.4l-5.9-.15c-1.03-.03-2.6.22-3.58-.09-.19-.06-.48-.01-.68-.02Z"/><polygon class="cls-3" points="167.17 56.1 167.17 66.71 150.72 72.35 180.02 123.82 209.4 72.03 191.62 67.1 191.62 54.28 167.17 56.1"/><path class="cls-3" d="m197.14,13.29c-4.6-5.42-9.54-7.39-17.83-7.39s-13.16,2.19-17.64,7.55c-4.56,5.45-3.99,14.49-3.27,21.19.72,6.7.87,12.91,3.18,18.26,2.31,5.36,5.94,9.05,8.49,10.59,2.48,1.5,6.25,2.72,9.24,2.72s6.28-1.11,8.77-2.72c2.84-1.83,6.55-5.72,8.86-11.4,2.31-5.68,2.55-10.76,3.28-17.45.72-6.7,2.02-15.34-3.08-21.35Z"/><path class="cls-5" d="m179.31,66.7c-2.89,0-6.8-1.15-9.52-2.8-.24-.15-.31-.45-.16-.68.15-.23.47-.29.71-.15,2.57,1.56,6.26,2.64,8.97,2.64s5.92-.99,8.49-2.64c.23-.15.55-.09.71.13.16.22.1.53-.14.68-2.73,1.76-6.12,2.8-9.06,2.8Z"/><path class="cls-5" d="m183.17,52.61h-6.93c-.28,0-.51-.22-.51-.49s.23-.49.51-.49h6.93c.28,0,.51.22.51.49s-.23.49-.51.49Z"/><path class="cls-6" d="m180.01,4.91c-6.73,0-13.77,1.51-18.24,6.66-5.4,6.23-5.69,14.71-5.61,22.35,0,.62.15,1.41.79,1.53,1.31.25,3.6-2.76,3.73-3.52.27-1.59.55-3.19,1.18-4.68.63-1.49,1.66-2.88,3.13-3.68,1.1-.6,2.36-.83,3.6-1.05,2.21-.39,4.48-.8,6.41-1.92,1.56-.91,2.81-2.25,4.35-3.18.72-.44,3.61-1.38,4.27-.7.23.24.29.95.4,1.27.16.46.34.92.58,1.36.43.81,1.02,1.55,1.86,2.02,1.69.95,3.83.53,5.75.13,2.69-.56,4.96-.48,6.95,1.5.58.58,1.09,1.25,1.34,2.01.3.91.22,1.88.21,2.84,0,1.28-.77,5.55-.49,6.79.16.72.79-.08,1.51-.35,2.51-.94.86-7.97.57-9.88-.46-2.98-1.19-5.97-2.48-8.73-2.17-4.64-5.97-8.1-11.08-9.63-2.81-.85-5.79-1.13-8.73-1.13Z"/><path class="cls-5" d="m180.32,48.26c-.93,0-2.31-.45-2.87-2.21-.31-.97-.34-2.98-.09-5.95.18-2.19.46-4.13.46-4.15.04-.27.31-.45.58-.42.28.04.48.28.44.55,0,.02-.27,1.93-.45,4.09-.3,3.56-.14,5,.05,5.59.55,1.71,1.99,1.52,2.15,1.49.28-.04.55.13.6.39.05.26-.13.52-.41.57-.13.02-.29.04-.46.04Z"/><g><path class="cls-7" d="m187.78,37.68c0,1.63.77,2.95,1.72,2.95s1.72-1.32,1.72-2.95-.77-2.95-1.72-2.95-1.72,1.32-1.72,2.95Z"/><path class="cls-7" d="m168.12,37.68c0,1.63.77,2.95,1.72,2.95s1.72-1.32,1.72-2.95-.77-2.95-1.72-2.95-1.72,1.32-1.72,2.95Z"/></g><path class="cls-8" d="m174.35,31.62c.56.7.07,2.18-1.04,2.12-1.13-.06-2.73-.3-4.76-.09-1.96.2-4.23.98-5.1.65-.77-.29-.87-1.17.55-1.99,1.32-.76,3.05-1.36,5.05-1.49,2-.13,4.74.1,5.3.8Z"/><path class="cls-8" d="m185.18,31.62c-.56.7-.07,2.18,1.04,2.12,1.13-.06,2.73-.3,4.76-.09,1.96.2,4.23.98,5.1.65.77-.29.87-1.17-.55-1.99-1.32-.76-3.05-1.36-5.05-1.49-2-.13-4.74.1-5.3.8Z"/><g><path class="cls-3" d="m159.8,35.65c-2.03-2.37-6.63.16-6,4.61.63,4.44,4.94,8.93,7.63,8.91,2.69-.02,1.11-10.33-1.63-13.52Z"/><path class="cls-5" d="m157.67,43.5c-.16,0-.32-.07-.42-.21-1.32-1.78-1-4.09-.98-4.18.04-.27.3-.45.58-.42.28.04.48.28.44.55,0,.02-.27,2.03.81,3.49.16.22.11.53-.12.68-.09.06-.19.09-.3.09Z"/></g><g><path class="cls-3" d="m197.83,35.65c2.03-2.37,6.63.16,6,4.61-.63,4.44-4.94,8.93-7.63,8.91-2.69-.02-1.11-10.33,1.63-13.52Z"/><path class="cls-5" d="m199.6,43.4c-.12,0-.24-.04-.34-.13-.21-.18-.23-.49-.04-.69.01-.01,1.42-1.53,1.38-3.32,0-.27.22-.49.5-.5.29.02.52.21.52.48.04,2.18-1.57,3.92-1.64,3.99-.1.11-.24.16-.38.16Z"/></g><g class="cls-9"><path class="cls-2" d="m170.64,16.07c-.26,0-.48-.19-.51-.44-.03-.27.18-.51.46-.54,1.13-.11,2.24-.53,3.3-.94.42-.16.85-.32,1.19-.57.35-.25.64-.6.94-.98.18-.22.35-.43.54-.63,1.05-1.11,2.61-1.8,4.18-1.84.34-.01.52.21.53.48,0,.27-.22.5-.5.5-1.29.03-2.58.6-3.45,1.52-.17.18-.33.38-.49.58-.33.41-.67.83-1.14,1.16-.45.32-.96.52-1.42.69-1.13.44-2.31.89-3.59,1.01-.02,0-.03,0-.05,0Z"/></g><g class="cls-9"><path class="cls-2" d="m158.69,28.29c-.27,0-.5-.2-.51-.46-.18-2.98,1.21-5.99,3.64-7.88.22-.17.54-.14.72.07.18.21.15.52-.07.69-2.17,1.69-3.42,4.39-3.26,7.06.02.27-.2.5-.48.52-.01,0-.02,0-.03,0Z"/></g><g class="cls-9"><path class="cls-2" d="m158.52,16.12c-.26,0-.48-.18-.51-.43-.03-.27.17-.51.45-.54,1.26-.14,2.69-.29,3.73-1.03.27-.19.52-.42.78-.67l.28-.26c1.42-1.28,3.05-2.1,4.69-2.36.29-.04.55.14.59.4.05.27-.14.52-.42.56-1.83.29-3.27,1.3-4.16,2.1l-.27.25c-.28.26-.56.52-.89.76-1.27.89-2.91,1.07-4.23,1.21-.02,0-.04,0-.06,0Z"/></g><g class="cls-9"><path class="cls-2" d="m168.91,6.28c-.1,0-.19,0-.29,0-.28,0-.51-.23-.5-.5,0-.27.24-.48.51-.48h.01c1.41.03,2.85-.19,4.2-.66l.36-.13c.43-.16.87-.32,1.36-.4.57-.1,1.14-.07,1.62-.03,1.64.13,3.25.47,4.79,1.03.26.1.4.38.3.63-.1.25-.39.38-.66.28-1.45-.52-2.97-.85-4.51-.97-.42-.03-.9-.06-1.35.02-.39.07-.77.21-1.17.35l-.37.13c-1.38.48-2.82.73-4.29.73Z"/></g><g class="cls-9"><path class="cls-2" d="m191.16,19.11c-1.41,0-2.79-.17-3.8-1.11-.92-.85-1.2-2.08-1.4-3.26-.05-.27.14-.52.42-.56.29-.04.55.14.59.4.19,1.07.41,2.08,1.11,2.72.9.84,2.39.86,3.84.81.29-.01.52.2.53.47,0,.27-.21.5-.5.51-.26,0-.53.01-.79.01Z"/></g><g class="cls-9"><path class="cls-2" d="m200.6,15.65c-.17,0-.33-.08-.43-.22-.81-1.19-2.3-2.02-4.53-2.55-.55-.13-1.11-.24-1.67-.35-1.33-.26-2.71-.53-3.99-1.1-1.66-.73-3.6-2.36-3.64-4.57,0-.27.22-.49.51-.5h0c.28,0,.51.21.51.48.03,1.75,1.66,3.08,3.04,3.69,1.17.52,2.43.76,3.77,1.03.57.11,1.14.23,1.71.36,2.5.6,4.18,1.57,5.14,2.97.16.23.09.53-.15.68-.09.05-.19.08-.28.08Z"/></g><g class="cls-9"><path class="cls-2" d="m194.73,7.45c-.82,0-1.64-.1-2.43-.31-.27-.07-.44-.34-.36-.6.08-.26.36-.42.63-.34,1.66.43,3.46.35,5.07-.23.27-.1.56.03.66.28.1.25-.03.54-.3.63-1.04.38-2.16.57-3.28.57Z"/></g></g><g><path class="cls-3" d="m106.4,412.45c-1.49,9.78-7.8,29.41-7.27,34.17.39,3.56,3.88,12.7,1.3,16.8-2.17,3.44-8.47,1.34-14.17,1.79-5.7.45-9.87,1.97-14.46,2.2-5.49.28-19.59,2.16-21.21-.55-1.73-2.89,3.65-4.27,7.08-6.47,2.95-1.89,9.92-4.09,13.69-5.85,3.82-1.78,7.6-3.41,8.53-4.71,2.67-3.76,5.51-37.9,5.51-37.9l20.99.52Z"/><path class="cls-3" d="m248.41,423.93c1.49,9.78,2.82,17.93,2.3,22.69-.39,3.56-3.88,12.7-1.3,16.8,2.17,3.44,8.47,1.34,14.17,1.79,5.7.45,9.87,1.97,14.46,2.2,5.49.28,19.59,2.16,21.21-.55,1.74-2.89-3.65-4.27-7.08-6.47-2.95-1.89-9.92-4.09-13.69-5.85-3.82-1.78-7.6-3.41-8.53-4.71-2.67-3.76-1.9-26.07-1.9-26.07l-19.63.18Z"/><g><path class="cls-1" d="m276.66,320.91c-1.79-13.94-9.6-28.06-15.44-40.76-7.13-15.51-14.73-30.82-22.54-46.03-1.63-3.18-4.29-6.74-5.27-10.17-1.02-3.55-.84-8.6-.73-12.34.1-3.36,1.04-6.59.95-9.97-.12-4.49-1.57-8.86-1.8-13.35-.23-4.46.65-8.9,1.53-13.29,3.55-17.76,7.99-35.09,9.65-53.11.93-10.05,4.23-29.76-4.84-37.64-10.26-8.92-31.1-12.99-31.1-12.99,2.02,4.65-18.43,38.44-26.82,51.3-4.95-15.35-23.22-45.53-20.27-53.55,0,0-34.54,10.2-40.95,18.75-6.62,8.83-3.51,27.61-3.21,37.6.54,17.72,2.44,35.05,3.83,52.67.33,4.17.22,8.35.11,12.53-.2,7.65-1.65,16.3-.51,23.86.43,2.86,4.16,10.01,2.9,12.69-.09.2-37.36,79.27-39.9,96.23-1.85,12.35-13.16,116.04-13.16,116.04,14.14,5.64,28.87,5.5,44.14,0l20.37-107.55s27.45-53.64,43.01-53.64c2.93,0,10.38.67,14.29,4.18,16.85,15.12,35.65,56.74,35.65,56.74l13.16,100.27c14.73,4.9,29.08,5.52,42.87,0,0,0-3.4-98.64-5.94-118.47Z"/><g class="cls-9"><path class="cls-2" d="m193.59,263.84c-2.19,0-4.12-.2-5.67-.67-6.63-1.99-16.65-3.41-25.5-4.65-5.57-.78-10.82-1.52-14.92-2.34-10.75-2.16-20.78-9.73-20.88-9.8-.18-.14-.25-.38-.16-.58l7.07-17.25c.11-.26.42-.39.69-.29.27.1.41.4.3.66l-6.93,16.9c1.75,1.27,10.67,7.48,20.12,9.37,4.06.82,9.31,1.55,14.85,2.33,8.88,1.25,18.95,2.67,25.66,4.69,10.46,3.15,40.82-6.74,41.13-6.84.28-.09.58.05.68.32.1.27-.05.56-.33.65-1.08.35-23.06,7.51-36.13,7.51Z"/></g><g><g><path class="cls-4" d="m117.57,214.73c-1.53,6.52.38,4.97.35,11.04,0,.57.55,1.04,1.22,1.02,0,0,24.25,3.29,38.68,3.56,7.85.15,29.75-.75,48.11-1.6,15.41-.71,28.33-1.39,28.33-1.39.78-.02,1.33-.68,1.1-1.32,0,0-1.34-1.35-1.56-3.57-.21-2.22.44-7.1.44-7.1-.15-.42-.59-.7-1.1-.72,0,0-58.05,2.49-78.99,1.95-20.94-.54-35.37-2.7-35.37-2.7-.57-.01-1.08.34-1.19.82Z"/><path class="cls-1" d="m159.73,230.87c-.71,0-1.36,0-1.93-.02-14.3-.27-38.5-3.53-38.75-3.56-.41.01-.87-.16-1.21-.47-.31-.29-.47-.66-.47-1.06.01-2.45-.29-3.6-.56-4.61-.39-1.45-.69-2.6.23-6.53.17-.71.87-1.22,1.69-1.22.01,0,.02,0,.04,0,.22.03,14.71,2.16,35.37,2.7,20.68.53,78.38-1.93,78.96-1.95.76.01,1.41.44,1.63,1.06l.04.11-.02.12s-.64,4.85-.44,6.99c.19,2.01,1.4,3.25,1.41,3.27l.12.18c.16.44.09.92-.2,1.31-.31.42-.83.68-1.4.69-.11,0-13.07.69-28.31,1.39-16.3.75-36.96,1.62-46.22,1.62Zm-40.61-4.6c.33.04,24.47,3.29,38.7,3.56,7.95.15,30.53-.79,48.07-1.6,15.23-.71,28.2-1.38,28.32-1.39.24,0,.45-.1.56-.26.05-.07.1-.18.08-.31-.33-.38-1.41-1.73-1.6-3.77-.2-2.06.31-6.23.42-7.07-.11-.17-.32-.28-.56-.28-.54.02-58.29,2.49-79,1.95-20.73-.53-35.29-2.68-35.44-2.7h0c-.25,0-.53.18-.59.43h0c-.87,3.7-.6,4.69-.24,6.06.27,1.02.61,2.28.59,4.87,0,.15.08.26.15.32.13.12.33.17.52.19Z"/></g><g><path class="cls-4" d="m172.13,219.84s-11.3,1.31-16.3,13.74c-3.96,9.84-2.05,43.67-2.05,43.67h9.17s-5.95-48.44,9.03-54l.15-3.4Z"/><path class="cls-1" d="m163.76,277.93h-10.67l-.04-.65c-.08-1.39-1.87-34.09,2.1-43.95,5.1-12.67,16.77-14.16,16.89-14.18l.18,1.37c-.11.01-10.93,1.43-15.72,13.3-3.56,8.84-2.27,38-2.04,42.73h7.68c-.73-6.47-4.87-48.59,9.57-53.96l.53,1.28c-5.83,2.17-9.18,12.01-9.67,28.47-.38,12.61,1.08,24.69,1.1,24.82l.09.77Z"/></g><g><path class="cls-4" d="m186.09,222.12s12.19.71,15.02,19.54c2.55,16.98,18.39,30.19,18.39,30.19l-7.36,4.31s-18.68-13.75-19.24-32.88c-.41-13.75-7.07-17.25-7.07-17.25l.26-3.91Z"/><path class="cls-1" d="m212.09,277l-.39-.29c-.19-.14-18.95-14.17-19.52-33.41-.39-13.12-6.64-16.64-6.7-16.67l.7-1.2c.29.15,7.03,3.85,7.45,17.83.5,17.07,15.93,29.97,18.58,32.06l6.11-3.58c-3.14-2.85-15.68-15.03-17.92-29.98-2.7-18-13.87-18.92-14.35-18.95l.09-1.37c.52.03,12.81.97,15.69,20.13,2.48,16.52,18,29.64,18.15,29.77l.74.61-8.62,5.05Z"/></g><g><path class="cls-4" d="m174.57,216.52c-3.06.06-2.35,4.7-2.59,6.72s-.71,6.72,1.88,7.17c2.59.45,8.47-.67,10.35-.67s1.41-5.82,1.88-7.62c.47-1.79.71-5.82-11.52-5.6Z"/><path class="cls-1" d="m175.39,231.2c-.62,0-1.19-.03-1.66-.12-3.33-.58-2.7-5.91-2.47-7.92.05-.39.05-.89.06-1.44.04-2.32.1-5.84,3.23-5.9h0c6.11-.12,9.91.79,11.55,2.75.84,1,1.07,2.25.69,3.7-.13.48-.18,1.39-.24,2.36-.17,2.84-.35,5.78-2.34,5.78-.62,0-1.76.14-3.08.3-1.84.22-4.01.48-5.74.48Zm-.81-13.99c-1.6.03-1.77,2.07-1.81,4.54,0,.58-.02,1.12-.07,1.57-.59,5.02.38,6.26,1.29,6.42,1.57.27,4.56-.09,6.96-.38,1.37-.16,2.55-.31,3.26-.31.42,0,.72-1.51.9-4.49.07-1.07.12-2,.28-2.61.27-1.05.14-1.84-.42-2.51-.91-1.09-3.46-2.36-10.39-2.23h0Z"/></g></g></g><g><path class="cls-3" d="m115.86,251.9s.38,6.22,1.99,7.83c1.6,1.61,5.91,2.16,7.17,3.6s6.05,7.05,8.43,8.26c1.44.73.28,1.78-1.2,1.82s-4.75-1.24-6.65-3.59c0,0,1.07,4.24,1.94,6.56.87,2.33,1.15,3.88.87,5.4s-.19,7.34-1.72,7.79c-1.53.44-1.88-.23-2.2-2.43-.32-2.2-.04-4.98-.34-6.04-.3-1.06-.94-3.74-1.85-3.64-.91.1.07,3.46-.02,5.45-.09,1.99-.05,9.27-1.16,9.96s-2.28.41-2.56-.73c-.28-1.15-.39-5.13-.57-6.63-.18-1.5-.19-7.07-.84-6.92-.64.14-.21,3.91-.14,5.36.08,1.45.19,8.79-.47,9.31-.65.52-2.19.96-2.69-.49-.51-1.45-.82-12.54-1.21-13.33-.38-.79-1.77-1.25-1.88-.36-.1.89-.64,5.39-.67,6.79-.03,1.4-.69,2.94-1.53,2.74s-1.4-.74-1.68-2.71c-.28-1.97-.27-8.4-.36-10.01s-1.72-6.34-2.09-9.63c-.36-3.29.41-6.67-1.34-10.79l12.76-3.56Z"/><path class="cls-5" d="m125.6,270.33c-.21,0-.41-.12-.5-.32l-1.83-4.3c-.11-.26.02-.56.3-.66.27-.11.59.02.7.28l1.83,4.3c.11.26-.02.56-.3.66-.07.03-.13.04-.2.04Z"/></g><path class="cls-1" d="m119.04,87.75s-35.94,73.45-36.36,82.75c-.42,9.27,18.99,95.34,19.1,95.82-.44-1.97,19.87-4.62,21.56-8.06,1.09-2.2.68-4.78.28-7.18-3.36-19.9-5.44-39.99-6.22-60.13-.24-6.11-.35-12.26.69-18.29.81-4.69,2.31-9.24,3.81-13.77,5.33-16.15,11.59-31.69,16.8-47.82l-19.67-23.32Z"/><g class="cls-9"><path class="cls-2" d="m119.23,168.09s-.09,0-.13-.02c-.29-.07-.46-.35-.39-.62.78-2.95,1.75-5.88,2.69-8.73,2.54-7.68,5.33-15.34,8.02-22.75,2.97-8.17,6.05-16.61,8.78-25.07.09-.27.39-.42.67-.34.28.08.44.37.35.64-2.74,8.47-5.81,16.93-8.79,25.1-2.69,7.4-5.48,15.05-8.01,22.72-.93,2.83-1.9,5.75-2.67,8.67-.06.23-.28.39-.52.39Z"/></g><g class="cls-9"><path class="cls-2" d="m119.82,260.47c-.19,0-.38-.1-.47-.27-.14-.25-.04-.56.22-.69l3.69-1.85c-.68-4.17-1.39-10.9-2.03-16.86-.37-3.46-.71-6.74-1.01-9.08-.03-.28.17-.53.47-.57.29-.03.56.17.6.45.3,2.36.64,5.63,1.01,9.1.65,6.12,1.39,13.06,2.08,17.16.04.22-.08.43-.28.53l-4.03,2.02c-.08.04-.17.06-.25.06Z"/></g><g><path class="cls-3" d="m239.8,251.02s-1.73,6.01-3.64,7.27c-1.92,1.26-6.25.95-7.8,2.11-1.55,1.16-7.46,5.71-10.04,6.42-1.56.43-.66,1.68.77,2.02,1.43.34,4.92-.28,7.28-2.2,0,0-1.96,3.93-3.32,6.04-1.36,2.1-1.97,3.57-2.02,5.11s-1.41,7.22,0,7.96c1.4.74,1.89.14,2.68-1.95.79-2.09,1.13-4.87,1.65-5.85.52-.98,1.73-3.48,2.6-3.2.87.28-.82,3.37-1.16,5.34-.34,1.97-1.97,9.08-1.03,9.97s2.14.85,2.66-.21c.52-1.07,1.5-4.94,2-6.38.5-1.44,1.73-6.88,2.32-6.61.6.27-.64,3.87-1.03,5.27-.39,1.41-2.09,8.56-1.57,9.2.53.63,1.93,1.37,2.74.05s3.53-12.1,4.07-12.8c.54-.7,2.01-.87,1.91.02-.09.89-.54,5.4-.82,6.77s.04,3.02.91,2.98c.87-.04,1.53-.45,2.23-2.32.7-1.87,2.09-8.16,2.53-9.72.43-1.56,3.06-5.86,4.14-9.01,1.07-3.15,1.05-6.61,3.66-10.29l-11.71-6Z"/><path class="cls-5" d="m226.37,267.15c-.1,0-.21-.03-.3-.09-.24-.16-.31-.47-.14-.71l2.73-3.85c.16-.23.5-.29.74-.14.24.16.31.47.14.71l-2.73,3.85c-.1.15-.27.22-.44.22Z"/></g><path class="cls-1" d="m240.72,86.67s33.39,73.32,34.24,83.83c.84,10.46-18.89,94.94-19.1,95.82.17-.73-23.74-9.52-26.31-10.47,1-4.75.54-9.85,1.48-14.77,1.29-6.81,2.48-13.65,3.57-20.49,2.23-14.02,4.03-28.1,5.41-42.21.16-1.61.31-3.24.03-4.83-.35-2.02-1.35-3.86-2.24-5.72-2.96-6.16-4.84-12.73-6.7-19.27-3.62-12.71-7.65-25.05-12.17-37.49l21.79-24.39Z"/><g class="cls-9"><path class="cls-2" d="m234.03,158.84c-.23,0-.44-.14-.51-.36-1.09-3.28-2.03-6.6-2.94-9.8-3.52-12.38-7.5-24.63-12.16-37.45-.1-.27.05-.56.33-.65.28-.09.58.05.68.32,4.67,12.85,8.65,25.12,12.18,37.52.91,3.19,1.85,6.49,2.93,9.76.09.27-.07.55-.35.64-.05.02-.11.02-.16.02Z"/></g><g class="cls-9"><path class="cls-2" d="m235.43,258.45c-.06,0-.13-.01-.19-.03l-5.88-2.09c-.25-.09-.39-.33-.34-.58.51-2.4.63-4.85.77-7.45.12-2.4.25-4.89.71-7.31.65-3.45,1.28-6.88,1.85-10.2.05-.28.33-.46.62-.42.29.05.49.31.44.59-.58,3.32-1.2,6.76-1.86,10.21-.45,2.36-.57,4.81-.69,7.18-.12,2.37-.25,4.82-.7,7.17l5.46,1.94c.28.1.42.39.31.66-.08.21-.29.33-.5.33Z"/></g><g class="cls-9"><path class="cls-2" d="m113.38,393.39c-.27,0-.5-.19-.53-.46l-5.09-44.74c-.03-.28.18-.53.47-.56.27-.04.56.17.59.45l5.09,44.74c.03.28-.18.53-.47.56-.02,0-.04,0-.06,0Z"/></g><g class="cls-9"><path class="cls-2" d="m133.62,332.34s-.03,0-.04,0c-.29-.02-.51-.27-.49-.55l1.56-18.73c.02-.28.29-.49.58-.47.29.02.51.27.49.55l-1.56,18.73c-.02.27-.26.47-.53.47Z"/></g><g class="cls-9"><path class="cls-2" d="m248.22,379.64s-.05,0-.08,0c-.29-.04-.5-.3-.45-.58l6.37-42.45c.04-.28.33-.47.6-.43.29.04.5.3.45.58l-6.37,42.45c-.04.25-.27.44-.53.44Z"/></g><g class="cls-9"><path class="cls-2" d="m239.59,314.14c-.08,0-.16-.02-.24-.05l-16.98-8.09c-.26-.13-.37-.43-.24-.68.13-.25.46-.35.72-.23l16.98,8.09c.26.13.37.43.24.68-.09.18-.28.28-.48.28Z"/></g></g><path class="cls-4" d="m159.99,69.01l20.27,53.55c6.81-14.77,16.67-36.71,26.82-51.3,0,0,4.12,1.08,8.73,2.78l-30.15,60.29-10.34,1.44-24.44-63.99h0c5.46-1.07,9.11-2.77,9.11-2.77Z"/><polygon class="cls-4" points="190.93 127.69 193.19 139.94 173.74 143.61 171.17 130.88 190.93 127.69"/></g></g></svg>