<svg xmlns="http://www.w3.org/2000/svg" viewBox="0 0 506.57 506.13"><path d="M327.29,185.9c-16.35-17.24-7.07-45.53-5.3-62.33C305.19,67,246,25,214.57,2c30.24,123.51-12.31,168-28.73,181.67-21.9,18.28-41.55,7.52-61,4.42C64.72,206.23,2.4,297.29,2.4,297.29,129.71,268.72,171.53,309.51,186,325.86s6.86,36.93,3.34,61.17c22.24,57.52,65.86,88,109.62,121.11-30.33-108.75,6-164.93,28.29-182.56,15.81-12.48,30.5-7.07,63.21-4.42,36.25-9.72,90.9-62.73,118.47-107.54C388.3,243.82,343.65,203.14,327.29,185.9ZM256,290.16A34.16,34.16,0,1,1,290.16,256,34.15,34.15,0,0,1,256,290.16Z" transform="translate(-2.4 -2.02)" style="fill:#7a757b"/><path d="M162.2,193.92h0c-12.88,1.09-25.16-3.87-37.37-5.81C64.72,206.23,2.4,297.29,2.4,297.29c13.27-3,25.6-5.19,37.08-6.77h0S54.57,236.66,162.2,193.92Z" transform="translate(-2.4 -2.02)" style="fill:#b2b1b2"/><path d="M194.53,348.49h0c.34,11.53-3.1,24.41-5.15,38.54,22.24,57.52,65.86,88,109.62,121.11a337.57,337.57,0,0,1-7.89-35.22h0C225.55,442.62,194.53,348.49,194.53,348.49Z" transform="translate(-2.4 -2.02)" style="fill:#b2b1b2"/><path d="M348.93,317.75h0c10.42-.45,23.13,1.92,41.57,3.41,36.25-9.72,90.9-62.73,118.47-107.54-12.69,3.17-24.53,5.56-35.59,7.27h0C446.55,282.74,348.93,317.75,348.93,317.75Z" transform="translate(-2.4 -2.02)" style="fill:#b2b1b2"/><path d="M317.91,162.33h0c-.94-13.77,3-28.43,4.07-38.76C305.19,67,246,25,214.57,2c3.22,13.14,5.61,25.38,7.3,36.8h0C285.07,65.85,317.91,162.33,317.91,162.33Z" transform="translate(-2.4 -2.02)" style="fill:#b2b1b2"/></svg>