<?xml version="1.0" encoding="UTF-8"?><svg id="Calque_2" xmlns="http://www.w3.org/2000/svg" viewBox="0 0 498.94 520.58"><defs><style>.cls-1{fill:#666d8f;}.cls-2{fill:#abafc4;}.cls-3{fill:#22213a;}</style></defs><g id="Calque_1-2"><g><path class="cls-3" d="m392.48,247.61c-.02.36-.05.72-.07,1.08-.11.54-.5.5-.9.42-.07-.26-.15-.51-.22-.77.11-.72.5-.98,1.2-.73Z"/><path class="cls-3" d="m391.51,263.29s.03,0,.03,0c-.31.15-.64.18-.85-.13-.05-.08.15-.48.25-.48.39-.03.51.29.57.62Z"/><path class="cls-3" d="m391.28,248.34c.07.26.15.52.22.77-.28.19-.68.28-.82-.02-.25-.51.23-.63.6-.75Z"/><path class="cls-3" d="m302.69,474.83c-.21.59-.57.89-1.22.63.22-.58.61-.81,1.22-.63Z"/><rect class="cls-2" width="498.94" height="520.58"/><path class="cls-1" d="m276.29,246.48c-.32-.56-.63-1.07-.9-1.6-.52-1.01-.99-2.03-2.46-1.69-.26.06-.67-.11-.88-.31-1.3-1.24-2.62-2.46-3.8-3.8-.36-.41-.53-1.26-.39-1.79.23-.86-.02-1.36-.62-1.86-.31-.26-.6-.54-.85-.85-.48-.61-.94-.72-1.73-.42-1.96.74-6.6-1.63-7.29-3.59-.1-.29-.39-.6-.67-.71-.63-.25-1.29-.44-1.96-.52-.36-.04-.76.19-1.12.34-.86.34-1.68.87-2.56,1.02-1.09.18-2.25.16-3.35,0-.78-.11-1.51-.59-2.27-.88-.47-.18-.95-.42-1.43-.42-.5,0-1.04.16-1.49.4-.39.21-.69.61-.99.97-.15.18-.17.45-.28.65-.82,1.48-5.56,3.23-7.18,2.73-.38-.12-.94.04-1.3.26-.49.32-.94.78-1.27,1.26-.25.37-.47.91-.41,1.33.17,1.09-.12,1.98-.85,2.75-.86.9-1.68,1.85-2.65,2.61-.59.46-1.4.76-2.15.83-.68.06-1.09.22-1.39.83-.41.82-.9,1.6-1.4,2.48,1.16,1.11,2,2.4,1.59,4.11-.15.61-.45,1.19-.71,1.76-.29.64-.92,1.15-.35,2.02.16.25-.25.95-.5,1.39-7.07,12.27-14.16,24.52-21.24,36.78-.48.83-.97,1.65-1.44,2.5-.39.71-.94.84-1.6.46-2.57-1.47-5.13-2.96-7.69-4.44-.92-.53-.69-1.2-.27-1.94,2.35-4.05,4.69-8.1,7.03-12.15,5.18-8.97,10.35-17.94,15.53-26.91.34-.58.61-1.16,1.5-1.18.32,0,.69-.67.92-1.09.7-1.31,1.64-2.31,3.16-2.5.77-.1,1.57.06,2.51.11.52-.89,1.14-1.91,1.7-2.96.14-.26.15-.69.04-.97-.52-1.33-.16-2.43.78-3.4.81-.83,1.56-1.76,2.49-2.42.7-.49,1.64-.85,2.48-.85.75,0,1.26-.1,1.77-.64.93-.99,2.05-1.78,2.04-3.42,0-1.06.88-1.74,1.87-2.15,1.04-.42,2.08-.83,3.12-1.24,1.17-.46,2.26-.4,3.27.41.2.16.54.38.72.31,1.37-.5,3.12-.18,3.93-1.99.24-.55,1.18-1.04,1.85-1.11,1.58-.16,3.21-.17,4.79.02.69.08,1.56.66,1.88,1.26.49.91,1.15,1.18,2.03,1.4,1.12.28,2.04.52,3.22-.25,1.78-1.16,7.26,1.24,7.51,3.3.2,1.74,1.27,2.64,2.34,3.65.29.27.81.36,1.24.43.58.1,1.38-.13,1.73.18,1.51,1.34,2.92,2.8,4.28,4.29.28.31.39,1.1.2,1.48-.6,1.19-.03,2.04.55,2.95.39.6.73,1.23,1.07,1.82,3.15-.59,4.15-.1,5.84,2.69.2.34.7.49,1.01.77.43.38.92.73,1.2,1.21,7.26,12.53,14.49,25.07,21.74,37.6,1.72,2.97,1.68,2.65-1.12,4.26-1.94,1.12-3.89,2.22-5.82,3.36-.86.51-1.44.38-1.96-.52-7.58-13.17-15.19-26.32-22.78-39.49-.16-.27-.42-.7-.32-.86.7-1.12-.19-1.83-.6-2.65-.96-1.87-.67-3.37,1.15-5.39Zm-77.6,47.03c7.45-12.9,14.86-25.72,22.32-38.64-2.2-1.27-4.3-2.49-6.46-3.73-7.48,12.95-14.89,25.78-22.33,38.66,2.18,1.26,4.28,2.47,6.46,3.72Zm108.03-3.72c-7.46-12.92-14.87-25.74-22.33-38.65-2.21,1.28-4.3,2.49-6.46,3.73,7.49,12.97,14.9,25.79,22.33,38.65,2.2-1.27,4.27-2.47,6.46-3.74Zm-85.62-37.06c.72-1.29,2.05-2.48.99-3.85-.67-.87-2.02-1.62-3.09-1.67-1.57-.07-1.96,1.57-2.59,2.81,1.58.91,3.06,1.77,4.69,2.71Zm61.52-2.74c-.82-1.24-1.16-3.01-2.86-2.8-1.08.13-2.38.94-2.99,1.84-.9,1.33.39,2.47,1.08,3.7,1.58-.91,3.09-1.77,4.77-2.74Zm-30.7-23.14h-4.88v1.88h4.88v-1.88Zm-23.85,9.66c-1.22,1.23-2.41,2.42-3.2,3.22.37.46.73.9,1.21,1.51.99-1.01,2.17-2.23,3.35-3.44-.55-.53-.9-.85-1.37-1.3Zm45.94,3.33c-.81-.88-1.95-2.12-3.01-3.28-.53.47-.94.82-1.36,1.19,1.21,1.22,2.38,2.41,3.06,3.1.5-.39.92-.72,1.3-1.02Zm-9.36-9.24c-1.52-.6-3.03-1.21-4.46-1.78-.34.76-.55,1.25-.85,1.92,1.53.62,3.08,1.23,4.57,1.83.28-.76.46-1.23.73-1.97Zm-25.88-1.8c-1.51.62-3,1.22-4.47,1.82.28.72.48,1.25.75,1.94,1.53-.62,3.05-1.24,4.54-1.84-.3-.69-.5-1.17-.83-1.92Z"/><path class="cls-1" d="m35.33,509.37c-.32-.28-.81-.43-1.01-.77-1.7-2.79-2.7-3.28-5.84-2.69-.35-.59-.69-1.22-1.07-1.82-.58-.91-1.15-1.76-.55-2.95.19-.38.09-1.16-.2-1.48-1.35-1.5-2.77-2.95-4.28-4.29-.35-.31-1.15-.09-1.73-.18-.43-.07-.94-.15-1.24-.43-1.07-1.01-2.14-1.91-2.34-3.65-.24-2.06-5.72-4.46-7.51-3.3-1.18.76-2.1.53-3.22.25-.88-.22-1.54-.49-2.03-1.4-.32-.6-1.19-1.18-1.88-1.26-.8-.1-1.62-.14-2.44-.14v1.99h2.45v1.88H0v2.08c.54,0,1.07-.04,1.59-.12.89-.14,1.71-.67,2.56-1.02.37-.15.76-.38,1.12-.34.67.08,1.33.27,1.96.52.28.11.57.42.67.71.69,1.96,5.33,4.34,7.29,3.59.78-.3,1.25-.19,1.73.42.25.31.54.6.85.85.6.5.86,1,.62,1.86-.15.54.02,1.38.39,1.79,1.18,1.34,2.5,2.57,3.8,3.8.21.2.62.37.88.31,1.47-.33,1.94.69,2.46,1.69.27.53.59,1.04.9,1.6-1.82,2.02-2.11,3.52-1.15,5.39.42.82,1.31,1.53.6,2.65-.1.16.16.59.32.86.92,1.59,1.84,3.19,2.76,4.78h2.17c-1.02-1.77-2.03-3.52-3.05-5.29,2.16-1.25,4.25-2.46,6.46-3.73,1.74,3.01,3.48,6.02,5.21,9.02h2.17c-1.93-3.33-3.85-6.66-5.78-9.99-.28-.48-.77-.83-1.2-1.21Zm-20.89-16.38c-1.5-.6-3.04-1.22-4.57-1.83.3-.67.51-1.16.85-1.92,1.43.57,2.94,1.17,4.46,1.78-.28.75-.45,1.21-.73,1.97Zm8.79,8.29c-.68-.69-1.86-1.88-3.06-3.1.42-.37.82-.72,1.36-1.19,1.06,1.15,2.2,2.4,3.01,3.28-.38.3-.8.63-1.3,1.02Zm5.15,11.86c-.69-1.23-1.98-2.37-1.08-3.7.61-.9,1.91-1.7,2.99-1.84,1.7-.21,2.04,1.55,2.86,2.8-1.68.96-3.18,1.83-4.77,2.74Z"/><path class="cls-1" d="m464.03,511.55c2.16,1.25,4.25,2.46,6.46,3.73-1.02,1.77-2.04,3.53-3.06,5.29h2.17c.84-1.46,1.69-2.93,2.54-4.39.25-.44.67-1.13.5-1.39-.56-.87.06-1.38.35-2.02.26-.58.56-1.15.71-1.76.41-1.71-.43-2.99-1.59-4.11.5-.88.99-1.66,1.4-2.48.31-.61.71-.77,1.39-.83.74-.07,1.56-.37,2.15-.83.97-.76,1.8-1.71,2.65-2.61.73-.76,1.03-1.65.85-2.75-.07-.42.15-.95.41-1.33.33-.49.78-.94,1.27-1.26.35-.23.92-.38,1.3-.26,1.62.49,6.36-1.25,7.18-2.73.11-.21.14-.48.28-.65.3-.35.6-.75.99-.97.44-.24.99-.41,1.49-.4.48,0,.97.24,1.43.42.76.29,1.49.77,2.27.88.58.08,1.17.12,1.76.12v-2.08h-2.43v-1.88h2.43v-1.99c-.79,0-1.57.04-2.35.12-.67.07-1.6.56-1.85,1.11-.81,1.82-2.55,1.49-3.93,1.99-.18.07-.51-.15-.72-.31-1.01-.81-2.11-.88-3.27-.41-1.04.41-2.08.82-3.12,1.24-.99.4-1.88,1.08-1.87,2.15,0,1.64-1.1,2.43-2.04,3.42-.51.54-1.02.64-1.77.64-.84,0-1.79.36-2.48.85-.94.66-1.68,1.59-2.49,2.42-.94.97-1.3,2.07-.78,3.4.11.28.1.71-.04.97-.55,1.06-1.18,2.07-1.7,2.96-.94-.05-1.74-.21-2.51-.11-1.52.19-2.46,1.19-3.16,2.5-.23.43-.6,1.09-.92,1.09-.89.02-1.16.6-1.5,1.18-1.94,3.36-3.88,6.72-5.82,10.08h2.18c1.74-3.01,3.47-6.01,5.21-9.03Zm24.21-22.32c.32.74.53,1.23.83,1.92-1.49.6-3.01,1.22-4.54,1.84-.27-.7-.47-1.22-.75-1.94,1.47-.6,2.95-1.2,4.47-1.82Zm-10.7,7.7c.47.45.81.77,1.37,1.3-1.18,1.21-2.36,2.42-3.35,3.44-.49-.61-.84-1.04-1.21-1.51.79-.8,1.98-1.99,3.2-3.22Zm-9.07,10.7c1.08.05,2.42.8,3.09,1.67,1.06,1.37-.27,2.56-.99,3.85-1.63-.94-3.11-1.8-4.69-2.71.63-1.23,1.02-2.88,2.59-2.81Z"/><path class="cls-1" d="m57.32,29.43c-2.19,1.27-4.26,2.47-6.46,3.74C44.5,22.14,38.13,11.12,31.73.04h-2.17c6.63,11.49,13.27,22.98,19.89,34.47.52.9,1.1,1.03,1.96.52,1.93-1.14,3.87-2.25,5.82-3.36,2.8-1.61,2.84-1.28,1.12-4.26C53.06,18.29,47.79,9.16,42.51.04h-2.17c5.66,9.79,11.31,19.57,16.98,29.39Z"/><path class="cls-1" d="m441.71,29.43c2.19,1.27,4.26,2.47,6.46,3.74,6.37-11.02,12.73-22.04,19.14-33.13h2.17c-6.63,11.49-13.27,22.98-19.89,34.47-.52.9-1.1,1.03-1.96.52-1.93-1.14-3.87-2.25-5.82-3.36-2.8-1.61-2.84-1.28-1.12-4.26,5.28-9.12,10.55-18.25,15.83-27.38h2.17c-5.66,9.79-11.31,19.57-16.98,29.39Z"/><g><path class="cls-1" d="m469.55,203.04c-1.27,2.19-2.47,4.26-3.74,6.46,11.02,6.37,22.04,12.73,33.13,19.14v2.17c-11.49-6.63-22.98-13.27-34.47-19.89-.9-.52-1.03-1.1-.52-1.96,1.14-1.93,2.25-3.87,3.36-5.82,1.61-2.8,1.28-2.84,4.26-1.12,9.12,5.28,18.25,10.55,27.38,15.83v2.17c-9.79-5.66-19.57-11.31-29.39-16.98Z"/><path class="cls-1" d="m468.26,319.08c-1.48-2.56-2.97-5.12-4.44-7.69-.38-.67-.24-1.21.46-1.6.84-.46,1.66-.96,2.5-1.44,10.72-6.19,21.44-12.38,32.16-18.57v2.17c-11.05,6.38-22.06,12.74-33.11,19.13,1.25,2.18,2.46,4.28,3.72,6.46,9.8-5.66,19.58-11.31,29.39-16.98v2.18c-5.53,3.19-11.06,6.38-16.59,9.58-4.05,2.34-8.1,4.68-12.15,7.03-.73.42-1.41.65-1.94-.27Z"/></g><path class="cls-1" d="m11.2,224.95c.28.32.43.81.77,1.01,2.79,1.7,3.28,2.7,2.69,5.84.59.35,1.22.69,1.82,1.07.91.58,1.76,1.15,2.95.55.38-.19,1.16-.09,1.48.2,1.5,1.35,2.95,2.77,4.29,4.28.31.35.09,1.15.18,1.73.07.43.15.94.43,1.24,1.01,1.07,1.91,2.14,3.65,2.34,2.06.24,4.46,5.72,3.3,7.51-.76,1.18-.53,2.1-.25,3.22.22.88.49,1.54,1.4,2.03.6.32,1.18,1.19,1.26,1.88.19,1.58.18,3.2.02,4.79-.07.67-.56,1.6-1.11,1.85-1.82.81-1.49,2.55-1.99,3.93-.07.18.15.51.31.72.81,1.01.88,2.11.41,3.27-.41,1.04-.82,2.08-1.24,3.12-.4.99-1.08,1.88-2.15,1.87-1.64,0-2.43,1.1-3.42,2.04-.54.51-.64,1.02-.64,1.77,0,.84-.36,1.79-.85,2.48-.66.94-1.59,1.68-2.42,2.49-.97.94-2.07,1.3-3.4.78-.28-.11-.71-.1-.97.04-1.06.55-2.07,1.18-2.96,1.7.05.94.21,1.74.11,2.51-.19,1.52-1.19,2.46-2.5,3.16-.43.23-1.09.6-1.09.92-.02.89-.6,1.16-1.18,1.5-3.36,1.94-6.72,3.88-10.08,5.82v-2.18c3.01-1.74,6.01-3.47,9.03-5.21-1.25-2.16-2.46-4.25-3.73-6.46-1.77,1.02-3.53,2.04-5.29,3.06v-2.17c1.46-.84,2.93-1.69,4.39-2.54.44-.25,1.13-.67,1.39-.5.87.56,1.38-.06,2.02-.35.58-.26,1.15-.56,1.76-.71,1.71-.41,2.99.43,4.11,1.59.88-.5,1.66-.99,2.48-1.4.61-.31.77-.71.83-1.39.07-.74.37-1.56.83-2.15.76-.97,1.71-1.8,2.61-2.65.76-.73,1.65-1.03,2.75-.85.42.07.95-.15,1.33-.41.49-.33.94-.78,1.26-1.27.23-.35.38-.92.26-1.3-.49-1.62,1.25-6.36,2.73-7.18.21-.11.48-.14.65-.28.35-.3.75-.6.97-.99.24-.44.41-.99.4-1.49,0-.48-.24-.97-.42-1.43-.29-.76-.77-1.49-.88-2.27-.15-1.1-.17-2.26,0-3.35.14-.89.67-1.71,1.02-2.56.15-.37.38-.76.34-1.12-.08-.67-.27-1.33-.52-1.96-.11-.28-.42-.57-.71-.67-1.96-.69-4.34-5.33-3.59-7.29.3-.78.19-1.25-.42-1.73-.31-.25-.6-.54-.85-.85-.5-.6-1-.86-1.86-.62-.54.15-1.38-.02-1.79-.39-1.34-1.18-2.57-2.5-3.8-3.8-.2-.21-.37-.62-.31-.88.33-1.47-.69-1.94-1.69-2.46-.53-.27-1.04-.59-1.6-.9-2.02,1.82-3.52,2.11-5.39,1.15-.82-.42-1.53-1.31-2.65-.6-.16.1-.59-.16-.86-.32-1.59-.92-3.19-1.84-4.78-2.76v-2.17c1.77,1.02,3.52,2.03,5.29,3.05,1.25-2.16,2.46-4.25,3.73-6.46-3.01-1.74-6.02-3.48-9.02-5.21v-2.17c3.33,1.93,6.66,3.85,9.99,5.78.48.28.83.77,1.21,1.2Zm-3.76,63.7c.94,1.63,1.8,3.11,2.71,4.69,1.23-.63,2.88-1.02,2.81-2.59-.05-1.08-.8-2.42-1.67-3.09-1.37-1.06-2.56.27-3.85.99Zm11.48-4.98c.61.49,1.04.84,1.51,1.21.8-.79,1.99-1.98,3.22-3.2-.45-.47-.77-.81-1.3-1.37-1.21,1.18-2.42,2.36-3.44,3.35Zm8.67-8.97c.7.27,1.22.47,1.94.75.6-1.47,1.2-2.95,1.82-4.47-.74-.32-1.23-.53-1.92-.83-.6,1.49-1.22,3.01-1.84,4.54Zm3.85-16.86v4.88h1.88v-4.88h-1.88Zm-3.85-12c.6,1.5,1.22,3.04,1.83,4.57.67-.3,1.16-.51,1.92-.85-.57-1.43-1.17-2.94-1.78-4.46-.75.28-1.21.45-1.97.73Zm-8.29-8.79c.69.68,1.88,1.86,3.1,3.06.37-.42.72-.82,1.19-1.36-1.15-1.06-2.4-2.2-3.28-3.01-.3.38-.63.8-1.02,1.3Zm-11.86-5.15c1.23.69,2.37,1.98,3.7,1.08.9-.61,1.7-1.91,1.84-2.99.21-1.7-1.55-2.04-2.8-2.86-.96,1.68-1.83,3.18-2.74,4.77Z"/><path class="cls-1" d="m127.1,100.66c-.62-.17-1.2-.31-1.77-.49-1.08-.35-2.13-.73-2.93.54-.14.23-.55.4-.84.4-1.79.05-3.59.12-5.38,0-.55-.04-1.27-.51-1.54-1-.44-.77-.98-.95-1.76-.88-.4.04-.81.05-1.2,0-.77-.09-1.18.16-1.52.92-.86,1.91-5.82,3.51-7.7,2.61-.27-.13-.7-.14-.98-.02-.62.27-1.23.6-1.75,1.02-.28.22-.4.67-.55,1.03-.36.85-.57,1.8-1.09,2.53-.65.9-1.48,1.7-2.37,2.37-.63.48-1.48.65-2.23.98-.46.21-.97.38-1.31.72-.36.35-.62.85-.77,1.34-.13.43-.06.92-.01,1.38.02.23.2.44.26.66.47,1.63-1.65,6.21-3.14,7.01-.35.19-.64.69-.73,1.1-.12.57-.11,1.21,0,1.79.08.44.31.98.65,1.23.89.65,1.31,1.49,1.34,2.54.03,1.24.12,2.5-.03,3.72-.09.74-.45,1.53-.93,2.11-.44.53-.61.93-.4,1.57.29.87.5,1.77.76,2.75,1.61-.03,3.11.28,4.03,1.78.33.54.52,1.15.74,1.75.25.66.16,1.46,1.18,1.68.29.06.49.85.62,1.34,3.67,13.67,7.33,27.35,10.99,41.03.25.93.48,1.86.75,2.78.22.77-.07,1.26-.81,1.46-2.86.78-5.72,1.54-8.58,2.3-1.03.27-1.34-.36-1.56-1.18-1.2-4.52-2.41-9.04-3.62-13.56-2.68-10-5.36-20.01-8.04-30.01-.17-.65-.39-1.25.22-1.89.22-.23.02-.96-.12-1.43-.43-1.42-.47-2.79.47-4,.48-.61,1.15-1.07,1.85-1.69-.26-.99-.54-2.16-.89-3.29-.09-.28-.38-.59-.66-.72-1.31-.58-1.83-1.61-1.85-2.96-.02-1.16-.14-2.35.05-3.48.14-.84.56-1.76,1.15-2.36.53-.54.82-.96.8-1.7-.04-1.36.19-2.71-.98-3.86-.75-.75-.61-1.86-.19-2.84.43-1.03.88-2.06,1.33-3.08.5-1.15,1.32-1.88,2.61-2.02.26-.03.65-.11.73-.29.61-1.33,2.08-2.33,1.37-4.19-.22-.56.1-1.57.52-2.09,1.01-1.23,2.15-2.39,3.4-3.37.54-.43,1.57-.63,2.22-.43.99.3,1.65.02,2.43-.45.99-.59,1.81-1.08,2.1-2.45.44-2.08,6.01-4.26,7.64-2.97,1.37,1.08,2.76.97,4.23.92.4-.01.82-.32,1.18-.57.48-.34.88-1.07,1.35-1.09,2.01-.12,4.04-.09,6.06.01.42.02,1.05.5,1.18.91.41,1.26,1.42,1.46,2.48,1.69.7.15,1.38.36,2.05.53,1.81-2.64,2.86-3,6.03-2.23.38.09.84-.15,1.26-.17.57-.03,1.17-.13,1.7,0,13.99,3.73,27.97,7.49,41.96,11.22,3.32.89,3.06.68,2.22,3.8-.58,2.16-1.18,4.32-1.74,6.49-.25.97-.75,1.29-1.76,1.02-14.67-3.95-29.35-7.87-44.03-11.81-.3-.08-.79-.2-.83-.38-.3-1.29-1.43-1.17-2.3-1.45-2-.65-2.85-1.91-2.99-4.63Zm-21.62,88.13c-3.85-14.39-7.68-28.7-11.54-43.11-2.46.66-4.8,1.28-7.21,1.93,3.87,14.44,7.7,28.75,11.55,43.12,2.43-.66,4.77-1.29,7.2-1.94Zm73.75-79.02c-14.41-3.86-28.72-7.69-43.12-11.54-.66,2.47-1.28,4.8-1.92,7.21,14.47,3.87,28.78,7.7,43.12,11.54.65-2.45,1.27-4.77,1.93-7.21Zm-86.75,34.34c-.4-1.42-.31-3.2-2.02-3.42-1.09-.14-2.57.28-3.37,1.01-1.16,1.06-.27,2.5.15,3.81,1.76-.47,3.42-.91,5.23-1.4Zm41.56-45.44c-1.46-.3-2.95-1.3-4,.04-.67.86-1.02,2.34-.81,3.41.3,1.58,2.02,1.47,3.38,1.85.48-1.76.93-3.44,1.43-5.31Zm-38.07,5.35l-3.45,3.45,1.33,1.33,3.45-3.45-1.33-1.33Zm-10.03,23.7c0,1.73.01,3.42.02,4.54.59.06,1.15.12,1.93.21-.02-1.41-.04-3.11-.06-4.8-.76.02-1.23.03-1.88.05Zm34.84-30.13c-1.2-.05-2.88-.12-4.44-.19-.05.71-.08,1.24-.12,1.8,1.72.01,3.39.02,4.36.03.08-.63.14-1.16.2-1.64Zm-13.15.09c-1.5.64-3,1.29-4.41,1.89.3.78.49,1.27.76,1.96,1.52-.65,3.05-1.3,4.53-1.94-.34-.74-.54-1.19-.88-1.91Zm-19.57,17.03c-.63,1.5-1.26,2.98-1.87,4.44.71.31,1.22.54,1.91.84.64-1.52,1.28-3.03,1.91-4.51-.69-.28-1.19-.47-1.94-.77Z"/><path class="cls-1" d="m364.29,98.39c.62-.17,1.2-.31,1.77-.49,1.08-.35,2.13-.73,2.93.54.14.23.55.4.84.4,1.79.05,3.59.12,5.38,0,.55-.04,1.27-.51,1.54-1,.44-.77.98-.95,1.76-.88.4.04.81.05,1.2,0,.77-.09,1.18.16,1.52.92.86,1.91,5.82,3.51,7.7,2.61.27-.13.7-.14.98-.02.62.27,1.23.6,1.75,1.02.28.22.4.67.55,1.03.36.85.57,1.8,1.09,2.53.65.9,1.48,1.7,2.37,2.37.63.48,1.48.65,2.23.98.46.21.97.38,1.31.72.36.35.62.85.77,1.34.13.43.06.92.01,1.38-.02.23-.2.44-.26.66-.47,1.63,1.65,6.21,3.14,7.01.35.19.64.69.73,1.1.12.57.11,1.21,0,1.79-.08.44-.31.98-.65,1.23-.89.65-1.31,1.49-1.34,2.54-.03,1.24-.12,2.5.03,3.72.09.74.45,1.53.93,2.11.44.53.61.93.4,1.57-.29.87-.5,1.77-.76,2.75-1.61-.03-3.11.28-4.03,1.78-.33.54-.52,1.15-.74,1.75-.25.66-.16,1.46-1.18,1.68-.29.06-.49.85-.62,1.34-3.67,13.67-7.33,27.35-10.99,41.03-.25.93-.48,1.86-.75,2.78-.22.77.07,1.26.81,1.46,2.86.78,5.72,1.54,8.58,2.3,1.03.27,1.34-.36,1.56-1.18,1.2-4.52,2.41-9.04,3.62-13.56,2.68-10,5.36-20.01,8.04-30.01.17-.65.39-1.25-.22-1.89-.22-.23-.02-.96.12-1.43.43-1.42.47-2.79-.47-4-.48-.61-1.15-1.07-1.85-1.69.26-.99.54-2.16.89-3.29.09-.28.38-.59.66-.72,1.31-.58,1.83-1.61,1.85-2.96.02-1.16.14-2.35-.05-3.48-.14-.84-.56-1.76-1.15-2.36-.53-.54-.82-.96-.8-1.7.04-1.36-.19-2.71.98-3.86.75-.75.61-1.86.19-2.84-.43-1.03-.88-2.06-1.33-3.08-.5-1.15-1.32-1.88-2.61-2.02-.26-.03-.65-.11-.73-.29-.61-1.33-2.08-2.33-1.37-4.19.22-.56-.1-1.57-.52-2.09-1.01-1.23-2.15-2.39-3.4-3.37-.54-.43-1.57-.63-2.22-.43-.99.3-1.65.02-2.43-.45-.99-.59-1.81-1.08-2.1-2.45-.44-2.08-6.01-4.26-7.64-2.97-1.37,1.08-2.76.97-4.23.92-.4-.01-.82-.32-1.18-.57-.48-.34-.88-1.07-1.35-1.09-2.01-.12-4.04-.09-6.06.01-.42.02-1.05.5-1.18.91-.41,1.26-1.42,1.46-2.48,1.69-.7.15-1.38.36-2.05.53-1.81-2.64-2.86-3-6.03-2.23-.38.09-.84-.15-1.26-.17-.57-.03-1.17-.13-1.7,0-13.99,3.73-27.97,7.49-41.96,11.22-3.32.89-3.06.68-2.22,3.8.58,2.16,1.18,4.32,1.74,6.49.25.97.75,1.29,1.76,1.02,14.67-3.95,29.35-7.87,44.03-11.81.3-.08.79-.2.83-.38.3-1.29,1.43-1.17,2.3-1.45,2-.65,2.85-1.91,2.99-4.63Zm21.62,88.13c3.85-14.39,7.68-28.7,11.54-43.11,2.46.66,4.8,1.28,7.21,1.93-3.87,14.44-7.7,28.75-11.55,43.12-2.43-.66-4.77-1.29-7.2-1.94Zm-73.75-79.02c14.41-3.86,28.72-7.69,43.12-11.54.66,2.47,1.28,4.8,1.92,7.21-14.47,3.87-28.78,7.7-43.12,11.54-.65-2.45-1.27-4.77-1.93-7.21Zm86.75,34.34c.4-1.42.31-3.2,2.02-3.42,1.09-.14,2.57.28,3.37,1.01,1.16,1.06.27,2.5-.15,3.81-1.76-.47-3.42-.91-5.23-1.4Zm-41.56-45.44c1.46-.3,2.95-1.3,4,.04.67.86,1.02,2.34.81,3.41-.3,1.58-2.02,1.47-3.38,1.85-.48-1.76-.93-3.44-1.43-5.31Zm38.07,5.35c1.16,1.16,2.32,2.32,3.45,3.45l-1.33,1.33-3.45-3.45,1.33-1.33Zm10.03,23.7c0,1.73-.01,3.42-.02,4.54-.59.06-1.15.12-1.93.21.02-1.41.04-3.11.06-4.8.76.02,1.23.03,1.88.05Zm-34.84-30.13c1.2-.05,2.88-.12,4.44-.19.05.71.08,1.24.12,1.8-1.72.01-3.39.02-4.36.03-.08-.63-.14-1.16-.2-1.64Zm13.15.09c1.5.64,3,1.29,4.41,1.89-.3.78-.49,1.27-.76,1.96-1.52-.65-3.05-1.3-4.53-1.94.34-.74.54-1.19.88-1.91Zm19.57,17.03c.63,1.5,1.26,2.98,1.87,4.44-.71.31-1.22.54-1.91.84-.64-1.52-1.28-3.03-1.91-4.51.69-.28,1.19-.47,1.94-.77Z"/><path class="cls-1" d="m364.92,415.59c.62.17,1.2.31,1.77.49,1.08.35,2.13.73,2.93-.54.14-.23.55-.4.84-.4,1.79-.05,3.59-.12,5.38,0,.55.04,1.27.51,1.54,1,.44.77.98.95,1.76.88.4-.04.81-.05,1.2,0,.77.09,1.18-.16,1.52-.92.86-1.91,5.82-3.51,7.7-2.61.27.13.7.14.98.02.62-.27,1.23-.6,1.75-1.02.28-.22.4-.67.55-1.03.36-.85.57-1.8,1.09-2.53.65-.9,1.48-1.7,2.37-2.37.63-.48,1.48-.65,2.23-.98.46-.21.97-.38,1.31-.72.36-.35.62-.85.77-1.34.13-.43.06-.92.01-1.38-.02-.23-.2-.44-.26-.66-.47-1.63,1.65-6.21,3.14-7.01.35-.19.64-.69.73-1.1.12-.57.11-1.21,0-1.79-.08-.44-.31-.98-.65-1.23-.89-.65-1.31-1.49-1.34-2.54-.03-1.24-.12-2.5.03-3.72.09-.74.45-1.53.93-2.11.44-.53.61-.93.4-1.57-.29-.87-.5-1.77-.76-2.75-1.61.03-3.11-.28-4.03-1.78-.33-.54-.52-1.15-.74-1.75-.25-.66-.16-1.46-1.18-1.68-.29-.06-.49-.85-.62-1.34-3.67-13.67-7.33-27.35-10.99-41.03-.25-.93-.48-1.86-.75-2.78-.22-.77.07-1.26.81-1.46,2.86-.78,5.72-1.54,8.58-2.3,1.03-.27,1.34.36,1.56,1.18,1.2,4.52,2.41,9.04,3.62,13.56,2.68,10,5.36,20.01,8.04,30.01.17.65.39,1.25-.22,1.89-.22.23-.02.96.12,1.43.43,1.42.47,2.79-.47,4-.48.61-1.15,1.07-1.85,1.69.26.99.54,2.16.89,3.29.09.28.38.59.66.72,1.31.58,1.83,1.61,1.85,2.96.02,1.16.14,2.35-.05,3.48-.14.84-.56,1.76-1.15,2.36-.53.54-.82.96-.8,1.7.04,1.36-.19,2.71.98,3.86.75.75.61,1.86.19,2.84-.43,1.03-.88,2.06-1.33,3.08-.5,1.15-1.32,1.88-2.61,2.02-.26.03-.65.11-.73.29-.61,1.33-2.08,2.33-1.37,4.19.22.56-.1,1.57-.52,2.09-1.01,1.23-2.15,2.39-3.4,3.37-.54.43-1.57.63-2.22.43-.99-.3-1.65-.02-2.43.45-.99.59-1.81,1.08-2.1,2.45-.44,2.08-6.01,4.26-7.64,2.97-1.37-1.08-2.76-.97-4.23-.92-.4.01-.82.32-1.18.57-.48.34-.88,1.07-1.35,1.09-2.01.12-4.04.09-6.06-.01-.42-.02-1.05-.5-1.18-.91-.41-1.26-1.42-1.46-2.48-1.69-.7-.15-1.38-.36-2.05-.53-1.81,2.64-2.86,3-6.03,2.23-.38-.09-.84.15-1.26.17-.57.03-1.17.13-1.7,0-13.99-3.73-27.97-7.49-41.96-11.22-3.32-.89-3.06-.68-2.22-3.8.58-2.16,1.18-4.32,1.74-6.49.25-.97.75-1.29,1.76-1.02,14.67,3.95,29.35,7.87,44.03,11.81.3.08.79.2.83.38.3,1.29,1.43,1.17,2.3,1.45,2,.65,2.85,1.91,2.99,4.63Zm21.62-88.13c3.85,14.39,7.68,28.7,11.54,43.11,2.46-.66,4.8-1.28,7.21-1.93-3.87-14.44-7.7-28.75-11.55-43.12-2.43.66-4.77,1.29-7.2,1.94Zm-73.75,79.02c14.41,3.86,28.72,7.69,43.12,11.54.66-2.47,1.28-4.8,1.92-7.21-14.47-3.87-28.78-7.7-43.12-11.54-.65,2.45-1.27,4.77-1.93,7.21Zm86.75-34.34c.4,1.42.31,3.2,2.02,3.42,1.09.14,2.57-.28,3.37-1.01,1.16-1.06.27-2.5-.15-3.81-1.76.47-3.42.91-5.23,1.4Zm-41.56,45.44c1.46.3,2.95,1.3,4-.04.67-.86,1.02-2.34.81-3.41-.3-1.58-2.02-1.47-3.38-1.85-.48,1.76-.93,3.44-1.43,5.31Zm38.07-5.35l3.45-3.45-1.33-1.33-3.45,3.45,1.33,1.33Zm10.03-23.7c0-1.73-.01-3.42-.02-4.54-.59-.06-1.15-.12-1.93-.21.02,1.41.04,3.11.06,4.8.76-.02,1.23-.03,1.88-.05Zm-34.84,30.13c1.2.05,2.88.12,4.44.19.05-.71.08-1.24.12-1.8-1.72-.01-3.39-.02-4.36-.03-.08.63-.14,1.16-.2,1.64Zm13.15-.09c1.5-.64,3-1.29,4.41-1.89-.3-.78-.49-1.27-.76-1.96-1.52.65-3.05,1.3-4.53,1.94.34.74.54,1.19.88,1.91Zm19.57-17.03c.63-1.5,1.26-2.98,1.87-4.44-.71-.31-1.22-.54-1.91-.84-.64,1.52-1.28,3.03-1.91,4.51.69.28,1.19.47,1.94.77Z"/><path class="cls-1" d="m128.28,414.65c-.62.17-1.2.31-1.77.49-1.08.35-2.13.73-2.93-.54-.14-.23-.55-.4-.84-.4-1.79-.05-3.59-.12-5.38,0-.55.04-1.27.51-1.54,1-.44.77-.98.95-1.76.88-.4-.04-.81-.05-1.2,0-.77.09-1.18-.16-1.52-.92-.86-1.91-5.82-3.51-7.7-2.61-.27.13-.7.14-.98.02-.62-.27-1.23-.6-1.75-1.02-.28-.22-.4-.67-.55-1.03-.36-.85-.57-1.8-1.09-2.53-.65-.9-1.48-1.7-2.37-2.37-.63-.48-1.48-.65-2.23-.98-.46-.21-.97-.38-1.31-.72-.36-.35-.62-.85-.77-1.34-.13-.43-.06-.92-.01-1.38.02-.23.2-.44.26-.66.47-1.63-1.65-6.21-3.14-7.01-.35-.19-.64-.69-.73-1.1-.12-.57-.11-1.21,0-1.79.08-.44.31-.98.65-1.23.89-.65,1.31-1.49,1.34-2.54.03-1.24.12-2.5-.03-3.72-.09-.74-.45-1.53-.93-2.11-.44-.53-.61-.93-.4-1.57.29-.87.5-1.77.76-2.75,1.61.03,3.11-.28,4.03-1.78.33-.54.52-1.15.74-1.75.25-.66.16-1.46,1.18-1.68.29-.06.49-.85.62-1.34,3.67-13.67,7.33-27.35,10.99-41.03.25-.93.48-1.86.75-2.78.22-.77-.07-1.26-.81-1.46-2.86-.78-5.72-1.54-8.58-2.3-1.03-.27-1.34.36-1.56,1.18-1.2,4.52-2.41,9.04-3.62,13.56-2.68,10-5.36,20.01-8.04,30.01-.17.65-.39,1.25.22,1.89.22.23.02.96-.12,1.43-.43,1.42-.47,2.79.47,4,.48.61,1.15,1.07,1.85,1.69-.26.99-.54,2.16-.89,3.29-.09.28-.38.59-.66.72-1.31.58-1.83,1.61-1.85,2.96-.02,1.16-.14,2.35.05,3.48.14.84.56,1.76,1.15,2.36.53.54.82.96.8,1.7-.04,1.36.19,2.71-.98,3.86-.75.75-.61,1.86-.19,2.84.43,1.03.88,2.06,1.33,3.08.5,1.15,1.32,1.88,2.61,2.02.26.03.65.11.73.29.61,1.33,2.08,2.33,1.37,4.19-.22.56.1,1.57.52,2.09,1.01,1.23,2.15,2.39,3.4,3.37.54.43,1.57.63,2.22.43.99-.3,1.65-.02,2.43.45.99.59,1.81,1.08,2.1,2.45.44,2.08,6.01,4.26,7.64,2.97,1.37-1.08,2.76-.97,4.23-.92.4.01.82.32,1.18.57.48.34.88,1.07,1.35,1.09,2.01.12,4.04.09,6.06-.01.42-.02,1.05-.5,1.18-.91.41-1.26,1.42-1.46,2.48-1.69.7-.15,1.38-.36,2.05-.53,1.81,2.64,2.86,3,6.03,2.23.38-.09.84.15,1.26.17.57.03,1.17.13,1.7,0,13.99-3.73,27.97-7.49,41.96-11.22,3.32-.89,3.06-.68,2.22-3.8-.58-2.16-1.18-4.32-1.74-6.49-.25-.97-.75-1.29-1.76-1.02-14.67,3.95-29.35,7.87-44.03,11.81-.3.08-.79.2-.83.38-.3,1.29-1.43,1.17-2.3,1.45-2,.65-2.85,1.91-2.99,4.63Zm-21.62-88.13c-3.85,14.39-7.68,28.7-11.54,43.11-2.46-.66-4.8-1.28-7.21-1.93,3.87-14.44,7.7-28.75,11.55-43.12,2.43.66,4.77,1.29,7.2,1.94Zm73.75,79.02c-14.41,3.86-28.72,7.69-43.12,11.54-.66-2.47-1.28-4.8-1.92-7.21,14.47-3.87,28.78-7.7,43.12-11.54.65,2.45,1.27,4.77,1.93,7.21Zm-86.75-34.34c-.4,1.42-.31,3.2-2.02,3.42-1.09.14-2.57-.28-3.37-1.01-1.16-1.06-.27-2.5.15-3.81,1.76.47,3.42.91,5.23,1.4Zm41.56,45.44c-1.46.3-2.95,1.3-4-.04-.67-.86-1.02-2.34-.81-3.41.3-1.58,2.02-1.47,3.38-1.85.48,1.76.93,3.44,1.43,5.31Zm-38.07-5.35l-3.45-3.45,1.33-1.33,3.45,3.45-1.33,1.33Zm-10.03-23.7c0-1.73.01-3.42.02-4.54.59-.06,1.15-.12,1.93-.21-.02,1.41-.04,3.11-.06,4.8-.76-.02-1.23-.03-1.88-.05Zm34.84,30.13c-1.2.05-2.88.12-4.44.19-.05-.71-.08-1.24-.12-1.8,1.72-.01,3.39-.02,4.36-.03.08.63.14,1.16.2,1.64Zm-13.15-.09c-1.5-.64-3-1.29-4.41-1.89.3-.78.49-1.27.76-1.96,1.52.65,3.05,1.3,4.53,1.94-.34.74-.54,1.19-.88,1.91Zm-19.57-17.03c-.63-1.5-1.26-2.98-1.87-4.44.71-.31,1.22-.54,1.91-.84.64,1.52,1.28,3.03,1.91,4.51-.69.28-1.19.47-1.94.77Z"/><path class="cls-1" d="m259.57,484.05c.48.28.83.77,1.21,1.2.28.32.43.81.77,1.01,2.79,1.7,3.28,2.7,2.69,5.84.59.35,1.22.69,1.82,1.07.91.58,1.76,1.15,2.95.55.38-.19,1.16-.09,1.48.2,1.5,1.35,2.95,2.77,4.29,4.28.31.35.09,1.15.18,1.73.07.43.15.94.43,1.24,1.01,1.07,1.91,2.14,3.65,2.34,2.06.24,4.46,5.72,3.3,7.51-.76,1.18-.53,2.1-.25,3.22.22.88.49,1.54,1.4,2.03.6.32,1.18,1.19,1.26,1.88.1.8.14,1.61.14,2.43h-1.99v-2.44h-1.88v2.44h-2.08c0-.53.04-1.07.12-1.58.14-.89.67-1.71,1.02-2.56.15-.37.38-.76.34-1.12-.08-.67-.27-1.33-.52-1.96-.11-.28-.42-.57-.71-.67-1.96-.69-4.34-5.33-3.59-7.29.3-.78.19-1.25-.42-1.73-.31-.25-.6-.54-.85-.85-.5-.6-1-.86-1.86-.62-.54.15-1.38-.02-1.79-.39-1.34-1.18-2.57-2.5-3.8-3.8-.2-.21-.37-.62-.31-.88.33-1.47-.69-1.94-1.69-2.46-.53-.27-1.04-.59-1.6-.9-2.02,1.82-3.52,2.11-5.39,1.15-.82-.42-1.53-1.31-2.65-.6-.16.1-.59-.16-.86-.32-13.16-7.59-26.32-15.2-39.49-22.78-.9-.52-1.03-1.1-.52-1.96,1.14-1.93,2.25-3.87,3.36-5.82,1.61-2.8,1.28-2.84,4.26-1.12,12.53,7.25,25.08,14.48,37.6,21.74Zm17.59,22.09c.6,1.5,1.22,3.04,1.83,4.57.67-.3,1.16-.51,1.92-.85-.57-1.43-1.17-2.94-1.78-4.46-.75.28-1.21.45-1.97.73Zm-8.29-8.79c.69.68,1.88,1.86,3.1,3.06.37-.42.72-.82,1.19-1.36-1.15-1.06-2.4-2.2-3.28-3.01-.3.38-.63.8-1.02,1.3Zm-8.16-4.07c.9-.61,1.7-1.91,1.84-2.99.21-1.7-1.55-2.04-2.8-2.86-.96,1.68-1.83,3.18-2.74,4.77,1.23.69,2.37,1.98,3.7,1.08Zm-44.5-23.49c12.86,7.43,25.68,14.83,38.65,22.33,1.25-2.16,2.46-4.25,3.73-6.46-12.9-7.46-25.73-14.87-38.65-22.33-1.27,2.19-2.47,4.26-3.74,6.46Z"/><path class="cls-1" d="m281.03,0v2.44h1.88V0h1.99c0,.79-.04,1.58-.12,2.36-.07.67-.56,1.6-1.11,1.85-1.82.81-1.49,2.55-1.99,3.93-.07.18.15.51.31.72.81,1.01.88,2.11.41,3.27-.41,1.04-.82,2.08-1.24,3.12-.4.99-1.08,1.88-2.15,1.87-1.64,0-2.43,1.1-3.42,2.04-.54.51-.64,1.02-.64,1.77,0,.84-.36,1.79-.85,2.48-.66.94-1.59,1.68-2.42,2.49-.97.94-2.07,1.3-3.4.78-.28-.11-.71-.1-.97.04-1.06.55-2.07,1.18-2.96,1.7.05.94.21,1.74.11,2.51-.19,1.52-1.19,2.46-2.5,3.16-.43.23-1.09.6-1.09.92-.02.89-.6,1.16-1.18,1.5-8.97,5.18-17.94,10.36-26.91,15.53-4.05,2.34-8.1,4.68-12.15,7.03-.73.42-1.4.65-1.94-.27-1.48-2.56-2.97-5.12-4.44-7.69-.38-.67-.24-1.21.46-1.6.84-.46,1.66-.96,2.5-1.44,12.26-7.08,24.52-14.17,36.78-21.24.44-.25,1.13-.67,1.39-.5.87.56,1.38-.06,2.02-.35.58-.26,1.15-.56,1.76-.71,1.71-.41,2.99.43,4.11,1.59.88-.5,1.66-.99,2.48-1.4.61-.31.77-.71.83-1.39.07-.74.37-1.56.83-2.15.76-.97,1.71-1.8,2.61-2.65.76-.73,1.65-1.03,2.75-.85.42.07.95-.15,1.33-.41.49-.33.94-.78,1.26-1.27.23-.35.38-.92.26-1.3-.49-1.62,1.25-6.36,2.73-7.18.21-.11.48-.14.65-.28.35-.3.75-.6.97-.99.24-.44.41-.99.4-1.49,0-.48-.24-.97-.42-1.43-.29-.76-.77-1.49-.88-2.27-.08-.58-.12-1.18-.12-1.77h2.08Zm-64.79,50.78c1.25,2.18,2.46,4.28,3.72,6.46,12.88-7.44,25.71-14.85,38.66-22.33-1.25-2.16-2.46-4.25-3.73-6.46-12.92,7.46-25.75,14.87-38.64,22.32Zm40.79-22.41c.94,1.63,1.8,3.11,2.71,4.69,1.23-.63,2.88-1.02,2.81-2.59-.05-1.08-.8-2.42-1.67-3.09-1.37-1.06-2.56.27-3.85.99Zm11.48-4.98c.61.49,1.04.84,1.51,1.21.8-.79,1.99-1.98,3.22-3.2-.45-.47-.77-.81-1.3-1.37-1.21,1.18-2.42,2.36-3.44,3.35Zm8.67-8.97c.7.27,1.22.47,1.94.75.6-1.47,1.2-2.95,1.82-4.47-.74-.32-1.23-.53-1.92-.83-.6,1.49-1.22,3.01-1.84,4.54Z"/></g></g></svg>