<?xml version="1.0" encoding="UTF-8"?><svg id="Calque_2" xmlns="http://www.w3.org/2000/svg" viewBox="0 0 326.6 265.48"><defs><style>.cls-1{fill:#f5bad6;}.cls-2{fill:#1d1d1b;}.cls-3{fill:#9c302b;}.cls-4{fill:#263239;}.cls-5{opacity:.3;}</style></defs><g id="Calque_1-2"><g><g><path class="cls-1" d="m324.6,106.76c-4.69-16.1-17.62-29.21-33.01-33.46,3.1-11.52-1.81-24.82-7.9-34.9-6.09-10.09-17.09-17.34-28.25-19.19-11.6-1.92-18.8-.88-30.03,2.72-6.71-12.85-19.6-19.81-33.37-21.46-13.77-1.65-28.6,6.1-34.18,19.54-2-14.13-17.92-22.51-31.06-19.32-13.14,3.19-23.13,14.85-29.28,27.56l176.58,189.95c15.65,6.24,34.96-.25,44.35-14.92,9.39-14.66,7.95-36.07-3.31-49.17,10.45-12.7,14.17-31.25,9.48-47.35Z"/><path class="cls-1" d="m36.04,52.28c5.27-14.74,14.91-25.92,29.66-32.02,14.87-6.15,31.65-6.24,47.49-3.44,6.49,1.15,13.17,2.89,18.17,7.18,5.01,4.29,7.82,11.78,4.93,17.71,13.73-7.75,31.55-7.7,45.23.14,13.69,7.84,22.75,23.17,23.01,38.94,14.31-1.14,29.33,2.02,40.68,10.8,11.35,8.78,18.38,23.66,15.81,37.78,9.36-.82,18.33,5.21,23.31,13.17,4.98,7.96,6.61,17.56,7.27,26.93.41,5.78.47,11.74-1.46,17.21-.94,2.66-2.34,5.17-2.95,7.92-.74,3.33-.28,6.8-.18,10.21.47,15.79-7.39,31.59-20.26,40.74-12.88,9.15-30.39,11.37-45.14,5.73-16.39,16.92-45.76,19.03-64.4,4.62-12.13,4.07-24.97,7-37.65,5.37-6.47-.83-12.87-2.98-18.4-6.47-5.07-3.2-7.97-9.39-12.74-12.32-4.87-2.99-10.39-.36-15.88-.43-6.42-.09-12.82-1.66-18.51-4.64-10.85-5.68-18.91-16.27-21.86-28.16-.6-2.41-1.04-4.96-2.56-6.92-1.39-1.79-3.49-2.85-5.45-4-12.22-7.13-21.02-19.84-23.4-33.78s1.71-28.85,10.87-39.63c0,0-9.25-23.72-.55-44.97,8.7-21.25,24.95-27.68,24.95-27.68Z"/><g class="cls-5"><path d="m318.33,186.37c-7.37,11.51-20.84,17.98-33.87,17.22-3.23,9.71-9.46,18.45-17.81,24.39-12.88,9.15-30.39,11.38-45.14,5.73-16.39,16.92-45.76,19.03-64.4,4.62-12.13,4.07-24.97,7-37.65,5.37-6.47-.83-12.87-2.98-18.4-6.47-5.07-3.2-7.97-9.39-12.74-12.32-4.87-2.99-10.39-.36-15.88-.43-6.42-.09-12.82-1.66-18.51-4.64-10.85-5.68-18.91-16.27-21.86-28.16-.6-2.41-1.04-4.96-2.56-6.92-1.39-1.79-3.49-2.85-5.45-4-11.99-6.99-20.67-19.36-23.24-33-1.01,5.52-1.1,11.21-.16,16.75,2.38,13.94,11.18,26.65,23.4,33.78,1.96,1.14,4.06,2.2,5.45,4,1.52,1.96,1.96,4.52,2.56,6.92,2.95,11.88,11.02,22.47,21.86,28.16,5.69,2.98,12.09,4.56,18.51,4.64,5.5.07,11.01-2.56,15.88.43,4.77,2.93,7.68,9.12,12.74,12.32,5.53,3.49,11.93,5.64,18.4,6.47,12.68,1.63,25.53-1.3,37.65-5.37,18.64,14.41,48.01,12.3,64.4-4.62,14.76,5.64,32.27,3.42,45.14-5.73,8.35-5.94,14.59-14.67,17.81-24.39,13.02.76,26.5-5.71,33.87-17.22,5.72-8.94,7.41-20.38,5.32-30.92-.96,4.76-2.73,9.33-5.32,13.38Z"/></g><path class="cls-4" d="m301.99,167.86s.05-.25.19-.71c.13-.46.39-1.12.62-2,.52-1.74,1.13-4.31,1.52-7.53.39-3.22.51-7.11-.02-11.37-.51-4.25-1.69-8.87-3.75-13.37-1.04-2.24-2.25-4.34-3.55-6.27-1.33-1.92-2.76-3.66-4.21-5.24-2.96-3.1-6.02-5.51-8.79-7.2-2.77-1.69-5.17-2.79-6.87-3.43-.84-.36-1.52-.54-1.97-.72-.45-.16-.69-.26-.68-.27,0-.02.25.04.71.17.46.15,1.15.3,2.01.63,1.73.58,4.18,1.64,6.99,3.3,2.82,1.66,5.94,4.06,8.95,7.18,1.48,1.58,2.93,3.34,4.28,5.28,1.32,1.95,2.55,4.07,3.6,6.34,2.09,4.55,3.27,9.23,3.76,13.53.51,4.31.35,8.23-.09,11.47-.44,3.24-1.12,5.81-1.69,7.55-.26.88-.55,1.53-.71,1.98-.17.45-.27.68-.29.67Z"/><g class="cls-5"><path d="m185.42,66.78c1-7.18-1.54-14.77-6.65-19.92-5.11-5.14-12.68-7.73-19.87-6.77-.01-7.03-.03-14.07-.05-21.1,0,0,5.42,1.09,5.52,16.32,0,0,12.8-1.23,19.89,10.99,7.09,12.22,1.16,20.49,1.16,20.49Z"/></g><path class="cls-4" d="m36.94,91.04c0-.06,1.11-.02,2.85.33,1.74.34,4.12,1.05,6.57,2.25,2.44,1.2,4.46,2.65,5.8,3.82,1.34,1.17,2.05,2.02,2.01,2.06-.06.06-.86-.69-2.24-1.77-1.38-1.08-3.39-2.45-5.79-3.64-2.4-1.18-4.72-1.93-6.42-2.36-1.7-.44-2.78-.61-2.77-.69Z"/><path class="cls-4" d="m182.9,75.99c-.03.09-1.11-.26-2.89-.57-1.78-.31-4.29-.53-7.02-.19-2.74.34-5.12,1.17-6.75,1.93-1.64.76-2.59,1.39-2.64,1.31-.02-.03.2-.21.61-.51.41-.31,1.05-.7,1.86-1.13,1.62-.86,4.05-1.77,6.85-2.12,2.8-.34,5.37-.06,7.16.35.9.21,1.61.42,2.09.6.48.18.74.29.73.33Z"/><g class="cls-5"><path d="m174.95,70.74c-3.82-.68-7.87,0-11.26,1.9-5.59-9.57-17.07-15.36-28.09-14.15-11.02,1.2-19.68,9.69-23.07,20.24,5.64-10.52,15.4-14.68,25.69-14.98,10.29-.29,20.78,5.37,25.34,14.6,6.39-3.64,14.36-4.36,21.3-1.94-2.52-2.95-6.09-4.99-9.91-5.67Z"/></g><g class="cls-5"><path d="m64.91,83.02c-5.98.38-11.69,3.82-14.8,8.94-4.03-1.92-8.7-2.1-13.01-.92,6.67.6,13.25,4.03,17.63,9.14-.36-7.04,3.83-14.1,10.18-17.16Z"/></g><g class="cls-5"><path d="m305.49,126.74c-5.78-9.75-18.36-17.05-29.68-16.65l-.28-.02c8.98,3.4,19.13,10.51,24.5,21.5,4.21,8.63,5.97,19.71,4.24,29.16,5.77-9.75,7-24.24,1.22-33.99Z"/></g><path class="cls-3" d="m89.64,93.19c.82,10.5,7,22.38,22.07,29.16,13.63,6.13,25.61,9.75,34.38,5.06-7.08-10.69-12.57-17.19-27.88-26.72-12.69-7.9-17.62-7.51-28.57-7.49Z"/><path class="cls-3" d="m233.89,93.49c-.82,10.5-7,22.38-22.07,29.16-13.63,6.13-25.61,9.75-34.38,5.06,7.08-10.69,12.57-17.19,27.88-26.72,12.69-7.9,17.62-7.51,28.57-7.49Z"/><g class="cls-5"><path d="m127.92,166.54c-3.82.68-7.87,0-11.26-1.9-5.59,9.57-17.07,15.36-28.09,14.15-11.02-1.2-19.68-9.69-23.07-20.24,5.64,10.52,15.4,14.68,25.69,14.98,10.29.29,20.78-5.37,25.34-14.6,6.39,3.64,14.36,4.36,21.3,1.94-2.52,2.95-6.09,4.99-9.91,5.67Z"/></g><g class="cls-5"><path d="m189.09,189.59c3.17-2.23,7.13-3.33,11-3.04,1.02-11.04,8.97-21.13,19.47-24.7,10.5-3.57,21.93.46,29.47,8.58-9.56-7.15-20.16-6.79-29.61-2.71-9.45,4.09-16.55,13.65-16.78,23.95-7.33-.59-14.86,2.12-20.12,7.25,1.04-3.74,3.4-7.1,6.58-9.33Z"/></g></g><ellipse class="cls-2" cx="127.14" cy="114.39" rx="5.65" ry="6.4"/><ellipse class="cls-2" cx="193.18" cy="117.61" rx="5.65" ry="6.4"/></g></g></svg>