<?xml version="1.0" encoding="UTF-8"?><svg id="Calque_2" xmlns="http://www.w3.org/2000/svg" viewBox="0 0 170.08 219.37"><defs><style>.cls-1{fill:#f7f5f4;}.cls-2{fill:#f5e400;}.cls-3{fill:#e83d56;}.cls-4{fill:#907450;}.cls-5{fill:#ca985c;}.cls-6{fill:#4d3c27;}</style></defs><g id="Calque_1-2"><g><path class="cls-4" d="m114.44,174.11c-1.57,4.77-2.76,9.59-1.48,14.65-.78-1.04-1.55-2.07-2.33-3.11-.73-1.11-1.46-2.22-2.19-3.34-2.08-4.07,2.72,3.18-.55-.13,2.38,3.91-2.98-2.97.28.41.35,1.34.98,2.51,2.03,3.43.41,1.67.98,3.25,2.39,4.38.35,1.04,1.3,1.86,1.18,3.08-1.61-.21-1.91-1.8-2.88-2.68-2.64-2.38-3.6-6.43-7.51-7.54-.65-.14-1.34-.47-1.77.38-.38.74-.12,2.15-1.38,1.98-1.33-.18-1.53-1.49-1.68-2.65-.34-2.62-1.69-4.86-2.77-7.2-.28-1.04-.3-2.01-1.93-2.2-5.37-.64-10.75-.68-16.14-.61-1.52.02-2.91.28-3.89,1.58-2.22,4.42-2.91,9.3-4.1,14.11-.65-1.07-1.1-2.1-1.23-3.17-.31-2.63-1.38-3.19-3.48-1.49-.25,0-.5,0-.75,0-.24-.84-.58-1.71-1.47-.58-.75.95-1.26,2.1-1.93,3.12-2.16,3.31-3.71,7.05-6.71,9.78.05-3.6,1.88-6.78,2.41-10.25.45-2.94,1.41-6.09-1.69-8.35-.01-1.53,1.51-2.1,2.06-3.27,1.65-1.21,3.08-2.61,3.63-4.8-1.36,1.42-2.72,2.85-4.07,4.27-.33.17-.67.34-1,.51-.27-1.12-.53-2.24-.8-3.37.58-1.09,2.15-1.18,2.6-2.54-1.29-.19-2.11.7-3.1,1.11-.44-2.76-.89-5.52-1.33-8.29.35-2.11.65-4.24,1.07-6.34,1.22-6.11,4.09-11.18,9.71-14.51-5.73.03-9.99,2.33-12.73,7.17-.88,1.56-1.54,3.25-2.31,4.88-3.81-1.99-6-5.85-9.48-8.22.85-1.09.55-2.38.66-3.61.24-2.58-.05-5.15.45-7.77,1.28-6.56,3.17-12.84,7.01-18.48-7.46,3.5-12.2,9.12-14.18,17.03-.74,2.94-1.45,5.89-2.18,8.83-1.31-.63-2.55.29-4.11-.14-3.64-1-7-2.83-10.74-3.44-.35-.28-.67-.6-1.05-.83-12.09-7.47-17.35-17.87-13.75-32.06.29-1.13-.13-1.93-.77-2.81-1.15-1.56.03-5.65,1.88-5.68,4.04-.06,3.37-2.65,3.48-5.13.09-2.07-.85-4.44,1.17-6.1,6.73-5.54,9.82-12.56,8.89-21.28,1.45.6,2.89,1.26,4.36,1.8,2.64.96,5.07,2.01,4.45,5.59-.14.84.35,1.62,1.3,1.63,2.12.03,2.47,1.57,2.86,3.13.37,1.44.86,2.66,2.69,1.55-.36,2.12-.67,4.24-1.09,6.35-.43,2.12.42,2.68,2.4,2.31,2.23-.41,4.48-.77,6.74-.97,3.57-.31,4.57.74,4.09,4.44-.13,1.01.38,1.42.8,2.05,2.2,3.28,5.48,5.05,9.03,6.34,4.71,1.71,4.73,1.65,2.5,6.04-.07.14.09.4.14.59.76.45,1.31.04,1.84-.42,5.95-5.11,12.82-8.52,20.31-10.66,3.69-1.05,7.42-2.41,11.38-1.5,8.28,1.9,16.06,4.97,22.97,10.03,1.97,1.44,3.96,2.85,5.93,4.28-.23-1.85-.97-3.33-1.89-4.69-1.27-1.89-.92-2.67,1.4-3.1,4.63-.86,8.44-3.28,11.42-6.93.68-.84,1.74-1.86-.18-2.6-1.09-.42-2.19-.81-1.79-2.38.42-1.65,1.71-1.7,2.97-1.58,3.16.31,6.29.84,9.48.64,1.15-.07,2.61.02,2.8-1.35.37-2.77.71-5.69-2.37-7.42.6-1.79.29-4.18,3.23-4.35.95-.06.92-1.24.84-1.98-.29-2.53,1.05-3.67,3.26-4.37,1.94-.61,3.8-1.47,5.69-2.22.44.78.88,1.57,1.31,2.35-2.31.28-1.37,2.12-1.23,3.14.72,5.25,2.58,10.22,6.93,13.4,2.94,2.16,3.58,4.57,3.17,7.75.76,1.84-2.25,5.85,2.95,5.16,1.17.07,2.41-.32,3.5.42-1.62,1.55.75,3.35-.32,4.93-1.47.94-1.74,2.4-1.36,3.89,1.07,4.25.4,8.57.72,12.85-1.62,4.96-3.29,9.86-7.36,13.54-2.63,2.38-5.86,3.86-8.53,6.15-5.17,1.53-10.07,3.97-15.48,4.73-.06-1.13-.07-2.27-.19-3.4-.92-8.83-3.89-16.58-11.64-21.74-.98-.65-1.91-1.72-3.64-.94,3.17,4.06,4.9,8.67,6.07,13.56,1.22,5.11.63,10.4,1.68,15.51-3.09,2.97-6.18,5.94-9.28,8.91-2.26-9.8-9.89-13.66-15.18-12.72,5.32,3.21,8.63,7.71,9.87,13.66.34,1.66.61,3.33.91,5-1.98,0,1.87-.06-.12-.06,0,.28.88.63.88.91,2.24,0-2.24,0,0,0,.15,2.79-1.26,5.29-1.46,8.01-.33.03-.83-.07-.95.1-.45.66.42.88.57,1.35-.11,1.01-.22,2.02-.33,3.02m-30.28-8.54c1.94,0,3.88.12,5.8-.03,3.59-.27,6.07-3.5,6.57-8.33.42-4.1-1.27-6.69-4.92-7.78-4.7-1.39-9.59-1.45-14.21-.52-5.31,1.07-6.87,2.19-7.11,6.31-.33,5.78,1.54,8.74,6.38,10.08,2.46.68,4.98.35,7.48.26Zm-19.52-37.33c10.98-11.19,24.23-18.06,38.06-24.88-9.11-2.14-38.76,15.61-38.06,24.88Zm38.58-16.32c-10.09,1.2-18.21,6.23-25.28,13.22-.39.39-.64,1.49-.38,1.84.63.85,1.44.19,2.07-.26,2.48-1.81,4.89-3.72,7.41-5.47,5.13-3.56,10.8-6.18,16.18-9.32Zm-2.14,13.06c-7.64,1.6-14.14,4.85-18.16,11.79,5.41-4.93,11.96-8.1,18.16-11.79Z"/><path class="cls-4" d="m20.79,0c2.92,1.95,5.06,4.71,7.48,7.18,6.68,6.82,13.29,13.7,19.87,20.62,1.33,1.4,2.23,1.55,3.53-.01,4.9-5.9,11.41-8.55,18.89-9.34,3.61-.38,7.68.18,9.91-3.89.43-.79,1.24-1.39.52-2.41-.46-.64-1.11-1.48.01-1.94.9-.37,2.06.14,2.25,1.03,1.3,6.11,6.58,6.48,11.02,6.99,7.41.86,13.99,3.57,20.4,7.03.49.27.97.6,1.39.97,3.51,3.04,3.73,3.23,6.76-.26,7.37-8.49,16.12-15.68,23.11-24.53.79-.99,1.83-1.75,3.26-1.05-1,.89-.88,2.07-.67,3.18,1.44,7.43.06,14.78-1.46,21.91-2.25,10.63-7.45,19.94-15.26,27.67-.61.6-1.92,1.43-1.3,2.14,2.05,2.35-.96,1.76-1.43,2.51.53,1.29,1.69,1.65,2.58,2.33,1.03.79,3.1,1.33,2.54,2.71-.62,1.5-2.39.1-3.66.08-.2,0-.4.17-.75.34.88,3.48,4.29,5.54,5.19,8.99-2.07.51-4.28.73-6.06,1.95-1.83,1.25-4.67,1.45-4.96,4.44l-2.23-.2c.13-3.32-2.28-6.08-1.88-9.56.36-3.14-.05-6.36.5-9.53.18-1.07.69-2.69-.33-3.17-1.35-.64-2.03,1.07-2.81,1.92-4.67,5.07-7.03,11.07-7.1,17.99-.01,1.13.75,2.95-.78,3.28-1.54.33-1.9-1.56-2.65-2.67-3.05-4.53-4.76-9.68-6.91-14.69-.74,6.87.76,14.01-3.51,21.3-3.05-10.69-5.85-20.51-8.66-30.32-.36,0-.72-.01-1.07-.02-3.66,9.72-5.89,19.92-9.09,30.19-.54-.61-.95-.88-1.07-1.24-2.13-6.46-1.89-13.16-2.03-19.9-.53.64-.85,1.31-1.1,2.01-1.78,4.79-3.65,9.54-6.69,13.73-.55.75-1.06,1.81-1.98,1.61-1.11-.25-.76-1.53-.74-2.36.18-5.28-1.16-10.15-3.81-14.68-1.53-2.62-3.66-4.65-6.1-6.85-.66,2.12-.31,3.57-.14,5.03.52,4.67.57,9.32-.8,13.88-1.15,3.83-1.55,4.01-4.72,1.75-4.53-3.22-9.28-4.78-14.69-2.35.53-2.69,2.57-4.47,3.98-6.62.79-1.2,2.61-2.45,1.85-3.73-.87-1.46-2.85-.46-4.37-.26-.14.02-.32-.25-.69-.58,1.8-1.25,3.56-2.43,5.27-3.68.44-.32,1.22-.49.74-1.5-1.39-2.87-3.49-5.18-5.53-7.57-8.38-9.78-12.86-21.1-14.15-33.98-.54-5.39.23-10.59.15-15.88Z"/><path class="cls-5" d="m9.67,56.4c-1.96-2.19-2.5-5.4-5.11-7.13.23-3.17-1.55-5.76-2.58-8.53-.77-2.06-.54-3.45,1.37-4.57.77-.45,1.46-1.07,2.11-1.69,3.13-2.96,3.15-3.01-.45-5.69-1.37-1.02-1.88-2.4-1.47-3.83C6.15,15.84,9.87,7.38,17.82,1.5c.92-.68,1.84-1.27,2.97-1.5.08,5.29-.69,10.49-.15,15.88,1.29,12.88,5.77,24.2,14.15,33.98,2.05,2.39,4.14,4.7,5.53,7.57.49,1.01-.29,1.18-.74,1.5-1.71,1.25-3.46,2.43-5.27,3.68.38.32.55.59.69.58,1.52-.2,3.49-1.2,4.37.26.76,1.28-1.06,2.53-1.85,3.73-1.42,2.15-3.45,3.93-3.98,6.62-.67.91-1.33,1.83-2,2.74-1.84,1.11-2.33-.11-2.69-1.55-.39-1.55-.74-3.1-2.86-3.13-.96-.01-1.45-.79-1.3-1.63.62-3.58-1.82-4.63-4.45-5.59-1.48-.54-2.91-1.19-4.36-1.8-.46-.85-1.25-1.2-2.13-1.42-.36-2.49-2-3.93-4.08-5.02Z"/><path class="cls-5" d="m134.97,72.25c-.9-3.45-4.31-5.5-5.19-8.99.35-.16.55-.34.75-.34,1.27.02,3.04,1.42,3.66-.08.57-1.38-1.51-1.92-2.54-2.71-.89-.68-2.05-1.04-2.58-2.33.46-.75,3.48-.16,1.43-2.51-.62-.71.69-1.54,1.3-2.14,7.81-7.73,13.01-17.04,15.26-27.67,1.51-7.13,2.9-14.48,1.46-21.91-.21-1.11-.34-2.29.67-3.18,7.07,3.56,10.78,9.89,13.82,16.77.22.51.35,1.06.55,1.58q2.94,7.56-3.14,12.81c2.07,1.38,3.44,3.5,5.63,4.76,1.19.69,2.15,1.87,1.6,3.42-3.11,8.76-7.23,16.91-14.2,23.33-1.89.75-3.75,1.61-5.69,2.22-2.21.7-3.55,1.84-3.26,4.37.08.74.12,1.93-.84,1.98-2.94.17-2.63,2.56-3.23,4.35-.89,1-1.58.95-2.42-.18-.93-1.25-1.63-2.72-3.04-3.57Z"/><path class="cls-6" d="m123.95,78.64c.29-2.99,3.13-3.18,4.96-4.44,1.79-1.23,3.99-1.44,6.06-1.95,1.41.85,2.11,2.32,3.04,3.57.84,1.13,1.53,1.18,2.42.18,3.08,1.73,2.74,4.66,2.37,7.42-.18,1.37-1.65,1.28-2.8,1.35-3.19.2-6.33-.33-9.48-.64-1.25-.12-2.55-.08-2.97,1.58-.4,1.57.7,1.97,1.79,2.38,1.92.74.87,1.76.18,2.6-2.98,3.65-6.79,6.07-11.42,6.93-2.31.43-2.67,1.22-1.4,3.1.92,1.36,1.66,2.84,1.89,4.69-1.98-1.43-3.97-2.84-5.93-4.28-6.91-5.06-14.69-8.13-22.97-10.03-3.96-.91-7.69.45-11.38,1.5-7.49,2.14-14.36,5.55-20.31,10.66-.53.46-1.08.86-1.84.42-.05-.2-.21-.45-.14-.59,2.23-4.4,2.21-4.33-2.5-6.04-3.55-1.29-6.83-3.06-9.03-6.34-.42-.63-.93-1.04-.8-2.05.48-3.71-.52-4.75-4.09-4.44-2.26.2-4.51.55-6.74.97-1.99.37-2.83-.18-2.4-2.31.43-2.1.73-4.23,1.09-6.35.67-.91,1.33-1.83,2-2.74,5.41-2.42,10.16-.87,14.69,2.35,3.17,2.25,3.56,2.08,4.72-1.75,1.37-4.56,1.32-9.21.8-13.88-.16-1.46-.52-2.91.14-5.03,2.44,2.2,4.56,4.23,6.1,6.85,2.65,4.53,3.98,9.4,3.81,14.68-.03.84-.37,2.11.74,2.36.91.21,1.43-.85,1.98-1.61,3.04-4.19,4.91-8.93,6.69-13.73.26-.7.57-1.37,1.1-2.01.14,6.74-.1,13.45,2.03,19.9.12.36.53.62,1.07,1.24,3.2-10.27,5.42-20.47,9.09-30.19.36,0,.72.01,1.07.02,2.8,9.82,5.6,19.63,8.66,30.32,4.27-7.3,2.77-14.44,3.51-21.3,2.15,5.01,3.86,10.16,6.91,14.69.75,1.11,1.11,3,2.65,2.67,1.53-.33.77-2.15.78-3.28.07-6.92,2.43-12.92,7.1-17.99.78-.85,1.46-2.55,2.81-1.92,1.02.48.51,2.1.33,3.17-.55,3.17-.14,6.39-.5,9.53-.4,3.48,2.02,6.24,1.88,9.56"/><path class="cls-6" d="m103.38,183.25c-2.58,7.92-3.88,16.24-7.63,23.8-2.29,4.62-5.59,8.34-9.33,11.77-1.31,1.21-2.09.2-2.81-.63-3.5-3.99-7.01-7.97-9.66-12.61-3.36-5.89-6.44-11.93-8.69-18.34-.34-.96-.9-2.13-.23-3.26,2.1-1.7,3.17-1.13,3.48,1.49.13,1.07.58,2.1,1.23,3.17,1.18-4.81,1.87-9.69,4.1-14.11,1.26,3.21,1.64,6.77,3.02,9.81.86,1.9-.02,5.02,2.63,5.71,2.67.69,5.43,1.1,8.35.62,3.17-.52,4.47-1.89,5.13-5.05.7-3.31.95-6.85,2.83-9.86,1.08,2.34,2.43,4.57,2.77,7.2.15,1.16.35,2.47,1.68,2.65,1.26.17,1-1.24,1.38-1.98.43-.85,1.12-.52,1.77-.38Z"/><path class="cls-3" d="m84.67,164.01c-2.5.1-5.02.42-7.48-.26-4.85-1.34-6.71-4.3-6.38-10.08.23-4.12,1.8-5.24,7.11-6.31,4.62-.93,9.51-.88,14.21.52,3.65,1.08,5.34,3.68,4.92,7.78-.49,4.83-2.97,8.06-6.57,8.33-1.92.15-3.87.03-5.8.03Zm9.37-6.87c-.15-.72.41-1.97-1.22-2.12-1.74-.16-6.41,3.89-6.57,5.76-.08.97.12,1.76,1.37,1.83,2.9.18,6.03-2.38,6.42-5.47Zm-19.6.32c.06,2.58,2.7,5.65,4.66,5.33,1.14-.19,2.06-.84,1.97-2.28-.09-1.47-3.98-5.35-5.51-5.29-1.68.07-.8,1.51-1.12,2.24Z"/><path class="cls-1" d="m95.79,175.75c-1.88,3.01-2.14,6.55-2.83,9.86-.66,3.16-1.95,4.53-5.13,5.05-2.92.48-5.68.07-8.35-.62-2.65-.69-1.77-3.81-2.63-5.71-1.38-3.05-1.76-6.61-3.02-9.81.98-1.31,2.38-1.57,3.89-1.58,5.39-.07,10.77-.02,16.14.61,1.63.19,1.65,1.16,1.93,2.2Z"/><path class="cls-6" d="m39.12,144.3c-.66-.21-1.32-.42-1.98-.62-1.52-2.16-5.01-.68-6.25-3.37.73-2.94,1.44-5.89,2.18-8.83,1.98-7.9,6.72-13.53,14.18-17.03-3.84,5.65-5.73,11.92-7.01,18.48-.51,2.62-.22,5.19-.45,7.77-.11,1.22.18,2.52-.66,3.61Z"/><path class="cls-6" d="m137.76,141.38c-1.84.77-4.06.54-5.61,2.11-.71.29-1.42.58-2.12.88-1.05-5.12-.46-10.4-1.68-15.51-1.17-4.89-2.9-9.5-6.07-13.56,1.73-.78,2.66.29,3.64.94,7.75,5.16,10.72,12.91,11.64,21.74.12,1.13.13,2.27.19,3.4Z"/><path class="cls-6" d="m65.15,126.68c-.7-9.26,28.96-27.02,38.06-24.88-13.84,6.82-27.08,13.68-38.06,24.88Z"/><path class="cls-6" d="m52.85,161.31c-.41-3.42-3.37-5.61-4.26-8.8.76-1.63,1.42-3.32,2.31-4.88,2.74-4.84,7-7.13,12.73-7.17-5.63,3.33-8.49,8.39-9.71,14.51-.42,2.1-.71,4.23-1.07,6.34Z"/><path class="cls-6" d="m120.75,153.28c-.57,2.35-3.01,3.54-3.61,5.87-.27.02-.53.05-.8.07-.3-1.67-.57-3.34-.91-5-1.23-5.95-4.54-10.45-9.87-13.66,5.3-.94,12.92,2.92,15.18,12.72Z"/><path class="cls-6" d="m103.73,110.36c-5.38,3.14-11.05,5.76-16.18,9.32-2.52,1.75-4.93,3.66-7.41,5.47-.63.46-1.44,1.12-2.07.26-.26-.35-.01-1.45.38-1.84,7.07-6.99,15.18-12.02,25.28-13.22Z"/><path class="cls-6" d="m101.59,123.42c-6.2,3.68-12.75,6.86-18.16,11.79,4.02-6.94,10.52-10.19,18.16-11.79Z"/><path class="cls-2" d="m163.63,89.71c2.46.88,2.81,2.95,2.95,5.16-5.2.69-2.18-3.31-2.95-5.16Z"/><path class="cls-4" d="m115.03,195.52c.25.27.5.54.75.81-.56.02-.72-.34-.75-.81Z"/><path class="cls-4" d="m114.34,194.16c.54.32.78.79.72,1.41-.54-.32-.69-.84-.72-1.41Z"/><path class="cls-4" d="m113.67,193.45c.54-.04.65.33.7.75-.23-.25-.47-.5-.7-.75Z"/><path class="cls-4" d="m113.07,189.99c-.05-.43-.09-.86-.14-1.29.25.54.51,1.08.76,1.62-.21-.11-.41-.22-.62-.33Z"/><path class="cls-4" d="m54.19,196.23c-.06.45-.13.91-.19,1.36-.34-.51-.26-.96.19-1.36Z"/><path class="cls-6" d="m94.04,157.14c-.4,3.09-3.53,5.65-6.42,5.47-1.25-.08-1.45-.87-1.37-1.83.16-1.86,4.83-5.92,6.57-5.76,1.63.15,1.07,1.4,1.22,2.12Z"/><path class="cls-6" d="m74.45,157.46c.32-.73-.56-2.18,1.12-2.24,1.53-.06,5.42,3.82,5.51,5.29.08,1.44-.83,2.09-1.97,2.28-1.96.33-4.6-2.74-4.66-5.33Z"/><path class="cls-1" d="m48.28,82.3c1.15,3.41,4.3,6.8,10.12,7.74,5.27.84,9.76,1,12.44-1.32-3.36-2.92-5.81-4.6-11.95-6.42-5.09-1.51-6.78-.95-10.6,0Z"/><path class="cls-1" d="m122.06,81.96c-1.15,3.41-4.3,6.8-10.12,7.74-5.27.84-9.76,1-12.44-1.32,3.36-2.92,5.81-4.6,11.95-6.42,5.09-1.51,6.78-.95,10.6,0Z"/></g></g></svg>