<svg id="Calque_1" data-name="Calque 1" xmlns="http://www.w3.org/2000/svg" viewBox="0 0 367.09 367.45"><defs><style>.cls-1{fill:#7a757b;}.cls-2{fill:#b2b1b2;}</style></defs><path class="cls-1" d="M283,201.47c4.23-23.38,32.52-32.63,47.12-41.14,35.67-47,34.53-119.58,34.48-158.53-81.7,97.44-142.74,89.45-163.47,84.29-27.7-6.84-30.64-29.05-39.65-46.57C111.25,1.78,1,5.39,1,5.39,99.3,91.14,91.15,149,86.52,170.33S60.8,197.7,39.18,209.2c-33.23,52-32,105.16-32.82,160,69.75-88.78,136.54-92.71,163.94-85.17,19.41,5.37,23.74,20.41,40.95,48.36C240.53,355.89,315.59,368.6,368,364.32,272.33,284.92,278.72,224.86,283,201.47Zm-126.24,4.18A34.16,34.16,0,1,1,204.46,213a34.16,34.16,0,0,1-47.75-7.34Z" transform="translate(-0.96 -1.8)"/><path class="cls-2" d="M178.83,73.1h0c-8.5-9.74-11.76-22.58-17.42-33.57C111.25,1.78,1,5.39,1,5.39,11.23,14.31,20.29,23,28.35,31.28h0S80.71,11.59,178.83,73.1Z" transform="translate(-0.96 -1.8)"/><path class="cls-2" d="M73.32,190.59h0c-9.09,7.09-21.51,11.94-34.12,18.64-33.23,52-32,105.16-32.81,160a338.72,338.72,0,0,1,23.73-27.2h0C15.77,271.28,73.32,190.59,73.32,190.59Z" transform="translate(-0.96 -1.8)"/><path class="cls-2" d="M189.43,296.9h0c6.53,8.14,12.14,19.79,21.84,35.54,29.28,23.48,104.35,36.19,156.79,31.91C358,356,349.06,347.86,341.14,340h0C275.4,354.91,189.43,296.9,189.43,296.9Z" transform="translate(-0.96 -1.8)"/><path class="cls-2" d="M296.4,180h0c10.55-8.9,24.7-14.4,33.66-19.64,35.68-47,34.54-119.57,34.49-158.52-8.69,10.37-17.14,19.54-25.35,27.66h0C354.77,96.42,296.4,180,296.4,180Z" transform="translate(-0.96 -1.8)"/></svg>