<?xml version="1.0" encoding="UTF-8"?><svg id="Calque_2" xmlns="http://www.w3.org/2000/svg" xmlns:xlink="http://www.w3.org/1999/xlink" viewBox="0 0 349.83 511.84"><defs><style>.cls-1{fill:#f3e1d3;}.cls-2{fill:#010101;}.cls-3{fill:#f0a88d;}.cls-4{fill:#30353d;}.cls-5{fill:#c48975;}.cls-6{fill:#435563;}.cls-7{fill:#28353e;}.cls-8{fill:#2b353f;}.cls-9{fill:#3b2516;}.cls-10{opacity:.2;}.cls-11{fill:url(#Dégradé_sans_nom_28);opacity:.55;}</style><radialGradient id="Dégradé_sans_nom_28" cx="174.92" cy="469.49" fx="174.92" fy="469.49" r="175.98" gradientTransform="translate(0 358.36) scale(1 .24)" gradientUnits="userSpaceOnUse"><stop offset="0" stop-color="#010101"/><stop offset=".44" stop-color="#252735"/><stop offset=".81" stop-color="#3f435a"/><stop offset="1" stop-color="#4a4e69"/></radialGradient></defs><g id="Calque_1-2"><ellipse class="cls-11" cx="174.92" cy="469.49" rx="174.92" ry="42.35"/><g><g><path class="cls-3" d="m54.46,104.02l16.15,9.69,15.56,39.55-41.01,3.26-13.14-22.96s.43-4.31-1.83-11.52c-2.26-7.21-8.22-13.62-8.22-13.62l32.49-4.4Z"/><path class="cls-1" d="m59.16,107.07c4.93,15.2,13.01,28.92,19.88,41.97l-47.01-15.48s-11.38,10.4-10.66,26.81c1.37,31.36,16.04,80.15,22.06,88.61,9.17,12.88,22.04,6.57,27.41-13.54.96-3.6,9.19-28.09,5.1-30.31,6.47,3.52,13.05,6.74,19.33,10.51,6.5,3.9,13.29,7.33,20.28,10.26,4.38,1.84,10.83,5.03,15.46,6.16,3.95.96,1.85-4.8,2.99-7.76,3.36-8.73,6.73-17.45,10.09-26.18,3.24-8.39,6.47-16.78,9.71-25.18,1.68-4.37,5.73-8.95,6.98-13.46,1.57-5.65-9.42-5.42-13.5-8.03-3.82-2.45-6.02-6.81-9.65-9.54-3.72-2.8-8.75-3.73-11.94-7.12,3.02,3.2,13.21,5.01,17.41,5.33,6.2.46,12.87.26,19.16.33,8.05.09,16.81,3.46,22.93-3.34,7.34-8.16,12.52-29.34-5.17-33.59-17.68-4.25-36.6,3.55-36.6,3.55,0,0-51.35-11.63-60.39-9.04-9.04,2.58-23.9,9.04-23.9,9.04Z"/><path class="cls-4" d="m32.03,133.56l47.01,15.48c-6.87-13.04-14.95-26.76-19.88-41.97,0,0,3.1-1.35,7.32-3.06l23.89,48.04-4.57,7.86-58.99-19.74h0c2.63-4.25,5.21-6.61,5.21-6.61Z"/><g class="cls-10"><path class="cls-2" d="m142.59,119.92c-.23,0-.43-.17-.46-.4-.93-6.78-.76-11.09.49-12.47.38-.42.75-.44.85-.44.22,0,.4.17.44.38l1.04,5.9c.04.25-.12.5-.38.54-.25.05-.5-.12-.54-.38l-.91-5.14c-.46.83-1.18,3.45-.08,11.47.04.25-.14.49-.4.53-.02,0-.04,0-.06,0Z"/></g><g class="cls-10"><path class="cls-2" d="m178.1,139.65c-1.46,0-2.9-.32-4.24-1.12-3.63-2.18-5.47-7.44-5.47-15.63,0-18.29,11.49-19.83,11.61-19.84.25-.03.49.15.52.41.03.26-.15.49-.41.52-.44.05-10.78,1.49-10.78,18.91,0,7.84,1.69,12.83,5.02,14.83,3.55,2.14,8.2.27,10.66-1.03.23-.12.51-.03.63.19.12.23.03.51-.19.63-2.07,1.09-4.72,2.13-7.34,2.13Z"/></g><g><path class="cls-3" d="m170.69,111.51s.36-2.97.97-5.05,3.02-6.26,4.45-6.03c1.43.22,2.62,1.17,3.47,1.23.85.05,2.73-.57,3.68-.15.95.42,1.89,2.19,2.86,2.51.97.32,2.77,1.99,3.33,2.72s3.91,2.08,4.01,3.35c.1,1.27-2.66,7.01-3.64,8.04-.98,1.04-2.96,2.05-3.49,1.83-.53-.21-1.52-1.49-1.52-1.49,0,0-1.9.77-2.39.66-.49-.11-2.29-.98-2.1-2.52l-.79-.1s1.36,1.57.75,2.9c-.61,1.33-1.35.79-1.83.63-.48-.16-5-1.01-5.68-1.2s-1.4-1.28-1.61-2c-.21-.73-1.22-2.36-1.1-3.35s.64-1.98.64-1.98Z"/><path class="cls-5" d="m175.97,114.78s-.08,0-.13-.02c-.25-.07-.39-.33-.32-.57l1.95-6.94c.07-.25.33-.39.57-.32.25.07.39.33.32.57l-1.95,6.94c-.06.21-.25.34-.45.34Z"/><path class="cls-5" d="m179.52,116.97s-.08,0-.12-.01c-.04,0-.94-.25-1.94-.88-.26-.16-.46-.37-.66-.57-.27-.28-.56-.56-1.03-.77-.27-.12-.76-.15-1.23-.18-.54-.03-1.1-.07-1.59-.23-1.45-.49-2.52-1.56-2.73-2.73-.05-.25.12-.5.38-.54.26-.04.5.12.54.38.12.69.83,1.58,2.11,2.01.37.12.86.16,1.35.19.58.04,1.13.07,1.56.26.62.28,1,.66,1.3.96.18.18.33.33.5.44.87.55,1.67.76,1.67.76.25.06.4.32.33.57-.05.21-.24.35-.45.35Z"/><path class="cls-5" d="m180.31,117.06c-.11,0-.23-.04-.32-.12-.19-.17-.2-.47-.03-.66,2.79-3.03,3.04-6.98,3.05-7.02.01-.26.24-.46.49-.44.26.01.45.23.44.49-.01.17-.28,4.33-3.29,7.6-.09.1-.22.15-.34.15Z"/><path class="cls-5" d="m184.81,118.92c-.13,0-.26-.05-.35-.16-.17-.19-.15-.49.04-.66,2.41-2.11,2.75-5.69,2.76-5.73.02-.26.26-.44.5-.42.26.02.45.25.42.5-.01.16-.37,3.99-3.07,6.35-.09.08-.2.12-.31.12Z"/></g><g><path class="cls-3" d="m75.77,215.23c.08-.21,3.79-7.57,4.62-8.25.83-.68,5.5-4.15,6.92-6.4,1.42-2.25,3.7-7.29,2.89-8.49-.81-1.2-1.71-2.12-3.75-1.86,0,0,.25-4.12-3.29-3.82,0,0,.11-3.09-3.6-2.55,0,0-.32-2.29-2.06-2.23,0,0,.42-2.54-1.08-2.66-1.49-.12-1.44,1.72-4.4,1.91-2.96.19-2.88,1.55-3.71,2.57-.82,1.02-3.07,4.34-3.25,5.98s1.84,9.67,1.72,10.97-2.55,7.56-2.55,7.56l11.53,7.27Z"/><path class="cls-5" d="m69.57,189.6c-.07,0-.14-.01-.2-.05-.23-.11-.33-.39-.22-.62.13-.28,3.36-6.91,8.27-7.75.25-.05.49.13.54.38.04.25-.13.5-.38.54-4.45.76-7.56,7.17-7.59,7.24-.08.17-.25.26-.42.26Z"/><path class="cls-5" d="m77.5,189.48c-.08,0-.15-.02-.23-.06-.23-.12-.31-.41-.18-.63,1.57-2.83,2.02-4.99,2.02-5.01.05-.25.3-.42.55-.36.25.05.41.3.36.55-.02.09-.48,2.31-2.12,5.28-.08.15-.24.24-.41.24Z"/><path class="cls-5" d="m81.88,192.41c-.06,0-.13-.01-.19-.04-.23-.11-.34-.38-.23-.62,1.07-2.31,1.24-5.33,1.24-5.36.01-.26.24-.46.49-.44.26.01.45.23.44.49,0,.13-.18,3.23-1.33,5.7-.08.17-.25.27-.42.27Z"/><path class="cls-5" d="m85.81,193.9s-.06,0-.09,0c-.25-.05-.42-.3-.36-.55l.65-3.2c.05-.25.3-.41.55-.36.25.05.42.3.36.55l-.65,3.2c-.04.22-.24.37-.46.37Z"/></g><g class="cls-10"><path class="cls-2" d="m125.35,136.81c-.1,0-.19-.03-.28-.09-2.29-1.7-5.25-2.21-8.12-2.7-.92-.16-1.84-.31-2.74-.51-3.72-.8-7.25-2.29-10.67-3.74l-6.96-2.94c-.24-.1-.35-.37-.25-.61s.37-.35.61-.25l6.96,2.94c3.38,1.43,6.87,2.91,10.51,3.69.89.19,1.79.34,2.7.5,2.98.51,6.05,1.03,8.52,2.87.21.15.25.45.1.65-.09.12-.23.19-.37.19Z"/></g><g class="cls-10"><path class="cls-2" d="m138.46,177.71s-.06,0-.09,0c-.25-.05-.42-.29-.37-.55,2.56-13.22,6.64-26.82,6.69-26.96.08-.25.33-.39.58-.31.25.07.39.33.31.58-.04.13-4.11,13.69-6.66,26.87-.04.22-.24.38-.46.38Z"/></g><g class="cls-10"><path class="cls-2" d="m148.8,166.51c-.06,0-.11,0-.17-.03-.24-.09-.36-.36-.27-.6l4.74-12.27c.09-.24.36-.36.6-.27.24.09.36.36.27.6l-4.74,12.27c-.07.18-.25.3-.43.3Z"/></g><g class="cls-10"><path class="cls-2" d="m130.93,231.1c-.09,0-.19-.03-.27-.09-.14-.1-13.95-10.1-23.36-22.92-.15-.21-.11-.5.1-.65.21-.15.5-.11.65.1,9.32,12.71,23.01,22.62,23.15,22.72.21.15.26.44.11.65-.09.13-.23.19-.38.19Z"/></g><path class="cls-1" d="m56.3,255.3c6.96-1.95,11.78-11.53,14.55-19.86,2.08-6.27,9.13-19.48,11.16-22.48l-15.24-13.75s-16.79,23.53-22.82,38.32c-4.74,11.63-.44,21.35,12.35,17.77Z"/><g class="cls-10"><path class="cls-2" d="m43.95,237.99c-.06,0-.12-.01-.18-.03-.24-.1-.35-.37-.26-.61,5.98-14.68,22.71-38.18,22.87-38.42.15-.21.44-.26.65-.11.21.15.26.44.11.65-.17.24-16.83,23.65-22.77,38.23-.07.18-.25.29-.43.29Z"/></g><g class="cls-10"><path class="cls-2" d="m62.16,204.84c-.24,0-.45-.19-.46-.43-.14-1.97-1.04-3.74-2-5.62-.43-.84-.87-1.71-1.24-2.6-1.11-2.7-1.53-5.63-1.93-8.47-.43-3.03-.88-6.16-2.18-8.93-.93-1.98-2.31-3.77-3.99-5.17-.2-.17-.22-.46-.06-.66.17-.2.46-.22.66-.06,1.78,1.49,3.25,3.39,4.24,5.49,1.36,2.89,1.82,6.1,2.26,9.2.39,2.78.8,5.65,1.87,8.25.35.85.79,1.71,1.21,2.53.95,1.88,1.94,3.81,2.09,5.97.02.26-.17.48-.43.5-.01,0-.02,0-.03,0Z"/></g><polygon class="cls-4" points="88.49 144.69 98.47 150.12 90.56 165.46 80.06 159.97 88.49 144.69"/></g><g><path class="cls-3" d="m21.17,107.52c3.46,8.67,25.31,12.94,32.09,10.18,6.78-2.77,9.02-8.66,4.78-25.23-5.75-22.47-17.04-30.82-31.64-25-14.6,5.82-13.66,18.9-5.23,40.04Z"/><path class="cls-5" d="m47.49,119c-3.23,0-7.1-.5-10.97-1.48-.25-.06-.4-.32-.34-.57.06-.25.32-.4.57-.34,6.52,1.65,13.24,1.92,16.34.65,3.34-1.36,5.22-3.37,6.09-6.49.07-.25.32-.39.57-.32.25.07.39.33.32.57-.94,3.39-3.05,5.65-6.63,7.11-1.43.59-3.51.87-5.96.87Z"/><path class="cls-5" d="m49.61,104.1c-.2,0-.38-.12-.44-.32-.08-.25.05-.51.3-.59l4.58-1.49c.24-.08.51.05.59.3.08.25-.05.51-.3.59l-4.58,1.49s-.1.02-.14.02Z"/><path class="cls-6" d="m26.12,60.61c1.12.03,2.24.12,3.35-.03,2.35-.32,4.03-1.88,6.2-2.59,2.16-.7,4.36-1.46,6.6-1.93,1.06-.22,2.25-.36,3.14.26,1.13.78,1.25,2.39,1.95,3.58.78,1.35,2.28,2.12,3.27,3.32,2.04,2.49,2.21,5.81-.32,7.93-2.07,1.73-5.12,2.07-7.72,1.86-2.03-.16-3.96.64-5.72,1.57-.78.41-1.6.69-2.26,1.26-.77.65-1.4,1.45-2.25,2.01-1.59,1.05-3.6,1.18-5.43,1.72-.65.19-1.3.44-1.79.9-1.5,1.37-.94,3.45-1.15,5.22-.22,1.91-1.21,3.69-.91,5.65.19,1.27.91,2.42,1.14,3.68.22,1.24-.05,2.51-.17,3.76-.12,1.23.2,2.14.39,3.31.13.8-.1,1.55.29,2.3-1.54-1.16-3.07-1.2-4.49-2.62-1.71-1.7-3.27-3.57-4.58-5.6-3.08-4.78-4.57-10.39-6.02-15.9-.84-3.22-2.11-5.73.44-8.65,1.62-1.85,3.87-3.02,5.72-4.64,2.48-2.19,4.42-5.35,7.64-6.15.89-.22,1.81-.24,2.74-.22Z"/><path class="cls-7" d="m20.62,66.62c-.07,0-.14-.02-.21-.07-.17-.12-.21-.34-.09-.51,1.46-2.1,4.26-2.59,6.36-2.63.6-.01,1.21,0,1.81.02,1.7.04,3.31.08,4.84-.42,1.13-.36,2.19-1.02,3.23-1.66,1.55-.96,3.16-1.95,5.04-2,.21,0,.37.16.38.36,0,.2-.15.37-.36.38-1.68.05-3.14.94-4.68,1.89-1.07.66-2.18,1.34-3.39,1.73-1.65.53-3.4.49-5.08.45-.59-.01-1.19-.03-1.78-.02-1.92.04-4.49.47-5.77,2.31-.07.1-.19.16-.3.16Z"/><path class="cls-7" d="m29.06,73.28c-.14,0-.28-.09-.34-.23-.08-.19.01-.4.2-.48,1.32-.54,2.62-1.17,3.89-1.78.97-.47,1.94-.93,2.93-1.37.83-.37,1.69-.75,2.63-.92.85-.16,1.71-.14,2.54-.13.27,0,.53.03.79.01,1.7,0,4.81-.32,6.56-2.47.13-.16.36-.18.52-.05.16.13.18.36.05.52-1.94,2.39-5.3,2.74-7.13,2.75-.31,0-.54,0-.81-.01-.83-.02-1.62-.03-2.39.11-.85.16-1.67.52-2.47.88-.98.43-1.95.9-2.91,1.36-1.27.61-2.59,1.25-3.93,1.79-.05.02-.09.03-.14.03Z"/><path class="cls-7" d="m23.41,79.25c-.07,0-.14-.02-.2-.06-3.51-2.23-7.34-3.8-11.4-4.68-.2-.04-.32-.24-.28-.44.04-.2.24-.32.44-.28,4.14.89,8.06,2.5,11.64,4.78.17.11.22.34.11.51-.07.11-.19.17-.31.17Z"/><path class="cls-7" d="m16.49,92.06c-.16,0-.31-.11-.35-.27-.18-.63-.38-1.26-.59-1.89-.36-1.1-.73-2.24-.96-3.4-.44-2.19-.28-4.07.46-5.6.09-.18.31-.26.49-.17.18.09.26.31.17.49-.67,1.38-.8,3.1-.4,5.13.22,1.12.59,2.24.94,3.32.21.64.41,1.27.59,1.91.06.19-.06.4-.25.45-.03,0-.07.01-.1.01Z"/><path class="cls-7" d="m20.05,72.83c-.09,0-.17-.03-.24-.09-.15-.13-.16-.37-.03-.52.93-1.04,1.9-2.12,3.14-2.87,1.74-1.04,3.82-1.31,5.66-1.54.2-.02.39.12.41.32.02.2-.12.38-.32.41-1.77.22-3.77.48-5.38,1.44-1.15.69-2.08,1.73-2.98,2.73-.07.08-.17.12-.27.12Z"/><path class="cls-3" d="m18.15,107.7c2.47,2.95,5.9,4.15,7.66,2.68,1.76-1.47,1.18-5.06-1.29-8.01-2.47-2.95-4.99-4.82-6.74-3.35-1.76,1.47-2.09,5.72.38,8.67Z"/><path class="cls-9" d="m41.24,93.14c-.49-1.2-1.49-1.93-2.24-1.62-.75.3-.95,1.53-.46,2.73s1.49,1.93,2.24,1.62c.75-.3.95-1.53.46-2.73Z"/><path class="cls-9" d="m55.02,87.64c-.49-1.2-1.49-1.93-2.24-1.62-.75.3-.95,1.53-.46,2.73.49,1.2,1.49,1.93,2.24,1.62.75-.3.95-1.53.46-2.73Z"/><path class="cls-5" d="m51.18,99.52c-.14,0-.28-.06-.37-.18-.16-.2-.12-.5.08-.65.28-.22.98-.93.93-1.63-.16-2.18-3.76-6.32-5.13-7.73-.18-.18-.18-.48,0-.66.18-.18.48-.18.66,0,.21.22,5.18,5.35,5.39,8.32.1,1.34-1.24,2.39-1.29,2.43-.08.07-.18.1-.28.1Z"/><g><path class="cls-5" d="m23.17,107.35c-.2,0-.39-.13-.45-.34-.01-.04-1.06-3.71-3.6-4.31-.25-.06-.41-.31-.35-.56.06-.25.31-.4.56-.35,3.08.72,4.24,4.8,4.29,4.97.07.25-.08.5-.32.57-.04.01-.08.02-.12.02Z"/><path class="cls-5" d="m19.33,104.97c-.15,0-.29-.07-.38-.2-.15-.21-.09-.5.12-.65,1.17-.81,2.78-.48,2.85-.47.25.05.41.3.36.55-.05.25-.3.41-.55.36-.01,0-1.29-.26-2.12.32-.08.06-.17.08-.26.08Z"/></g><path class="cls-8" d="m40.84,87.88c.62.39.68,1.68-.17,1.94-.86.26-2.12.51-3.57,1.22-1.4.69-2.87,1.92-3.61,1.9-.66-.02-.98-.68-.16-1.7.77-.95,1.88-1.89,3.34-2.54,1.45-.65,3.56-1.21,4.18-.82Z"/><path class="cls-8" d="m54.25,81.69c-.68.13-1.38.33-2.08.65-1.45.65-3.28,1.84-3.4,2.57-.12.72.8,1.63,1.56,1.17.77-.47,1.8-1.24,3.29-1.85.57-.23,1.21-.41,1.8-.58-.39-.67-.78-1.33-1.18-1.95Z"/></g><g><path class="cls-3" d="m303.84,47.79s12.85-11.53,18.21-16.87c5.36-5.34,13.36-11.27,16.15-15.76,2.79-4.49,4.21-9.24,2.07-10.53-2.14-1.29-12.16-5.58-14.16-4.45-5.39,3.03-13.52,12.51-15.23,14.65s-8.93,9.63-10.43,12.84-7.71,8.54-7.71,8.54l11.1,11.57Z"/><path class="cls-3" d="m151.89,445.26c.31-9.16-3.2-72.19-3.2-72.19l31,4.74-7.17,63.12c.18,3.23.39,13.55.67,16.68.31,3.51.95,11.51-2.71,12.21-5.46,1.05-15.11-.47-22.72.02-7.61.49-20.24,1.64-24.56-.39-4.32-2.03-5.25-5.67-1.01-6.99,4.24-1.32,6-1.06,11.15-2.41,5.15-1.35,18.23-5.63,18.54-14.79Z"/><g class="cls-10"><path class="cls-2" d="m160.76,171.01c-.39.75-.62,1.19-.62,1.19.21-.36.42-.76.62-1.19Z"/></g><g><path class="cls-1" d="m296.93,28.47c-16.74,17.07-33.35,32.19-50.35,48.85-10.42,10.2-37.34,46.01-47.18,58.31-11.78,14.72-26.16,23.69-26.16,23.69-6.73,16.22-11.78,29.84-18.51,46.06-4.05,9.76-8.43,19.44-12.16,29.32-5.5,14.55-.79,31.65.08,47.29,2.91,52.36,1.54,104.95-4.09,157.09,19.55.74,39.1,1.49,58.65,2.23,1.55-45.26,3.11-90.52,4.66-135.78.99-28.95,2.01-57.64,10.93-85.26,7.53-23.29,20.85-44.06,34.65-64.06,8.69-12.59,19.04-23.92,28.05-36.26,8.69-11.9,15.41-24.36,24.8-35.84,6.12-7.48,18.6-20.76,18.6-20.76,0,0-16.81-33-21.96-34.88Z"/><g><path class="cls-4" d="m160.13,156.38s6.2-.84,13.1,2.94c0,0-12.67,50.85-32.13,79.77,0,0-7.49-.73-10.08-7.03l29.11-75.68Z"/><path class="cls-1" d="m141.33,239.58l-.28-.03c-.32-.03-7.8-.83-10.47-7.32l-.07-.17,29.28-76.11.27-.04c.26-.04,6.44-.81,13.39,3l.32.17-.09.35c-.13.51-12.92,51.26-32.2,79.92l-.16.23Zm-9.81-7.53c2.23,5.16,8.03,6.34,9.35,6.54,18.26-27.31,30.65-74.49,31.82-79.03-5.75-3.04-11-2.84-12.23-2.74l-28.94,75.23Z"/></g></g><g><path class="cls-4" d="m160.63,176.62c6.36-4.11,17.46,6.67,17.79,24.43.32,17.76,6.46,41.02,6.46,41.02l-10.89,1.61s-1.38-14.76-1.61-21.86c-.55-16.7-1.74-34.46-7.1-42.85l-4.64-2.35Z"/><path class="cls-1" d="m173.57,244.21l-.05-.49c-.01-.15-1.38-14.86-1.62-21.89-.58-17.32-1.83-34.47-7.03-42.61l.79-.5c5.33,8.33,6.6,25.63,7.18,43.08.21,6.28,1.33,18.73,1.57,21.35l9.89-1.47c-.89-3.5-6.05-24.45-6.34-40.62-.23-12.55-5.82-21.18-10.91-23.89-2.26-1.2-4.45-1.26-6.16-.15l-.51-.78c2.01-1.3,4.53-1.26,7.1.11,5.33,2.84,11.17,11.78,11.4,24.7.32,17.5,6.38,40.67,6.44,40.91l.13.5-11.89,1.76Z"/></g><g><path class="cls-4" d="m160.48,182.09s-6.07,24.12-3.81,37.37c2.26,13.24,11.07,30.62,11.07,30.62l-6.14,3.55s-11.37-23.16-12.11-37.3c-.47-9.04,6.78-33.59,10.98-34.23Z"/><path class="cls-1" d="m161.41,254.28l-.22-.45c-.11-.23-11.42-23.4-12.16-37.48-.45-8.58,6.55-33.98,11.38-34.72l.69-.11-.17.68c-.06.24-6.02,24.18-3.8,37.17,2.22,13.02,10.94,30.31,11.03,30.48l.2.39-6.95,4.02Zm-1.62-71.34c-3.83,3.17-10.3,24.45-9.83,33.36.67,12.81,10.27,33.37,11.85,36.67l5.32-3.08c-1.32-2.67-8.86-18.3-10.92-30.35-1.99-11.68,2.49-31.95,3.58-36.59Z"/></g><g class="cls-10"><path class="cls-2" d="m287.88,94.39s-.08,0-.11-.01c-.25-.06-.4-.32-.34-.57l9.69-38.75c.06-.25.32-.4.56-.34.25.06.4.32.34.57l-9.69,38.75c-.05.21-.24.35-.45.35Z"/></g><g class="cls-10"><path class="cls-2" d="m192.93,214.53s-.07,0-.1-.01c-.25-.06-.41-.31-.35-.56,5.14-22.48,31.5-49.69,31.77-49.96.18-.18.48-.19.66,0,.18.18.19.47,0,.66-.26.27-26.45,27.29-31.53,49.51-.05.22-.24.36-.45.36Z"/></g><g class="cls-10"><path class="cls-2" d="m152.89,277.5c-.2,0-.38-.13-.44-.33l-11.79-37.95c-.08-.25.06-.51.31-.58.25-.07.51.06.58.31l11.79,37.95c.08.25-.06.51-.31.58-.05.01-.09.02-.14.02Z"/></g><g class="cls-10"><path class="cls-2" d="m167.42,414.11c-.21,0-.4-.14-.45-.35l-12.6-50.38c-.06-.25.09-.5.34-.57.25-.06.5.09.56.34l12.6,50.38c.06.25-.09.5-.34.57-.04,0-.08.01-.11.01Z"/></g><g><path class="cls-4" d="m153.28,175.74c.93-2.13,5.26.22,7.29.85s6.75,2.18,6.44,4.18c-.31,2-3.09,5.7-3.63,7.02s-6.08-1.32-7.96-1.71-5.88-1.82-2.14-10.34Z"/><path class="cls-1" d="m162.54,188.62c-1.17,0-2.94-.63-4.78-1.29-.97-.35-1.89-.68-2.43-.79-1.71-.35-2.85-1.12-3.5-2.37-.99-1.91-.65-4.81,1.03-8.62h0c.92-2.1,4.09-.86,6.41.06.55.21,1.05.41,1.45.54,3.33,1.04,7.1,2.52,6.76,4.69-.21,1.39-1.48,3.44-2.49,5.08-.51.83-.99,1.61-1.17,2.04-.19.47-.64.65-1.28.65Zm-8.83-12.69c-1.55,3.54-1.91,6.17-1.05,7.82.51.98,1.44,1.59,2.86,1.88.61.12,1.51.45,2.56.82,1.24.44,4.54,1.62,4.88,1.17.21-.51.69-1.28,1.24-2.18.97-1.58,2.18-3.54,2.36-4.74.12-.76-.85-2.01-6.12-3.66-.42-.13-.94-.34-1.51-.56-1.96-.77-4.65-1.83-5.21-.55h0Z"/></g></g></g></g></svg>