<?xml version="1.0" encoding="UTF-8"?><svg id="Calque_2" xmlns="http://www.w3.org/2000/svg" viewBox="0 0 514.11 841.63"><defs><style>.cls-1{fill:none;}.cls-2{fill:#f3e1d3;}.cls-3{fill:#010101;}.cls-4{fill:#f0a88d;}.cls-5{fill:#30353d;}.cls-6{fill:#c48975;}.cls-7{fill:#435563;}.cls-8{fill:#160e0c;}.cls-9{fill:#2b353f;}.cls-10{opacity:.2;}</style></defs><g id="Calque_1-2"><g><g><path class="cls-7" d="m222.64,116.21c-.34-1.62.06-3.1-.03-4.71-.16-2.85-1.17-5.81-1.65-8.64-1.02-6.05-1.72-12.14-2.1-18.26-.29-4.84-.13-10.31,3.58-13.64.77-.69,1.66-1.25,2.32-2.03,1.56-1.84,1.54-4.5,2.85-6.5,2.14-3.28,6.83-3.71,10.68-4.91,2.87-.89,5.5-2.36,8.29-3.45,2.79-1.09,5.89-1.81,8.82-1.11,1.43.34,2.91,1.02,4.31.59.57-.18,1.06-.52,1.59-.8,2.35-1.22,5.27-.89,7.77,0,3.89,1.39,7.12,4.06,11.25,4.79,4.14.74,8.41.22,12.55.91,1.56.26,3.36.95,3.65,2.44.2,1-.37,2.1.12,3,.38.68,1.23.96,1.94,1.33,4.35,2.25,4.51,8.07,4.73,12.17.31,5.82.29,11.68-.24,17.49-.65,7.09-3.23,23.27-3.24,23.32-.1.62-32.12-.84-34.29-.89-8.59-.22-17.18-.45-25.76-.67l-9.94-.26c-1.74-.05-4.38.37-6.04-.16-.32-.1-.81-.02-1.14-.03Z"/><polygon class="cls-4" points="240.22 146.56 240.22 164.47 212.48 173.96 261.9 260.75 311.43 173.42 281.45 165.12 281.45 143.51 240.22 146.56"/><path class="cls-4" d="m290.76,74.38c-7.76-9.13-16.09-12.46-30.06-12.46s-22.19,3.7-29.75,12.73c-7.68,9.18-6.73,24.43-5.51,35.72,1.22,11.29,1.46,21.76,5.36,30.8,3.9,9.03,10.02,15.26,14.32,17.86,4.18,2.53,10.55,4.59,15.58,4.59s10.58-1.88,14.8-4.59c4.79-3.08,11.04-9.65,14.94-19.23,3.9-9.58,4.31-18.14,5.52-29.43,1.22-11.29,3.41-25.87-5.2-36Z"/><path class="cls-6" d="m260.69,164.44c-4.87,0-11.47-1.94-16.05-4.71-.4-.25-.52-.76-.26-1.14.26-.39.8-.5,1.2-.25,4.33,2.62,10.55,4.46,15.12,4.46s9.98-1.66,14.31-4.44c.39-.25.93-.16,1.2.22.27.38.16.89-.23,1.15-4.6,2.96-10.32,4.73-15.28,4.73Z"/><path class="cls-6" d="m267.21,140.68h-11.69c-.48,0-.87-.37-.87-.83s.39-.83.87-.83h11.69c.48,0,.87.37.87.83s-.39.83-.87.83Z"/><path class="cls-7" d="m261.89,60.26c-11.35,0-23.21,2.54-30.75,11.24-9.11,10.51-9.6,24.8-9.46,37.68.01,1.04.26,2.38,1.33,2.59,2.22.43,6.07-4.65,6.29-5.94.46-2.68.92-5.38,1.99-7.9,1.07-2.52,2.8-4.86,5.28-6.21,1.85-1,3.98-1.4,6.07-1.77,3.73-.66,7.56-1.35,10.8-3.24,2.63-1.53,4.73-3.79,7.33-5.37,1.22-.74,6.09-2.33,7.2-1.18.39.41.49,1.6.68,2.14.27.78.58,1.55.97,2.29.73,1.37,1.72,2.61,3.13,3.4,2.86,1.6,6.46.89,9.7.22,4.54-.94,8.36-.82,11.72,2.53.98.98,1.84,2.1,2.26,3.4.5,1.53.36,3.18.36,4.78-.01,2.15-1.29,9.35-.83,11.46.27,1.21,1.34-.14,2.55-.59,4.24-1.59,1.45-13.44.95-16.66-.77-5.03-2-10.06-4.18-14.72-3.65-7.82-10.06-13.65-18.68-16.24-4.74-1.42-9.76-1.9-14.72-1.9Z"/><path class="cls-6" d="m262.39,133.35c-1.57,0-3.9-.76-4.84-3.72-.52-1.64-.57-5.02-.16-10.04.31-3.68.77-6.96.77-6.99.06-.45.52-.76.97-.71.48.06.81.48.74.93,0,.03-.46,3.26-.76,6.9-.5,6-.23,8.44.09,9.43.92,2.89,3.36,2.56,3.63,2.51.47-.07.92.21,1.01.66.09.45-.22.87-.68.96-.22.04-.48.07-.77.07Z"/><g><path class="cls-8" d="m274.97,115.51c0,2.74,1.3,4.97,2.9,4.97s2.9-2.22,2.9-4.97-1.3-4.97-2.9-4.97-2.9,2.22-2.9,4.97Z"/><path class="cls-8" d="m241.82,115.51c0,2.74,1.3,4.97,2.9,4.97s2.9-2.22,2.9-4.97-1.3-4.97-2.9-4.97-2.9,2.22-2.9,4.97Z"/></g><path class="cls-9" d="m252.34,105.29c.94,1.18.13,3.67-1.76,3.58-1.91-.1-4.61-.5-8.02-.16-3.3.33-7.14,1.66-8.6,1.1-1.29-.49-1.47-1.98.92-3.35,2.23-1.28,5.14-2.29,8.52-2.51,3.38-.23,8,.16,8.94,1.34Z"/><path class="cls-9" d="m270.59,105.29c-.94,1.18-.13,3.67,1.76,3.58,1.91-.1,4.61-.5,8.02-.16,3.3.33,7.14,1.66,8.6,1.1,1.29-.49,1.47-1.98-.92-3.35-2.23-1.28-5.14-2.29-8.52-2.51-3.38-.23-8,.16-8.94,1.34Z"/><g><path class="cls-4" d="m227.8,112.09c-3.43-3.99-11.18.27-10.12,7.77,1.05,7.49,8.33,15.06,12.87,15.03,4.54-.03,1.87-17.42-2.75-22.79Z"/><path class="cls-6" d="m224.21,125.32c-.27,0-.54-.12-.71-.35-2.22-3-1.68-6.89-1.66-7.06.07-.45.51-.76.98-.7.47.06.81.48.74.93,0,.03-.46,3.42,1.36,5.88.27.37.18.89-.21,1.15-.15.1-.33.15-.5.15Z"/></g><g><path class="cls-4" d="m291.93,112.09c3.43-3.99,11.18.27,10.12,7.77-1.05,7.49-8.33,15.06-12.87,15.03-4.54-.03-1.87-17.42,2.75-22.79Z"/><path class="cls-6" d="m294.9,125.15c-.2,0-.41-.07-.58-.21-.36-.3-.39-.83-.07-1.17.02-.03,2.39-2.59,2.33-5.6,0-.46.37-.83.85-.84.49.03.88.35.88.81.07,3.67-2.66,6.61-2.77,6.73-.17.18-.41.27-.65.27Z"/></g><g class="cls-10"><path class="cls-3" d="m246.08,79.07c-.44,0-.82-.32-.86-.74-.05-.45.3-.86.78-.9,1.91-.18,3.77-.89,5.57-1.58.7-.27,1.43-.55,2-.96.6-.43,1.08-1.02,1.59-1.65.3-.36.59-.73.91-1.07,1.77-1.87,4.41-3.03,7.05-3.1.58-.02.88.35.89.8.01.46-.36.84-.84.85-2.18.06-4.35,1.02-5.81,2.56-.29.31-.56.64-.83.97-.56.69-1.13,1.4-1.92,1.96-.76.54-1.63.87-2.39,1.17-1.91.73-3.89,1.49-6.05,1.7-.03,0-.06,0-.09,0Z"/></g><g class="cls-10"><path class="cls-3" d="m225.93,99.68c-.46,0-.84-.34-.86-.78-.31-5.02,2.04-10.11,6.13-13.28.37-.29.92-.23,1.22.12.3.35.25.87-.12,1.16-3.67,2.85-5.77,7.41-5.5,11.91.03.46-.34.85-.81.87-.02,0-.03,0-.05,0Z"/></g><g class="cls-10"><path class="cls-3" d="m225.64,79.15c-.43,0-.81-.31-.86-.73-.05-.45.29-.86.76-.91,2.12-.23,4.53-.49,6.29-1.73.46-.32.88-.71,1.32-1.13l.48-.44c2.4-2.16,5.14-3.54,7.92-3.97.48-.07.92.23,1,.68.08.45-.24.88-.71.95-3.08.48-5.51,2.19-7.01,3.54l-.46.42c-.47.43-.95.88-1.51,1.27-2.14,1.5-4.9,1.8-7.12,2.04-.03,0-.07,0-.1,0Z"/></g><g class="cls-10"><path class="cls-3" d="m243.15,62.56c-.16,0-.32,0-.49,0-.48-.01-.86-.39-.85-.84.01-.45.4-.81.87-.81h.02c2.38.05,4.8-.32,7.08-1.12l.6-.22c.72-.27,1.47-.54,2.29-.68.96-.16,1.92-.12,2.73-.06,2.77.21,5.49.8,8.08,1.74.45.16.67.64.5,1.07-.17.42-.66.64-1.12.48-2.44-.89-5-1.44-7.61-1.64-.7-.05-1.52-.09-2.28.04-.65.11-1.3.35-1.97.6l-.63.23c-2.33.81-4.76,1.23-7.23,1.23Z"/></g><g class="cls-10"><path class="cls-3" d="m280.68,84.2c-2.37,0-4.71-.29-6.41-1.86-1.55-1.43-2.02-3.51-2.37-5.5-.08-.45.24-.88.71-.95.49-.07.92.23,1,.68.31,1.8.69,3.5,1.86,4.59,1.52,1.41,4.03,1.45,6.47,1.37.48-.02.88.34.9.8.02.46-.36.84-.84.85-.44.01-.89.02-1.33.02Z"/></g><g class="cls-10"><path class="cls-3" d="m296.6,78.37c-.28,0-.56-.13-.72-.37-1.37-2-3.87-3.41-7.64-4.3-.93-.22-1.87-.41-2.81-.59-2.25-.44-4.57-.9-6.73-1.85-2.79-1.23-6.08-3.98-6.14-7.7,0-.46.37-.83.85-.84h.01c.47,0,.86.36.87.81.05,2.95,2.79,5.2,5.13,6.23,1.98.87,4.1,1.29,6.36,1.73.97.19,1.93.38,2.88.61,4.21,1,7.05,2.64,8.67,5,.26.38.15.89-.25,1.14-.15.09-.31.13-.47.13Z"/></g><g class="cls-10"><path class="cls-3" d="m286.69,64.53c-1.38,0-2.76-.17-4.09-.52-.46-.12-.73-.57-.61-1.01.13-.44.61-.7,1.07-.58,2.79.73,5.83.59,8.54-.39.45-.16.95.05,1.12.48.17.43-.05.9-.5,1.07-1.76.64-3.65.96-5.53.96Z"/></g></g><g><path class="cls-4" d="m137.76,747.43c-2.52,16.49-13.14,49.59-12.26,57.62.66,6.01,6.55,21.42,2.19,28.33-3.66,5.81-14.28,2.26-23.89,3.02-9.61.76-16.64,3.33-24.38,3.72-9.26.46-33.03,3.64-35.77-.93-2.93-4.88,6.16-7.2,11.95-10.91,4.97-3.19,16.72-6.9,23.09-9.87,6.44-3,12.82-5.75,14.38-7.94,4.51-6.34,9.3-63.9,9.3-63.9l35.39.87Z"/><path class="cls-4" d="m377.2,766.8c2.52,16.49,4.76,30.23,3.87,38.26-.66,6.01-6.55,21.42-2.19,28.33,3.66,5.81,14.28,2.26,23.89,3.02,9.61.76,16.64,3.33,24.38,3.72,9.26.46,33.03,3.64,35.77-.93,2.93-4.88-6.16-7.2-11.95-10.91-4.97-3.19-16.72-6.9-23.09-9.87-6.44-3-12.82-5.75-14.38-7.94-4.51-6.34-3.2-43.97-3.2-43.97l-33.1.3Z"/><g><path class="cls-2" d="m424.84,593.09c-3.02-23.51-16.19-47.32-26.03-68.73-12.02-26.15-24.84-51.97-38.01-77.61-2.75-5.36-7.23-11.36-8.89-17.14-1.72-5.99-1.42-14.51-1.23-20.8.17-5.66,1.76-11.12,1.6-16.82-.21-7.58-2.64-14.94-3.03-22.51-.38-7.53,1.1-15.01,2.58-22.41,5.99-29.94,13.47-59.17,16.27-89.56,1.56-16.95,7.14-50.18-8.16-63.47-17.3-15.04-52.43-21.91-52.43-21.91,3.4,7.84-31.08,64.82-45.22,86.51-8.35-25.88-39.16-76.77-34.18-90.3,0,0-58.23,17.19-69.04,31.61-11.17,14.89-5.92,46.55-5.41,63.41.91,29.88,4.11,59.1,6.46,88.81.55,7.03.37,14.09.18,21.13-.34,12.89-2.78,27.48-.86,40.24.73,4.83,7.01,16.88,4.88,21.39-.16.33-62.99,133.66-67.28,162.26-3.12,20.82-22.19,195.67-22.19,195.67,23.85,9.51,48.68,9.27,74.43,0l34.35-181.35s46.28-90.45,72.52-90.45c4.95,0,17.5,1.13,24.1,7.05,28.42,25.5,60.12,95.67,60.12,95.67l22.19,169.08c24.84,8.26,49.03,9.31,72.29,0,0,0-5.73-166.33-10.02-199.76Z"/><g class="cls-10"><path class="cls-3" d="m284.78,496.86c-3.69,0-6.95-.34-9.56-1.12-11.18-3.36-28.08-5.74-42.99-7.84-9.39-1.32-18.25-2.57-25.15-3.95-18.13-3.64-35.04-16.4-35.21-16.53-.31-.24-.42-.63-.28-.98l11.93-29.09c.18-.44.71-.66,1.17-.49.46.17.69.67.51,1.11l-11.68,28.49c2.96,2.15,17.99,12.61,33.93,15.81,6.85,1.37,15.69,2.62,25.05,3.94,14.98,2.11,31.95,4.5,43.27,7.9,17.64,5.31,68.83-11.36,69.35-11.53.47-.16.98.08,1.15.53.16.45-.09.94-.56,1.09-1.82.6-38.89,12.66-60.92,12.66Z"/></g><g><g><path class="cls-5" d="m156.58,414.04c-2.57,11,.64,8.38.58,18.61,0,.97.93,1.75,2.05,1.72,0,0,40.89,5.55,65.23,6,13.23.25,50.16-1.26,81.12-2.7,25.99-1.2,47.77-2.35,47.77-2.35,1.32-.03,2.25-1.14,1.85-2.23,0,0-2.27-2.27-2.62-6.02-.36-3.75.74-11.97.74-11.97-.25-.7-1-1.19-1.85-1.21,0,0-97.89,4.2-133.2,3.29-35.31-.91-59.64-4.54-59.64-4.54-.97-.02-1.82.57-2.01,1.39Z"/><path class="cls-2" d="m227.68,441.26c-1.2,0-2.29,0-3.25-.03-24.11-.45-64.93-5.96-65.33-6.01-.68.02-1.47-.27-2.03-.8-.51-.48-.8-1.12-.79-1.78.02-4.14-.49-6.07-.95-7.78-.65-2.45-1.17-4.39.38-11.02.28-1.2,1.47-2.06,2.85-2.06.02,0,.04,0,.06,0,.36.05,24.81,3.65,59.65,4.55,34.86.9,132.16-3.25,133.13-3.29,1.29.02,2.37.74,2.75,1.78l.07.19-.03.2c0,.08-1.08,8.17-.73,11.79.32,3.38,2.36,5.49,2.38,5.51l.2.31c.27.74.15,1.55-.33,2.2-.52.71-1.4,1.15-2.36,1.17-.19.01-22.05,1.16-47.74,2.35-27.49,1.27-62.32,2.72-77.93,2.72Zm-68.48-7.75c.55.06,41.26,5.55,65.26,6,13.41.25,51.48-1.33,81.06-2.69,25.69-1.19,47.54-2.34,47.76-2.35.41,0,.75-.17.95-.43.09-.12.17-.3.14-.52-.56-.63-2.38-2.92-2.7-6.36-.33-3.48.53-10.5.71-11.92-.18-.28-.54-.47-.95-.48-.92.04-98.28,4.19-133.2,3.29-34.96-.9-59.51-4.52-59.76-4.55h0c-.42,0-.9.31-.99.73h0c-1.46,6.23-1.01,7.9-.4,10.22.46,1.72,1.03,3.85,1,8.21,0,.25.14.44.25.55.22.21.55.29.88.31Z"/></g><g><path class="cls-5" d="m248.59,422.66s-19.05,2.21-27.49,23.17c-6.68,16.59-3.46,73.63-3.46,73.63h15.47s-10.03-81.67,15.22-91.06l.25-5.74Z"/><path class="cls-2" d="m234.48,520.62h-17.99l-.06-1.1c-.13-2.34-3.16-57.48,3.54-74.11,8.6-21.37,28.28-23.88,28.47-23.9l.3,2.3c-.18.02-18.44,2.41-26.5,22.43-6,14.91-3.83,64.07-3.44,72.06h12.95c-1.22-10.91-8.21-81.93,16.14-90.98l.89,2.16c-9.83,3.66-15.47,20.25-16.31,48-.64,21.26,1.82,41.64,1.85,41.84l.16,1.29Z"/></g><g><path class="cls-5" d="m272.13,426.51s20.56,1.2,25.32,32.95c4.29,28.63,31.01,50.9,31.01,50.9l-12.41,7.27s-31.49-23.18-32.45-55.45c-.69-23.19-11.93-29.09-11.93-29.09l.45-6.59Z"/><path class="cls-2" d="m315.98,519.05l-.67-.49c-.32-.24-31.96-23.89-32.92-56.34-.65-22.12-11.2-28.05-11.3-28.11l1.18-2.03c.48.25,11.86,6.49,12.56,30.07.85,28.78,26.86,50.54,31.33,54.07l10.31-6.04c-5.3-4.8-26.43-25.34-30.22-50.55-4.55-30.35-23.39-31.91-24.19-31.96l.15-2.31c.88.05,21.6,1.63,26.45,33.95,4.18,27.86,30.35,49.98,30.61,50.2l1.24,1.04-14.53,8.52Z"/></g><g><path class="cls-5" d="m252.7,417.07c-5.15.09-3.97,7.93-4.36,11.33s-1.19,11.33,3.17,12.09c4.36.76,14.27-1.13,17.45-1.13s2.38-9.82,3.17-12.84c.79-3.02,1.19-9.82-19.43-9.44Z"/><path class="cls-2" d="m254.09,441.82c-1.05,0-2-.06-2.8-.19-5.61-.97-4.56-9.97-4.16-13.36.08-.66.09-1.5.1-2.42.07-3.92.16-9.84,5.44-9.94h0c10.29-.19,16.7,1.33,19.47,4.64,1.41,1.69,1.8,3.79,1.16,6.24-.21.82-.31,2.35-.41,3.97-.29,4.79-.59,9.75-3.95,9.75-1.04,0-2.96.23-5.19.5-3.1.37-6.76.81-9.68.81Zm-1.37-23.59c-2.71.05-2.98,3.5-3.05,7.66-.02.97-.03,1.89-.12,2.64-.99,8.46.64,10.55,2.18,10.82,2.64.46,7.68-.15,11.74-.64,2.3-.28,4.3-.52,5.49-.52.7,0,1.21-2.55,1.52-7.56.11-1.81.21-3.37.47-4.4.46-1.76.24-3.11-.7-4.24-1.54-1.84-5.83-3.97-17.52-3.77h0Z"/></g></g></g><g><path class="cls-4" d="m153.71,476.72s.65,10.49,3.35,13.21c2.7,2.71,9.96,3.65,12.09,6.07s10.21,11.89,14.21,13.93c2.42,1.23.47,2.99-2.02,3.07-2.49.08-8.02-2.1-11.21-6.05,0,0,1.8,7.14,3.27,11.07,1.47,3.92,1.95,6.55,1.46,9.11-.49,2.56-.32,12.38-2.91,13.13-2.59.75-3.17-.39-3.7-4.11-.53-3.71-.07-8.4-.57-10.19-.5-1.79-1.58-6.31-3.12-6.14-1.54.17.12,5.83-.04,9.19-.16,3.36-.08,15.63-1.96,16.79s-3.84.7-4.31-1.24c-.47-1.93-.66-8.65-.96-11.18-.3-2.54-.33-11.92-1.41-11.68-1.08.24-.36,6.59-.23,9.04.13,2.45.31,14.82-.79,15.7-1.1.87-3.69,1.62-4.54-.82-.85-2.45-1.39-21.14-2.03-22.47-.64-1.33-2.99-2.1-3.16-.6-.17,1.5-1.09,9.08-1.13,11.44-.04,2.36-1.17,4.97-2.58,4.62s-2.36-1.25-2.84-4.56c-.48-3.31-.46-14.16-.61-16.88s-2.91-10.69-3.52-16.24c-.61-5.55.68-11.25-2.26-18.2l21.52-6.01Z"/><path class="cls-6" d="m170.13,507.81c-.36,0-.69-.2-.84-.54l-3.09-7.25c-.19-.44.03-.94.5-1.12.45-.18.99.03,1.18.47l3.09,7.25c.19.44-.03.94-.5,1.12-.11.04-.23.06-.34.06Z"/></g><path class="cls-2" d="m159.08,199.94s-60.6,123.85-61.31,139.53c-.71,15.64,32.02,160.75,32.21,161.57-.75-3.31,33.5-7.79,36.36-13.6,1.83-3.72,1.15-8.06.47-12.11-5.66-33.55-9.17-67.43-10.49-101.39-.4-10.3-.59-20.68,1.17-30.84,1.37-7.91,3.9-15.58,6.43-23.23,9-27.23,19.55-53.43,28.33-80.63l-33.16-39.32Z"/><g class="cls-10"><path class="cls-3" d="m159.38,335.41c-.07,0-.15,0-.22-.03-.48-.12-.78-.58-.65-1.04,1.32-4.97,2.96-9.92,4.54-14.71,4.28-12.95,8.98-25.87,13.53-38.36,5.01-13.77,10.2-28.01,14.8-42.27.15-.45.66-.71,1.13-.57.48.14.75.62.6,1.07-4.61,14.29-9.8,28.54-14.82,42.33-4.54,12.48-9.24,25.38-13.51,38.31-1.57,4.77-3.2,9.7-4.51,14.62-.1.39-.47.65-.88.65Z"/></g><g class="cls-10"><path class="cls-3" d="m160.39,491.18c-.32,0-.64-.17-.8-.46-.23-.42-.06-.94.38-1.16l6.23-3.12c-1.14-7.03-2.35-18.38-3.42-28.43-.62-5.84-1.21-11.36-1.71-15.31-.06-.47.29-.9.79-.96.49-.05.95.28,1,.75.5,3.97,1.09,9.5,1.71,15.35,1.1,10.32,2.34,22.02,3.5,28.93.06.37-.13.73-.47.9l-6.8,3.41c-.13.07-.28.1-.42.1Z"/></g><g><path class="cls-4" d="m362.69,475.24s-2.91,10.14-6.15,12.26c-3.24,2.12-10.54,1.61-13.15,3.56-2.61,1.95-12.57,9.62-16.93,10.82-2.64.73-1.11,2.84,1.3,3.4,2.42.57,8.3-.47,12.28-3.71,0,0-3.31,6.63-5.6,10.18-2.29,3.55-3.33,6.02-3.41,8.62-.08,2.6-2.38,12.18,0,13.42,2.37,1.24,3.19.24,4.52-3.29,1.33-3.53,1.9-8.21,2.78-9.86.88-1.65,2.92-5.86,4.39-5.39,1.47.47-1.39,5.68-1.96,9-.57,3.32-3.32,15.31-1.73,16.82,1.58,1.51,3.6,1.44,4.48-.36.88-1.8,2.52-8.33,3.37-10.75.85-2.42,2.91-11.6,3.92-11.14,1.01.45-1.08,6.52-1.74,8.89-.66,2.37-3.53,14.44-2.64,15.51.89,1.07,3.25,2.31,4.62.09s5.95-20.41,6.87-21.59c.92-1.18,3.38-1.47,3.23.03-.16,1.5-.91,9.1-1.38,11.42-.47,2.32.06,5.09,1.53,5.03,1.46-.06,2.58-.76,3.77-3.91,1.19-3.15,3.53-13.76,4.26-16.39.73-2.63,5.17-9.88,6.97-15.2,1.81-5.31,1.77-11.14,6.16-17.36l-19.75-10.12Z"/><path class="cls-6" d="m340.05,502.44c-.17,0-.35-.05-.51-.15-.41-.27-.52-.8-.24-1.19l4.6-6.49c.28-.39.84-.49,1.25-.23.41.27.52.8.24,1.19l-4.6,6.49c-.17.25-.46.38-.75.38Z"/></g><path class="cls-2" d="m364.25,198.12s56.3,123.63,57.73,141.35c1.42,17.63-31.86,160.08-32.2,161.57.29-1.24-40.03-16.06-44.36-17.66,1.69-8.01.92-16.6,2.49-24.91,2.18-11.49,4.18-23.01,6.02-34.55,3.76-23.64,6.8-47.38,9.12-71.18.26-2.71.52-5.46.06-8.14-.58-3.4-2.27-6.52-3.78-9.65-5-10.38-8.16-21.47-11.29-32.49-6.1-21.44-12.9-42.24-20.52-63.21l36.74-41.13Z"/><g class="cls-10"><path class="cls-3" d="m352.97,319.81c-.38,0-.74-.24-.86-.6-1.84-5.54-3.42-11.12-4.96-16.52-5.94-20.87-12.64-41.53-20.5-63.15-.16-.45.09-.94.56-1.09.47-.15.99.08,1.15.53,7.87,21.66,14.59,42.35,20.54,63.26,1.53,5.38,3.11,10.95,4.94,16.45.15.45-.11.94-.59,1.08-.09.03-.18.04-.27.04Z"/></g><g class="cls-10"><path class="cls-3" d="m355.33,487.77c-.1,0-.21-.02-.32-.05l-9.92-3.52c-.41-.15-.66-.56-.57-.98.86-4.05,1.07-8.18,1.29-12.56.21-4.05.42-8.24,1.2-12.33,1.1-5.82,2.15-11.61,3.13-17.19.08-.47.56-.78,1.04-.71.49.08.83.52.74.99-.97,5.6-2.03,11.39-3.13,17.22-.76,3.98-.97,8.12-1.17,12.11-.21,4-.42,8.13-1.18,12.09l9.2,3.27c.47.17.7.66.53,1.11-.14.35-.48.56-.85.56Z"/></g><g class="cls-10"><path class="cls-3" d="m149.53,715.3c-.45,0-.85-.33-.9-.77l-8.59-75.45c-.05-.47.3-.9.8-.95.46-.06.94.29.99.76l8.59,75.45c.06.47-.3.9-.8.95-.03,0-.06,0-.1,0Z"/></g><g class="cls-10"><path class="cls-3" d="m183.65,612.36s-.05,0-.07,0c-.5-.04-.87-.45-.83-.92l2.62-31.59c.04-.47.49-.82.97-.79.5.04.87.45.83.92l-2.62,31.59c-.04.45-.43.79-.9.79Z"/></g><g class="cls-10"><path class="cls-3" d="m376.89,692.13s-.09,0-.13,0c-.49-.07-.84-.5-.77-.97l10.74-71.59c.07-.47.56-.79,1.02-.73.49.07.84.5.77.97l-10.74,71.58c-.06.43-.45.74-.89.74Z"/></g><g class="cls-10"><path class="cls-3" d="m362.34,581.68c-.14,0-.27-.03-.4-.09l-28.63-13.64c-.45-.21-.63-.73-.4-1.15.22-.43.77-.6,1.21-.38l28.63,13.64c.45.21.63.73.4,1.15-.16.3-.48.48-.81.48Z"/></g></g><path class="cls-5" d="m228.12,168.33l34.18,90.3c11.49-24.91,28.11-61.91,45.22-86.51,0,0,6.95,1.82,14.72,4.68l-50.84,101.66-17.43,2.43-41.21-107.9h0c9.21-1.81,15.35-4.67,15.35-4.67Z"/><polygon class="cls-5" points="280.29 267.28 284.11 287.94 251.3 294.13 246.96 272.66 280.29 267.28"/></g><rect class="cls-1" x="-15.45" y="258.52" width="517.37" height=".33" transform="translate(-15.45 501.91) rotate(-90)"/><rect class="cls-1" y="840.36" width="514.11" height="1.27"/></g></svg>