<?xml version="1.0" encoding="UTF-8"?><svg id="Calque_2" xmlns="http://www.w3.org/2000/svg" viewBox="0 0 171.42 162.05"><defs><style>.cls-1{fill:#f7f5f4;}.cls-2{fill:#72a731;}.cls-3{fill:#da0e1d;}</style></defs><g id="Calque_1-2"><g><path class="cls-2" d="m170.07,80.11c0,20.02,4.13,38.01-8.51,52.05-15.29,16.99-48.79,32.02-75.16,29.63-31.53-2.85-64.55-10.86-78.67-35.83C1.31,114.61-1.97,96.87,1.26,81.78c3.67-17.11,4.37-38.82,14.28-52C30.68,9.65,58.86,0,86.69,0c26.71,0,53.68,11.83,68.94,30.59,11.05,13.59,14.43,30.93,14.43,49.52Z"/><path class="cls-3" d="m170.78,79.87c0-14.84-2.17-28.89-8.67-40.87-12.17-1.71-26.69-.32-41.4,4.64-13.85,4.68-25.64,11.78-34.19,19.9-8.67-9.19-21.48-17.33-36.8-22.5-13.08-4.42-26.02-6-37.29-5.1-6.34,13.13-7.34,31.02-10.46,45.6-1.73,8.07-1.58,16.89-.1,25.09,20.53,9.11,49.25,14.77,81.04,14.77,10.06,0,19.81-.57,29.09-1.63,10.1.19,21.3-1.51,32.61-5.33,4.01-1.35,7.84-2.91,11.48-4.64,5.61-2.06,10.74-4.35,15.33-6.84.03-7.28-.64-15.02-.64-23.09Z"/><path class="cls-1" d="m14.31,60.64c.82,10.5,7,22.38,22.07,29.16,13.63,6.13,25.61,9.75,34.38,5.06-7.08-10.69-12.57-17.19-27.88-26.72-12.69-7.9-17.62-7.51-28.57-7.49Z"/><path class="cls-1" d="m158.56,60.94c-.82,10.5-7,22.38-22.07,29.16-13.63,6.13-25.61,9.75-34.38,5.06,7.08-10.69,12.57-17.19,27.88-26.72,12.69-7.9,17.62-7.51,28.57-7.49Z"/></g></g></svg>