<?xml version="1.0" encoding="utf-8"?>
<!-- Generator: Adobe Illustrator 27.1.1, SVG Export Plug-In . SVG Version: 6.00 Build 0)  -->
<svg version="1.1" id="Calque_1" xmlns="http://www.w3.org/2000/svg" xmlns:xlink="http://www.w3.org/1999/xlink" x="0px" y="0px"
	 viewBox="0 0 32 32" style="enable-background:new 0 0 32 32;" xml:space="preserve">
<style type="text/css">
	.st0{fill:#F2E9E4;}
</style>
<path class="st0" d="M7.1,6.5C7.6,5.6,8.6,5,9.6,5h12.8c1,0,2,0.5,2.5,1.5l5.8,10.1c0.6,1,0.2,2.2-0.7,2.7l0,0l-3.7,2.1l0,0
	c-0.6,0.3-1.2,0.3-1.8,0.1v4.8c0,0.9-0.7,1.7-1.7,1.7H9.2c-0.9,0-1.7-0.7-1.7-1.7v-4.8c-0.6,0.2-1.2,0.2-1.8-0.1l0,0L2,19.3l0,0
	c-0.9-0.6-1.3-1.8-0.7-2.7l0,0L7.1,6.5z M19.1,7L16,13.6L12.9,7H11l4.1,8.6l-0.2,0.5h1.9L21,7H19.1z M17.8,16.1h4.7v-1.2l0.9,1.5
	c0,0,0.1,0.1,0.1,0.1l1.8,3.1l0,0l0,0l0,0l0,0l0,0l0,0l0,0l3.7-2.1c0,0,0,0,0,0c0,0,0,0,0,0s0,0,0,0L23.2,7.5C23,7.2,22.7,7,22.4,7
	h-0.3L17.8,16.1z M13.8,16.1c0-0.1,0-0.3,0.1-0.4l0-0.1L9.9,7H9.6C9.3,7,9,7.2,8.8,7.5L3,17.5l0,0c0,0,0,0,0,0c0,0,0,0,0,0l3.7,2.1
	l0,0c0,0,0,0,0,0l0,0l0,0l2.8-4.8v1.3H13.8z M9.5,26h13v-8.1H18l1.8,3.8c0.2,0.4,0,1-0.4,1.2c-0.4,0.2-1,0-1.2-0.4l-2.1-4.5h-0.2
	l-2.1,4.5c-0.2,0.4-0.7,0.6-1.2,0.4c-0.4-0.2-0.6-0.7-0.4-1.2l1.8-3.8H9.5V26z"/>
</svg>
