<?xml version="1.0" encoding="UTF-8"?><svg id="Calque_2" xmlns="http://www.w3.org/2000/svg" viewBox="0 0 477.51 477.32"><defs><style>.cls-1{fill:#fff;}.cls-2{fill:#c4c3c8;}.cls-3{fill:#dcdbdd;}.cls-4{fill:#0b0a0b;}.cls-5{fill:#58565c;}.cls-6{fill:#797681;}</style></defs><g id="Calque_1-2"><g><path class="cls-4" d="m293.79,364.54c-1.98,4.21-3.91,8.44-5.94,12.62-4.81,9.87-9.8,19.65-14.45,29.6-2.97,6.37-6.12,12.66-9.17,18.99-4.19,8.68-8.31,17.4-12.53,26.07-3.37,6.93-6.85,13.81-10.26,20.72-.57,1.15-1.07,2.34-1.53,3.54-.22.56-.41,1.17-1.05,1.22-.67.06-.83-.55-1.14-1.08-3.19-5.51-5.56-11.43-8.48-17.07-3.55-6.84-6.72-13.87-10.14-20.78-3.32-6.71-6.51-13.51-9.78-20.25-2.91-6-5.84-11.99-8.66-18.03-5.04-10.8-10.75-21.27-15.39-32.26-.56-1.32-1.37-2.53-2.06-3.78-.66-2-1.38-3.97-2.87-5.54-3.43-7.41-7.04-14.74-10.62-22.07-2.57-5.25-5.38-10.41-7.53-15.84-1.21-3.05-3.69-4.22-6.18-5.54-4.56-2.43-9.35-4.35-13.9-6.83-4.88-2.66-10.04-4.81-15.08-7.17-2.2-1.03-4.33-2.19-6.51-3.25-3.46-1.68-7.01-3.21-10.4-5.06-5.19-2.84-10.66-5.17-16-7.73-8.21-3.95-16.4-7.96-24.63-11.87-8.52-4.05-17.07-8.04-25.53-12.19-5.62-2.76-11.27-5.5-16.85-8.37-4.51-2.32-9.07-4.59-13.79-6.53-4.19-1.72-8.05-4.26-12.28-5.99-.92-.37-1.68-1.72-.1-2.37,5.45-2.23,10.4-5.46,15.86-7.68,3.7-1.5,7.16-3.59,10.76-5.35,9.21-4.49,18.44-8.94,27.66-13.4,9.74-4.7,19.55-9.26,29.2-14.13,4.75-2.4,9.5-4.86,14.28-7.13,5.61-2.66,11.33-5.19,16.92-7.91,10.33-5.04,20.71-9.95,31.01-15.03,3.18-1.57,6.29-3.35,9.62-4.54,4.33-1.55,5.71-5.37,7.46-8.94,2.59-5.27,5.1-10.58,7.65-15.87,4.17-8.66,8.35-17.31,12.51-25.97,4.01-8.33,7.98-16.69,12.03-25,4.27-8.77,8.76-17.44,12.89-26.28,5.58-11.93,11.58-23.65,17.15-35.59,3.54-7.59,7.3-15.1,10.96-22.65.21-.44.67-.76.85-1.2.23-.59.51-1.14,1.18-1.03.62.09.75.76,1,1.28,3.26,6.78,6.55,13.54,9.82,20.32,5.35,11.11,10.5,22.31,16.07,33.3,4.55,8.97,8.77,18.08,13.26,27.07,4.02,8.04,7.78,16.22,11.7,24.31,4.97,10.26,9.99,20.49,14.96,30.74,3.5,7.22,6.99,14.44,10.43,21.68,1.19,2.51,3.72,3.39,5.86,4.31,3.64,1.57,6.99,3.7,10.65,5.17,6.17,2.49,11.85,5.99,18.06,8.45,4.76,1.89,9.13,4.74,13.75,7.01,5.27,2.59,10.62,5,15.93,7.49,5.81,2.73,11.42,5.85,17.2,8.61,3.54,1.7,7.12,3.39,10.72,5,6.02,2.69,11.87,5.79,17.8,8.7,3.55,1.74,7.1,3.48,10.67,5.19,4.11,1.97,8.25,3.9,12.36,5.87,5.95,2.86,11.93,5.64,17.8,8.66,3.23,1.66,6.62,2.99,9.75,4.9,1.49.91.62,1.21-.05,1.54-5.37,2.63-10.77,5.2-16.15,7.8-5.12,2.47-10.28,4.85-15.32,7.45-9.16,4.72-18.63,8.82-27.79,13.56-8.93,4.62-18.14,8.69-27.16,13.15-7.07,3.5-14.25,6.76-21.28,10.35-8.42,4.3-17.2,7.91-25.63,12.22-7.6,3.88-15.33,7.48-23.01,11.17-3.31,1.59-4.71,4.18-5.87,6.72-4.7,10.31-10.02,20.32-14.61,30.67-.65,1.47-1.8,2.68-2.16,4.29-.66.13-.42.63-.42,1.03-.44.21-.38.62-.38,1-1.37,1.4-1.77,3.31-2.66,4.96h0c-.39-.02-.49.18-.42.53Zm-47.42,65.51c.36-.33.88-.57.73-1.21.58-1.45,1.16-2.9,1.74-4.34.19-.15.45-.27.55-.46,4.15-8.67,8.29-17.35,12.42-26.02,1.43-4.25,4.17-7.84,5.81-12.02,2.06-5.24,4.95-10.15,7.44-15.21,3.92-7.95,7.73-15.96,11.66-23.91,6.08-12.32,12.04-24.7,17.86-37.14,1.26-2.7,3.14-4.09,5.74-5.17,3.62-1.5,7.11-3.32,10.43-5.43,7.68-2.55,14.61-6.77,21.84-10.25,7.53-3.63,15.07-7.3,22.55-11.02,7.45-3.7,15.04-7.2,22.53-10.84,7.37-3.58,14.91-6.85,22.11-10.82,5.11-2.82,10.51-5.11,15.78-7.64.58.01.98-.32,1.35-.72l.18-.06c1.12-.2,2.09-.64,2.9-1.73-1.08-.46-1.98-.51-2.9-.06-2.51-.29-5.01-.27-7.5.13-4.77-.39-9.35-.65-13.91,1.86-7.15,3.93-14.62,7.29-21.98,10.83-7.27,3.5-14.59,6.91-21.86,10.42-10.08,4.87-20.14,9.79-30.2,14.71-7.63,3.73-15.25,7.5-22.87,11.25-2.05.22-3.68,1.31-5.26,2.51-3.03.89-5.02,2.79-5.76,5.9-1.57,2.11-2.9,4.35-3.56,6.93-.16.35-.32.7-.48,1.05-.61.09-.5.55-.51.95-1,2.26-1.84,4.61-3.02,6.76-4.73,8.6-8.73,17.54-12.95,26.39-5.02,10.51-10.16,20.97-15.26,31.45-1.85,3.8-3.73,7.58-5.59,11.37-1.69,4.45-4.11,8.58-6.31,12.76-3.41,6.45-5.04,12.99-3.81,20.19-.43,2.48-.35,4.97-.21,7.46-.54.11-.5.5-.42.9-.19.28-.28.68.02.82.51.25.63-.23.75-.6Zm-.77-382.54c-.08.4-.12.79.42.9-.11,2.49-.24,4.98.21,7.46-.52,5.81-.58,11.37,2.3,16.92,2.73,5.26,5.43,10.58,7.82,16.03,1.61,3.29,3.25,6.57,4.84,9.87,3.72,7.73,7.26,15.55,11.15,23.2,4.51,8.89,8.6,17.97,12.96,26.92,2.6,5.34,5.62,10.48,7.86,16,0,.42-.04.85.53.93.15.36.3.72.46,1.08.66,2.43,1.89,4.57,3.42,6.54.1.26.2.52.3.78-.23.7-.02,1.12.76,1.17.55,3.04,3.08,3.71,5.46,4.56,1.99,1.52,4.09,2.83,6.57,3.4.35.16.7.32,1.05.48.08.6.55.51.95.51,1.74.79,3.52,1.53,5.23,2.38,5.22,2.61,10.38,5.33,15.63,7.88,7.08,3.43,14.34,6.5,21.29,10.15,6.58,3.46,13.28,6.65,19.97,9.83,9.62,4.58,19.24,9.15,28.73,13.98,5.19,2.64,10.41,3.63,16.08,2.71,2.5.39,5,.41,7.51.13.76.5,1.58.26,2.39.22.33-.02.73-.12.46-.55-.15-.23-.54-.29-.82-.43-.18-.13-.37-.26-.55-.39-.26-.1-.53-.19-.79-.29-.29-.14-.57-.27-.86-.41-.37-.4-.77-.73-1.35-.72-3.99-1.88-8-3.73-11.97-5.65-4.77-2.31-9.5-4.69-14.27-7.01-4.8-2.34-9.55-4.79-14.44-6.91-5.96-2.58-11.78-5.51-17.54-8.41-7.11-3.58-14.33-6.98-21.46-10.54-8.46-4.22-16.79-8.74-25.66-12.12-.2-.26-.35-.63-.61-.75-3.8-1.81-7.61-3.59-11.42-5.36-1.25-.58-2.13-1.49-2.73-2.73-3.56-7.38-6.98-14.83-10.68-22.15-4.67-9.25-8.99-18.68-13.5-28-2.11-4.37-4.6-8.58-6.44-13.05-2.48-6.05-6-11.58-8.44-17.65-1.25-3.12-3.24-5.98-4.59-9.11-.22-.61-.38-1.24-.65-1.82-2.44-5.05-4.76-10.17-7.41-15.11-1.69-3.16-2.57-6.73-4.91-9.55-.57-1.45-1.15-2.91-1.72-4.36.14-.64-.37-.87-.73-1.2-.12-.37-.24-.85-.75-.6-.3.15-.21.54-.02.82ZM47.39,231.07c-.37.12-.85.24-.6.75.15.3.54.21.82.02.41.08.79.12.9-.42,3.67.1,7.33.36,10.99-.12,6.94,1.68,12.6-1.87,18.24-4.81,6.64-3.47,13.42-6.66,20.2-9.8,6.88-3.19,13.48-6.91,20.41-10,6.77-3.02,13.34-6.5,20.02-9.71,4.35-2.09,8.89-3.83,13.09-6.18,6.58-3.68,13.63-6.37,20.23-10,3.39-1.86,7.57-2.72,8.14-7.56,2.18-4.37,4.4-8.73,6.54-13.13,4.92-10.07,9.79-20.16,14.69-30.24,5.39-11.09,10.8-22.17,16.18-33.26,3.63-7.47,7.37-14.88,10.81-22.44,1.46-3.2,3.87-6.03,3.61-10.02-.31-4.71-.02-9.47-.02-14.21,0-.7.27-1.51-.49-2.05-.94.22-.95,1.14-1.25,1.75-2.6,5.31-5.1,10.67-7.7,15.98-1.66,3.39-3.67,6.61-4.96,10.19-.62.36-1.12.79-.83,1.62-.09.26-.18.53-.27.79-.63.18-.87.59-.68,1.22-.1.26-.2.52-.3.78-1.39,1.28-1.8,3.14-2.77,4.68-1.8,3.87-3.46,7.79-5.38,11.62-6.71,13.35-13.12,26.84-19.62,40.29-4.55,9.41-9,18.86-13.62,28.23-1.57,3.18-2.65,6.91-6.8,7.96-.62.16-1.2.48-1.77.77-7.62,3.76-15.12,7.82-22.91,11.19-6.14,2.66-11.88,6.08-18.02,8.71-4.8,2.05-9.25,4.89-14.03,6.98-8.56,3.75-16.77,8.21-25.24,12.13-2.53.46-4.67,1.72-6.68,3.25-.26.09-.53.18-.79.27-.85-.33-1.26.2-1.62.83-2.15.75-4.04,2.03-6.06,3.02-7.05,3.47-14.17,6.8-21.26,10.19-.7-.25-1.09,0-1.2.73Zm39.51,34.62c.48.69,1.18.95,1.99.98,2.52,1.55,5.33,2.48,7.96,3.83,9.09,4.66,18.39,8.91,27.59,13.36,3.81,1.84,7.55,3.83,11.37,5.67,5.98,2.88,12.01,5.66,17.99,8.54,3.7,1.78,7.42,3.53,11,5.52,2.19,1.22,5.17,1.47,6.45,3.78,2.73,4.91,5.13,10.01,7.59,15.07,3.72,7.68,7.35,15.41,11.05,23.09,3.11,6.45,6.29,12.86,9.42,19.31,3.83,7.9,7.62,15.81,11.43,23.71,0,.43-.04.86.56.93.15.36.29.72.44,1.07.66,2.43,1.87,4.58,3.43,6.54.1.26.2.52.3.78-.18.64.05,1.04.68,1.22.09.26.18.53.27.79-.29.83.21,1.25.83,1.62,3.86,8.02,7.66,16.06,11.63,24.02.72,1.45.74,3.41,2.55,4.23-.15.31-.18.64.12.85.08.05.48-.14.49-.24.03-.39-.28-.52-.61-.58.36-6.39.14-12.78.07-19.17,0-.78-.44-1.59-.81-2.32-1.36-2.68-2.85-5.29-4.15-8-3.94-8.2-7.75-16.47-11.73-24.65-6.42-13.2-13-26.33-19.38-39.55-5.16-10.69-10.06-21.51-15.6-32.02-.64-1.72-.82-4.23-2.45-4.81-4.6-1.64-8.55-4.5-12.99-6.33-7.49-3.08-14.46-7.24-21.92-10.38-4.06-1.71-7.8-4.2-11.86-5.9-6.75-2.82-13.16-6.33-19.74-9.48-5.93-2.84-11.85-5.72-17.77-8.59-5.01-2.43-9.91-5.11-15-7.36-2.71-1.19-5.15-3.02-8.13-3.59-.5-.7-.94-1.51-2.02-1.37-2.79-.8-5.61-.58-8.44-.26-3.96-.46-7.92-.2-11.89,0-.06-.33-.18-.65-.57-.62-.1,0-.3.41-.25.48.21.3.53.28.85.13.05.71.59.84,1.14,1.09,4.6,2.16,9.15,4.4,13.75,6.55,4.5,2.1,8.69,4.82,13.37,6.54.36.63.77,1.16,1.62.83.26.09.53.18.79.27,2.61,1.95,5.51,3.32,8.57,4.38h.01Zm294.64-32.32c-.28-.08-.56-.17-.84-.25-.19-.56-.49-.93-1.16-.71-.29-.09-.58-.17-.86-.26-.16-.59-.46-.96-1.14-.71-.3-.09-.59-.17-.89-.26-.13-.62-.42-.98-1.11-.71-9.17-4.37-18.36-8.7-27.5-13.11-13.16-6.35-26.3-12.77-39.44-19.16-5.83-2.83-11.66-5.66-17.5-8.49-1.06-.51-2.16-1.09-2.67-2.14-3.3-6.73-6.52-13.5-9.77-20.26-.28-.96-.12-2.15-1.39-2.57-.09-.29-.17-.58-.26-.88.24-.68-.1-1-.72-1.14-.08-.29-.16-.58-.24-.86.21-.67-.15-.99-.73-1.16-1.2-2.41-2.51-4.77-3.58-7.23-1.62-3.74-3.85-7.2-5.12-11.11.14-.64-.21-.97-.75-1.18-.08-.28-.15-.55-.23-.83.12-.63-.23-.96-.75-1.19-.08-.27-.16-.54-.24-.81.11-.62-.25-.95-.74-1.2-.09-.27-.17-.53-.26-.8.12-.62-.23-.96-.72-1.21-.09-.26-.18-.53-.27-.79.13-.72-.36-.91-.89-1.06-3.8-8.99-8.48-17.56-12.57-26.41-.73-1.37-1.62-2.67-2.15-4.11-1.94-5.28-4.94-10.04-7.3-15.1-.24-.52-.12-1.73-1.19-1.58-.71.1-.86.96-1.15,1.54-2.7,5.52-5.4,11.03-8.06,16.57-4.25,8.84-8.42,17.72-12.7,26.54-5.22,10.73-10.56,21.4-15.77,32.14-3.24,6.69-6.22,13.5-9.57,20.13-1.11,2.19-1.5,4.95-4.16,6.23-8.86,4.27-17.66,8.65-26.51,12.94-12.13,5.89-24.23,11.84-36.43,17.57-7.39,3.47-14.5,7.52-22.04,10.7-5.07,2.14-9.9,4.85-14.86,7.26-1.78.87-1.37,1.51.11,2.17,2.77,1.24,5.48,2.59,8.25,3.84,11.55,5.21,22.71,11.25,34.2,16.63,13.54,6.34,27.04,12.82,40.36,19.66,5.47,2.81,10.96,5.68,16.68,8.03,1.16.48,1.9,1.17,2.44,2.29,2.59,5.35,5.12,10.73,7.66,16.11,4.59,9.72,9.49,19.29,14.22,28.94,2.75,5.62,5.26,11.37,8.14,16.92,4.38,8.44,8.15,17.17,12.36,25.69,1.97,3.98,3.93,7.97,5.81,12,.92,1.98,1.44,1.44,2.16-.12.96-2.08,2.1-4.08,3.11-6.14,2.15-4.41,4.26-8.85,6.39-13.27,3.49-7.08,7.18-14.06,10.42-21.26,4.95-10.99,10.63-21.62,15.7-32.55.58-.17.94-.49.73-1.16.08-.29.16-.57.24-.86.62-.14.95-.47.72-1.15.09-.29.17-.58.26-.87,1.25-.45,1.13-1.61,1.36-2.59.05-.24.04-.51.14-.73,3.14-6.38,6.28-12.75,9.43-19.12.38-.77.95-1.26,1.75-1.65,7.23-3.53,14.44-7.11,21.66-10.67.68.25,1.01-.07,1.13-.71.29-.09.58-.17.87-.26.67.22,1-.1,1.15-.72.29-.08.57-.16.86-.24.67.2.99-.15,1.16-.73,6.92-2.62,13.29-6.41,20-9.49,8.41-3.86,16.65-8.09,24.95-12.18,9.78-4.82,19.8-9.14,29.37-14.39.25-.11.68-.18.73-.35.13-.5-.3-.59-.69-.63-.79-.37-1.58-.75-2.37-1.12-.24-.51-.58-.86-1.21-.7-1.18.14-1.82-1.14-2.95-1.14-.4-1.64-1.8-1.61-3.06-1.83ZM231.55,47.38c.2-.1.44-.16.44-.21-.01-.18-.11-.36-.17-.53-.13.06-.35.1-.36.17-.02.18.05.37.09.57Z"/><path class="cls-2" d="m180.34,358.53c1.49,1.57,2.2,3.54,2.87,5.54-1.58-1.53-2.4-3.44-2.87-5.54Z"/><path class="cls-2" d="m294.21,364.01c.89-1.65,1.29-3.57,2.66-4.96-.3,1.97-.89,3.78-2.66,4.96Z"/><path class="cls-2" d="m297.25,358.04c0-.4-.24-.9.42-1.03.88.75.25.9-.42,1.03Z"/><path class="cls-2" d="m293.79,364.54c-.07-.35.03-.55.42-.53-.14.18-.28.35-.42.53Z"/><path class="cls-6" d="m266.61,142.34c1.27,3.9,3.5,7.36,5.12,11.11,1.07,2.46,2.38,4.82,3.58,7.23-.12.62.14.99.73,1.16.08.29.16.58.24.86-.1.59.16.96.72,1.14.09.29.17.58.26.88.27.96.14,2.14,1.39,2.57,3.25,6.76,6.47,13.53,9.77,20.26.52,1.05,1.61,1.63,2.67,2.14,5.83,2.82,11.67,5.65,17.5,8.49,13.15,6.39,26.28,12.81,39.44,19.16,9.15,4.42,18.33,8.75,27.5,13.11.19.52.55.77,1.11.71.3.09.59.17.89.26.18.56.55.81,1.14.71.29.09.58.17.86.26.16.6.56.82,1.16.71.28.08.56.17.84.25.72,1.1,1.92,1.41,3.06,1.83,1.13,0,1.77,1.28,2.95,1.14.15.66.56.89,1.21.7.79.37,1.58.75,2.37,1.12-.01.33-.02.66-.03.99-9.57,5.24-19.59,9.56-29.37,14.39-8.3,4.1-16.55,8.32-24.95,12.18-6.71,3.08-13.07,6.88-20,9.49-.62-.13-1,.14-1.16.73-.29.08-.57.16-.86.24-.6-.1-.97.16-1.15.72-.29.09-.58.17-.87.26-.57-.08-.94.18-1.13.71-7.22,3.56-14.43,7.14-21.66,10.67-.79.39-1.37.89-1.75,1.65-3.15,6.37-6.29,12.74-9.43,19.12-.11.21-.1.48-.14.73-1.21.47-1.11,1.62-1.36,2.59-.09.29-.17.58-.26.87-.56.18-.83.55-.72,1.15-.08.29-.16.57-.24.86-.6.17-.86.54-.73,1.16-5.08,10.93-10.75,21.56-15.7,32.55-3.24,7.19-6.93,14.18-10.42,21.26-2.07-.84-2.43-2.84-3.11-4.62.02-24.55.04-49.1.09-73.65,0-2.08-1.1-2.85-2.93-2.88-2.66-.06-5.33-.04-7.99-.02-3.57.03-3.84.3-3.84,3.83-.01,13.65-.02,27.3-.03,40.95-.67.26-.89.03-1.22-.65-2-4.14-4.03-8.24-5.88-12.46-3.41-7.77-7.31-15.32-11.07-22.93-.93-1.88-1.63-3.84-3.87-4.91-12.49-5.93-24.91-12-37.35-18.02-12.6-6.1-25.17-12.27-37.83-18.23-4.97-2.34-9.71-5.16-14.93-7.04-2.06-.74-4.7-1.24-5.81-3.74,22.35-.1,44.7-.21,67.06-.31.66,0,1.33-.03,1.99,0,1.38.07,1.95-.54,1.91-1.93-.06-1.99-.01-3.99-.01-5.98q0-6.56-6.62-6.56c-21.44-.01-42.89-.03-64.33-.04,1.37-2.13,3.79-2.91,5.83-3.77,8.12-3.44,15.92-7.54,23.87-11.32,14.04-6.67,27.99-13.53,41.98-20.28,6.16-2.97,12.43-5.72,18.47-8.92,3.48-1.85,7.57-2.7,9.54-7.17,4.46-10.17,9.41-20.13,14.38-30.07,1.04-2.08,1.3-4.87,3.94-5.96,0,5.81-.02,11.63,0,17.44,0,2.92.44,3.37,3.27,3.39,2.91.02,5.82-.12,8.72.04,2.19.12,2.75-.95,2.75-2.82-.03-16.78-.05-33.56-.08-50.34.5-1.9,1.63-3.38,3.11-4.62,4.09,8.85,8.77,17.42,12.57,26.41-.04.64.29.97.89,1.06.09.26.18.53.27.79-.21.68.03,1.08.73,1.21.09.27.17.53.26.8-.2.68.05,1.08.74,1.2.08.27.16.54.24.81-.18.67.07,1.06.75,1.19.08.28.15.55.23.83-.15.65.09,1.05.75,1.18Zm34.77,102.76c.16-.36.16-.71-.1-1.04.33-3.79.6-7.58-.16-11.35-.17-1.01.57-2.14-.41-3.04-.37-2-.74-4-1.11-6,.02-3.72-1.07-7.06-3.39-9.98-.25-.51-.5-1.02-.75-1.53.15-.14.45-.31.42-.42-.08-.39-.46-.36-.77-.38-.5-1.03-1.01-2.06-1.51-3.09-.29-1.23-.3-2.62-1.83-3.12h0c-.66-2.02-1.64-3.81-3.53-4.97-.24-.29-.48-.58-.72-.87.16-.72-.16-1.02-.86-1.03-.26-.27-.52-.53-.77-.8-1.22-1.11-1.75-.47-2.04.8l-.04.03c-1.22.02-1.77.82-2.12,1.84-1.76,1.55-3.47,3.17-5.31,4.63-1.1.87-1.09,1.8-.67,2.92-4.32-1.32-8.73-1.15-13.16-.79-2.42-1.25-4.85-2.51-7.27-3.76-.22-.75-.29-1.74-1.51-1.04-.31-.06-.61-.11-.92-.17-.22-.58-.61-.81-1.22-.63-.6-.11-1.19-.21-1.79-.32-.28-.86-.94-.87-1.66-.73-6.27-.87-12.55-.99-18.82,0-.72-.15-1.38-.14-1.66.73-.6.11-1.19.21-1.79.32-.61-.19-1,.05-1.22.62-.31.06-.61.11-.92.17-1.16-.73-1.27.26-1.55.95-5.28,2.65-10.02,5.91-13.8,10.63-4.17,5.2-7.4,10.7-8.29,17.4-1.47,1.01-.67,2.43-.67,3.71,0,2.41-.02,4.82-.03,7.23-.11,1.24-.65,2.52.43,3.62-.23,1.04.23,1.93.6,2.84-.22.64-.01,1.05.64,1.23.05.31.11.61.16.92-.67,1.05.04,1.57.79,2.09.06.31.11.61.17.92-.64.74-.08.89.51,1.03-.01.84.73,1.26,1.05,1.92,2.26,4.62,5.44,8.45,9.36,11.83,2.84,2.45,5.95,4.35,9.15,6.2.37.51.65,1.26,1.49.57.31.06.61.11.92.17.22.58.61.81,1.22.62.6.11,1.19.21,1.79.32.28.86.94.87,1.66.73,1.02.34,2.05.49,3.12.63,4.12.51,8.21-.15,12.31-.04,1.19.03,2.29-.18,3.38-.59.72.14,1.38.13,1.66-.73.6-.11,1.19-.21,1.79-.32.61.19,1-.05,1.22-.63.31-.06.61-.11.92-.17.71.64.88.1,1.04-.47,2.58-1.44,5.16-2.89,7.74-4.33.9.06,1.81.08,2.7.2,3.73.5,7.31-.67,10.97-.98,3.17,2.6,6.38,5.16,9.5,7.81,1.1.94,1.65.81,2.53-.34,2.34-3.05,4.31-6.3,6.01-9.73,3.18-6.39,5.48-13.06,6.48-20.15,1.16-.43.85-1.28.61-2.11Zm-30.72-46.52c1.25-.34,1.79-1.25,1.95-2.45.23-.28.47-.57.7-.85.82-.25,1.4-.68,1.3-1.65.23-.29.45-.57.68-.86.64-.11.96-.44.83-1.12,1.7-1.45,1.73-2.39-.38-3.76-3.23-2.1-6.74-3.68-9.96-5.8-.9-.59-1.74-.64-2.2.83-.48,1.54-1.27,3-2.08,4.41-3.58,6.29-3.46,6.77,3.08,10.07.4,1.35,1.7,1.73,2.67,2.46,1.77,1.34,2.85.83,3.37-1.23l.03-.05Zm-22.07-7.63c1.23,1.39,1.44,1.41,2.11.21.08-.1.15-.2.2-.32.9-.46,1.68-.97.82-2.12.07-.45.14-.91.21-1.36.85-.7,1.62-1.43.79-2.63.05-.3.09-.61.14-.91.92-.65,1.42-1.44.82-2.58.09-.5.17-1,.26-1.5.97-1.65-.17-2.3-1.42-2.56-3.9-.79-7.78-2.02-11.85-1.2-1.39-.27-1.95.25-1.92,1.7.07,3.55.06,7.1,0,10.64-.02,1.25.35,1.77,1.67,1.78,1.73,0,3.45.22,5.18.34.28.54.61.88,1.18.31.61.06,1.21.13,1.82.19Zm65.27,40.39c-.88-.2-1.2.14-.97,1.01,0,4.21,0,8.42,0,12.62-.22.87.1,1.2.98,1.01,16.62,0,33.24.27,49.87-.2,1.73-.05,2.4-.74,2.38-2.39-.03-2.41,0-4.82,0-7.23q0-4.61-4.6-4.87c-.17,0-.33,0-.5,0-15.71.02-31.43.03-47.14.05Z"/><path class="cls-5" d="m231.42,143.76c-2.65,1.09-2.9,3.88-3.94,5.96-4.97,9.94-9.91,19.9-14.38,30.07-1.96,4.47-6.05,5.32-9.54,7.17-6.03,3.21-12.31,5.95-18.47,8.92-14,6.76-27.95,13.61-41.98,20.28-7.95,3.78-15.75,7.88-23.87,11.32-2.04.86-4.46,1.64-5.83,3.77-.47.74-1.9.12-1.98,1.41-3.55-.09-6.41,1.87-9.37,3.35-1.52.76-4.21.97-4.22,2.72,0,1.46,2.63,1.83,4.11,2.54,3.07,1.46,5.96,3.44,9.45,3.88.67.31,1.33.62,2,.92,1.11,2.5,3.75,3,5.81,3.74,5.23,1.88,9.96,4.7,14.93,7.04,12.66,5.97,25.23,12.14,37.83,18.23,12.44,6.02,24.86,12.1,37.35,18.02,2.24,1.06,2.94,3.03,3.87,4.91,3.76,7.61,7.67,15.16,11.07,22.93,1.85,4.22,3.89,8.32,5.88,12.46.33.68.55.91,1.22.65.36.29.42.69.38,1.12-.95,9.58-.16,19.18-.43,28.77-.04,1.49.62,2.09,2.08,2.06,4.22-.08,8.44-.12,12.66-.17.68,1.78,1.04,3.77,3.11,4.62-2.13,4.42-4.24,8.86-6.39,13.27-1,2.06-2.14,4.06-3.11,6.14-.72,1.55-1.23,2.1-2.16.12-1.88-4.03-3.84-8.02-5.81-12-4.21-8.52-7.98-17.25-12.36-25.69-2.88-5.55-5.39-11.3-8.14-16.92-4.72-9.66-9.63-19.22-14.22-28.94-2.54-5.38-5.07-10.76-7.66-16.11-.54-1.12-1.28-1.81-2.44-2.29-5.72-2.34-11.2-5.21-16.68-8.03-13.32-6.84-26.81-13.32-40.36-19.66-11.49-5.38-22.64-11.41-34.2-16.63-2.77-1.25-5.48-2.6-8.25-3.84-1.48-.66-1.89-1.31-.11-2.17,4.96-2.42,9.79-5.12,14.86-7.26,7.54-3.18,14.65-7.23,22.04-10.7,12.2-5.73,24.3-11.68,36.43-17.57,8.84-4.29,17.65-8.67,26.51-12.94,2.66-1.28,3.05-4.04,4.16-6.23,3.35-6.63,6.33-13.45,9.57-20.13,5.21-10.74,10.55-21.41,15.77-32.14,4.29-8.82,8.46-17.7,12.7-26.54,2.66-5.54,5.36-11.06,8.06-16.57.28-.58.43-1.44,1.15-1.54,1.07-.15.95,1.05,1.19,1.58,2.36,5.07,5.36,9.83,7.3,15.1.53,1.44,1.42,2.74,2.15,4.11-1.49,1.24-2.61,2.72-3.11,4.62-4.31-.05-8.63-.06-12.94-.18-1.71-.05-1.82.91-1.81,2.22.03,8.64.05,17.27-.02,25.91-.01,1.45,1.14,2.86.12,4.32Z"/><path class="cls-2" d="m231.43,429.78c-1.81-.82-1.83-2.78-2.55-4.23-3.97-7.96-7.77-16.01-11.63-24.02.08-.72.03-1.38-.83-1.62-.09-.26-.18-.53-.27-.79.2-.64-.1-1.02-.68-1.22-.1-.26-.2-.52-.3-.78-.5-2.52-1.53-4.76-3.43-6.54-.15-.36-.29-.72-.44-1.07.78-.89-.09-.79-.56-.93-3.81-7.9-7.6-15.82-11.43-23.71-3.12-6.44-6.31-12.86-9.42-19.31-3.71-7.69-7.33-15.41-11.05-23.09-2.45-5.06-4.86-10.16-7.59-15.07-1.29-2.31-4.27-2.57-6.45-3.78-3.58-2-7.3-3.75-11-5.52-5.98-2.88-12.01-5.66-17.99-8.54-3.81-1.84-7.56-3.83-11.37-5.67-9.2-4.45-18.5-8.71-27.59-13.36-2.63-1.35-5.45-2.27-7.96-3.83-.17-1.32-1.2-.92-1.99-.98,0,0-.01-.01-.01-.01-2.42-2.32-5.45-3.44-8.57-4.38-.26-.09-.53-.18-.79-.27-.24-.86-.89-.91-1.62-.83-4.68-1.72-8.87-4.44-13.37-6.54-4.6-2.15-9.16-4.39-13.75-6.55-.54-.26-1.09-.38-1.14-1.09,0,0-.03,0-.03,0,3.96-.2,7.92-.46,11.89,0,0,.66.32.95.96,1.23,3.21,1.43,6.41,2.9,9.56,4.45,9.65,4.76,19.24,9.66,28.94,14.34,16.28,7.87,32.65,15.57,48.94,23.42,9.93,4.79,19.79,9.7,29.64,14.64.9.45,1.53.4,2.29-.01,5.54,10.51,10.44,21.33,15.6,32.02,6.38,13.22,12.96,26.35,19.38,39.55,3.98,8.18,7.79,16.45,11.73,24.65,1.3,2.71,2.79,5.32,4.15,8,.37.73.8,1.54.81,2.32.07,6.39.3,12.78-.07,19.17,0,0,0-.03,0-.03Z"/><path class="cls-2" d="m48.59,230.34c7.09-3.39,14.21-6.72,21.26-10.19,2.02-1,3.91-2.27,6.06-3.02.72.08,1.38.03,1.62-.83.26-.09.53-.18.79-.27,2.52-.48,4.72-1.61,6.68-3.25,8.47-3.92,16.68-8.38,25.24-12.13,4.78-2.1,9.24-4.93,14.03-6.98,6.15-2.63,11.88-6.05,18.02-8.71,7.79-3.37,15.28-7.43,22.91-11.19.58-.29,1.16-.61,1.77-.77,4.16-1.05,5.24-4.78,6.8-7.96,4.62-9.37,9.07-18.82,13.62-28.23,6.5-13.45,12.91-26.94,19.62-40.29,1.92-3.83,3.59-7.75,5.38-11.62,2.11-.85,2.32-2.84,2.77-4.68.1-.26.2-.52.3-.78.59-.21.88-.58.68-1.22.09-.26.18-.53.27-.79.86-.24.91-.89.83-1.62,1.29-3.57,3.3-6.79,4.96-10.19,2.6-5.31,5.1-10.67,7.7-15.98.3-.61.31-1.53,1.25-1.75.76.54.49,1.35.49,2.05,0,4.74-.3,9.49.02,14.21.27,4-2.15,6.82-3.61,10.02-3.44,7.55-7.18,14.97-10.81,22.44-5.39,11.09-10.79,22.17-16.18,33.26-4.9,10.08-9.78,20.17-14.69,30.24-2.14,4.39-4.36,8.75-6.54,13.13-.87-.54-1.56-.34-2.5.13-6.7,3.35-13.45,6.6-20.2,9.85-14.37,6.92-28.77,13.8-43.13,20.75-8.3,4.02-16.55,8.16-24.83,12.21-9.48,4.63-18.97,9.24-28.47,13.82-.63.3-1.26.44-1.2,1.3-3.66.48-7.33.22-10.99.12.02-.36.05-.72.07-1.08Z"/><path class="cls-2" d="m311.7,183.77c-.35-.16-.7-.32-1.05-.48-1.8-1.89-4.05-2.9-6.57-3.4-2.38-.85-4.91-1.52-5.46-4.56-.1-.49-.13-1.02-.76-1.17-.1-.26-.2-.52-.3-.78-.51-2.51-1.48-4.78-3.42-6.54-.15-.36-.3-.72-.46-1.08.81-.87-.07-.79-.53-.93-2.25-5.52-5.26-10.66-7.86-16-4.36-8.95-8.44-18.04-12.96-26.92-3.88-7.65-7.43-15.47-11.15-23.2-1.59-3.3-3.22-6.58-4.84-9.87,1.55-.32,1.88-1.7,2.42-2.85,1.04-2.2,2.03-4.43,3.03-6.64,1.36,3.13,3.34,5.99,4.59,9.11,2.44,6.08,5.96,11.6,8.44,17.65,1.83,4.48,4.32,8.69,6.44,13.05,4.51,9.33,8.83,18.76,13.5,28,3.7,7.32,7.12,14.77,10.68,22.15.6,1.24,1.48,2.15,2.73,2.73,3.81,1.77,7.62,3.56,11.42,5.36.26.13.41.5.61.75.57,2.22.94,4.67,3.34,5.72,5.72,2.53,11.23,5.48,16.88,8.15,10.4,4.91,20.7,10.04,31.09,14.98,15.31,7.29,30.5,14.82,45.72,22.29.89.44,2.21.51,2.34,1.93-5.67.92-10.89-.07-16.08-2.71-9.49-4.83-19.11-9.4-28.73-13.98-6.69-3.18-13.4-6.38-19.97-9.83-6.95-3.66-14.21-6.72-21.29-10.15-5.25-2.54-10.41-5.27-15.63-7.88-1.71-.86-3.48-1.59-5.23-2.38-.17-.44-.1-1.33-.95-.51Z"/><path class="cls-2" d="m308.75,295.18c7.62-3.75,15.24-7.52,22.87-11.25,10.06-4.92,20.12-9.84,30.2-14.71,7.27-3.51,14.59-6.91,21.86-10.42,7.36-3.55,14.83-6.9,21.98-10.83,4.56-2.51,9.15-2.25,13.91-1.86-.2,1.5-1.61,1.55-2.57,2.03-3.46,1.69-7.01,3.18-10.46,4.89-8.11,4.02-16.22,8.06-24.4,11.95-12.8,6.08-25.49,12.42-38.23,18.62-6.66,3.24-13.36,6.41-20.02,9.65-2.39,1.17-3.76,3.84-3.15,5.87-3.32,2.12-6.81,3.94-10.43,5.43-2.6,1.08-4.48,2.47-5.74,5.17-5.81,12.44-11.78,24.82-17.86,37.14-3.92,7.95-7.73,15.96-11.66,23.91-2.5,5.06-5.38,9.96-7.44,15.21-1.64,4.18-4.39,7.77-5.81,12.02-1.01-2.22-2-4.44-3.04-6.65-.55-1.15-.87-2.54-2.42-2.86,1.87-3.79,3.75-7.57,5.59-11.37,5.1-10.48,10.24-20.93,15.26-31.45,4.22-8.84,8.23-17.79,12.95-26.39,1.19-2.16,2.02-4.5,3.02-6.76.45-.17,1.32-.11.51-.95.16-.35.32-.7.48-1.05,1.95-1.92,3.03-4.29,3.56-6.93.74-3.12,2.74-5.01,5.76-5.9,2.07-.18,3.74-1.18,5.26-2.51Z"/><path class="cls-3" d="m59.5,231.3c-.06-.86.57-1,1.2-1.3,9.5-4.58,19-9.18,28.47-13.82,8.29-4.05,16.53-8.19,24.83-12.21,14.36-6.95,28.75-13.83,43.13-20.75,6.75-3.25,13.5-6.5,20.2-9.85.94-.47,1.63-.67,2.5-.13-.57,4.84-4.75,5.7-8.14,7.56-6.6,3.63-13.65,6.32-20.23,10-4.2,2.35-8.74,4.08-13.09,6.18-6.68,3.22-13.25,6.69-20.02,9.71-6.93,3.09-13.53,6.82-20.41,10-6.78,3.14-13.56,6.33-20.2,9.8-5.64,2.95-11.3,6.49-18.24,4.81Z"/><path class="cls-3" d="m179.83,304.09c-.76.41-1.39.46-2.29.01-9.85-4.93-19.71-9.85-29.64-14.64-16.29-7.85-32.65-15.55-48.94-23.42-9.69-4.68-19.28-9.58-28.94-14.34-3.15-1.56-6.35-3.03-9.56-4.45-.63-.28-.96-.57-.96-1.23,2.83-.32,5.65-.53,8.44.26.26,1.06,1.12,1.24,2.02,1.37,2.98.57,5.42,2.4,8.13,3.59,5.09,2.24,9.99,4.93,15,7.36,5.92,2.87,11.84,5.75,17.77,8.59,6.58,3.15,12.99,6.66,19.74,9.48,4.07,1.7,7.8,4.18,11.86,5.9,7.46,3.15,14.42,7.31,21.92,10.38,4.45,1.83,8.39,4.69,12.99,6.33,1.63.58,1.81,3.08,2.45,4.81Z"/><path class="cls-3" d="m320.75,299.13c-.62-2.02.75-4.7,3.15-5.87,6.66-3.24,13.36-6.41,20.02-9.65,12.75-6.2,25.43-12.54,38.23-18.62,8.18-3.89,16.28-7.93,24.4-11.95,3.45-1.71,7-3.2,10.46-4.89.96-.47,2.38-.52,2.57-2.03,2.5-.39,5-.41,7.5-.13.24.59.27,1.19,0,1.78,0,0-.18.06-.18.06-.7-.23-1.23-.14-1.35.72-5.27,2.53-10.67,4.82-15.78,7.64-7.2,3.97-14.74,7.23-22.11,10.82-7.49,3.64-15.08,7.14-22.53,10.84-7.49,3.72-15.03,7.4-22.55,11.02-7.23,3.49-14.16,7.7-21.84,10.25Z"/><path class="cls-3" d="m419.59,231.21c-.13-1.42-1.45-1.49-2.34-1.93-15.22-7.47-30.41-15-45.72-22.29-10.39-4.94-20.69-10.07-31.09-14.98-5.65-2.67-11.16-5.62-16.88-8.15-2.39-1.06-2.76-3.5-3.34-5.72,8.86,3.38,17.2,7.9,25.66,12.12,7.13,3.55,14.34,6.96,21.46,10.54,5.76,2.9,11.58,5.83,17.54,8.41,4.89,2.12,9.64,4.57,14.44,6.91,4.76,2.32,9.5,4.7,14.27,7.01,3.97,1.92,7.98,3.77,11.97,5.65.12.86.65.95,1.35.72.29.14.57.27.86.41-.23.48-.45.96-.68,1.44-2.51.29-5.01.27-7.51-.13Z"/><path class="cls-3" d="m261.81,79.33c-1.01,2.22-1.99,4.44-3.03,6.64-.55,1.15-.87,2.54-2.42,2.85-2.39-5.45-5.09-10.77-7.82-16.03-2.88-5.55-2.82-11.11-2.3-16.92,1.73-.27,1.6-2.13,2.6-3.02,2.34,2.82,3.22,6.39,4.91,9.55,2.65,4.94,4.97,10.06,7.41,15.11.28.58.44,1.21.65,1.82Z"/><path class="cls-3" d="m256.35,388.51c1.55.32,1.88,1.7,2.42,2.86,1.05,2.2,2.03,4.43,3.04,6.65-4.14,8.68-8.27,17.35-12.42,26.02-.09.2-.36.31-.55.46-1.04-.87-.89-2.76-2.62-3.04-1.24-7.21.4-13.74,3.81-20.19,2.21-4.18,4.62-8.3,6.31-12.76Z"/><path class="cls-2" d="m246.23,421.46c1.73.28,1.57,2.17,2.62,3.04l-1.74,4.34c-.36.03-.72.05-1.08.08-.15-2.49-.22-4.99.21-7.46Z"/><path class="cls-2" d="m248.83,52.85c-1,.89-.87,2.75-2.6,3.02-.44-2.48-.31-4.97-.21-7.46.36.03.72.05,1.08.08l1.72,4.36Z"/><path class="cls-6" d="m78.32,261.3c3.12.95,6.15,2.07,8.57,4.38-3.06-1.06-5.96-2.44-8.57-4.38Z"/><path class="cls-6" d="m297.73,303.59c-.53,2.65-1.61,5.01-3.56,6.93.66-2.58,1.99-4.82,3.56-6.93Z"/><path class="cls-6" d="m211.74,390.57c1.9,1.78,2.93,4.02,3.43,6.54-1.56-1.96-2.77-4.11-3.43-6.54Z"/><path class="cls-6" d="m294.14,166.83c1.94,1.76,2.91,4.03,3.42,6.54-1.54-1.97-2.77-4.11-3.42-6.54Z"/><path class="cls-6" d="m304.08,179.89c2.52.5,4.77,1.51,6.57,3.4-2.48-.57-4.58-1.88-6.57-3.4Z"/><path class="cls-6" d="m85,212.78c-1.96,1.64-4.16,2.77-6.68,3.25,2.01-1.53,4.15-2.79,6.68-3.25Z"/><path class="cls-6" d="m308.75,295.18c-1.52,1.32-3.2,2.32-5.26,2.51,1.58-1.2,3.22-2.29,5.26-2.51Z"/><path class="cls-6" d="m215.17,80.22c-.45,1.84-.66,3.82-2.77,4.68.96-1.53,1.38-3.39,2.77-4.68Z"/><path class="cls-2" d="m427.09,247.78c.26-.59.24-1.19,0-1.78.92-.45,1.82-.4,2.9.06-.8,1.09-1.78,1.52-2.9,1.73Z"/><path class="cls-2" d="m427.09,231.34c.23-.48.45-.96.68-1.44.26.1.53.19.79.29.03.35.16.54.55.39.28.14.68.2.82.43.28.43-.13.54-.46.55-.8.04-1.63.28-2.39-.22Z"/><path class="cls-5" d="m384.6,235.19c-1.13-.42-2.33-.72-3.06-1.83,1.26.21,2.65.19,3.06,1.83Z"/><path class="cls-5" d="m277.27,312.62c.25-.97.15-2.13,1.36-2.59-.23.98-.11,2.15-1.36,2.59Z"/><path class="cls-5" d="m278.65,167.3c-1.25-.44-1.12-1.61-1.39-2.57,1.27.43,1.11,1.62,1.39,2.57Z"/><path class="cls-2" d="m69.96,247.66c-.9-.12-1.76-.3-2.02-1.37,1.08-.14,1.51.66,2.02,1.37Z"/><path class="cls-6" d="m247.1,48.49c-.36-.03-.72-.05-1.08-.08-.54-.11-.5-.5-.42-.9.26-.07.51-.15.77-.22.36.33.88.57.73,1.2Z"/><path class="cls-6" d="m246.03,428.92c.36-.03.72-.05,1.08-.08.14.64-.37.88-.73,1.21-.26-.07-.51-.15-.77-.22-.08-.4-.12-.79.42-.9Z"/><path class="cls-6" d="m86.9,265.7c.79.07,1.82-.34,1.99.98-.81-.04-1.51-.29-1.99-.98Z"/><path class="cls-6" d="m75.91,260.2c.72-.08,1.38-.03,1.62.83-.85.33-1.26-.2-1.62-.83Z"/><path class="cls-6" d="m77.52,216.3c-.24.86-.89.91-1.62.83.36-.63.77-1.16,1.62-.83Z"/><path class="cls-6" d="m217.25,75.81c.08.72.03,1.38-.83,1.62-.29-.83.21-1.25.83-1.62Z"/><path class="cls-6" d="m216.42,399.91c.86.24.91.89.83,1.62-.62-.36-1.12-.79-.83-1.62Z"/><path class="cls-6" d="m216.14,78.21c.2.65-.1,1.02-.68,1.22-.18-.64.05-1.04.68-1.22Z"/><path class="cls-5" d="m231.43,429.78s0,.03,0,.03c.33.06.64.19.61.58,0,.1-.41.3-.49.24-.3-.21-.27-.54-.12-.85Z"/><path class="cls-5" d="m391.1,239.14c.01-.33.02-.66.03-.99.39.05.82.13.69.63-.04.17-.47.24-.73.35Z"/><path class="cls-5" d="m388.76,237.03c-.65.19-1.05-.04-1.21-.7.63-.16.97.19,1.21.7Z"/><path class="cls-5" d="m262.66,134.34c-.61-.09-.93-.42-.89-1.06.54.15,1.03.34.89,1.06Z"/><path class="cls-2" d="m425.56,248.55c.12-.86.65-.94,1.35-.72-.37.4-.77.73-1.35.72Z"/><path class="cls-5" d="m380.7,233.11c-.6.11-1-.11-1.16-.71.67-.22.97.15,1.16.71Z"/><path class="cls-5" d="m378.68,232.14c-.59.09-.96-.15-1.14-.71.68-.25.98.12,1.14.71Z"/><path class="cls-5" d="m263.65,136.34c-.7-.13-.94-.53-.73-1.21.49.25.85.59.73,1.21Z"/><path class="cls-5" d="m376.65,231.16c-.56.06-.92-.19-1.11-.71.7-.27.99.09,1.11.71Z"/><path class="cls-2" d="m426.91,229.49c-.7.23-1.23.14-1.35-.72.58-.01.98.32,1.35.72Z"/><path class="cls-5" d="m315.62,275.93c.17-.6.54-.86,1.16-.73-.17.58-.49.94-1.16.73Z"/><path class="cls-5" d="m245.6,429.82c.26.07.51.15.77.22-.12.37-.24.85-.75.6-.3-.15-.21-.54-.02-.82Z"/><path class="cls-5" d="m313.61,276.89c.18-.56.55-.82,1.15-.72-.14.62-.47.95-1.15.72Z"/><path class="cls-5" d="m311.61,277.86c.2-.53.56-.78,1.13-.71-.12.64-.45.96-1.13.71Z"/><path class="cls-6" d="m311.7,183.77c.85-.82.78.07.95.51-.41,0-.87.09-.95-.51Z"/><path class="cls-5" d="m246.37,47.29c-.26.07-.52.15-.77.22-.19-.28-.28-.68.02-.82.51-.25.63.23.75.6Z"/><path class="cls-6" d="m297.87,174.15c.62.15.66.68.76,1.17-.78-.05-.98-.47-.76-1.17Z"/><path class="cls-6" d="m293.68,311.58c.82.84-.06.78-.51.95,0-.41-.1-.87.51-.95Z"/><path class="cls-5" d="m276.29,314.63c-.1-.6.16-.97.72-1.15.22.67-.11,1-.72,1.15Z"/><path class="cls-5" d="m275.32,316.66c-.13-.62.14-1,.73-1.16.2.67-.15.99-.73,1.16Z"/><path class="cls-5" d="m231.55,47.38c-.04-.21-.11-.4-.09-.57,0-.07.23-.12.36-.17.06.18.16.35.17.53,0,.05-.23.12-.44.21Z"/><path class="cls-6" d="m293.15,164.82c.46.15,1.34.06.53.93-.57-.09-.54-.52-.53-.93Z"/><path class="cls-5" d="m277,163.84c-.56-.18-.82-.55-.72-1.14.62.14.96.46.72,1.14Z"/><path class="cls-5" d="m264.65,138.33c-.69-.12-.95-.52-.74-1.2.49.25.85.58.74,1.2Z"/><path class="cls-6" d="m210.74,388.57c.46.14,1.33.04.56.93-.6-.06-.57-.5-.56-.93Z"/><path class="cls-5" d="m276.04,161.84c-.59-.17-.85-.54-.73-1.16.58.17.94.49.73,1.16Z"/><path class="cls-5" d="m266.61,142.34c-.66-.13-.91-.53-.75-1.18.54.21.89.53.75,1.18Z"/><path class="cls-6" d="m215.46,397.89c.59.21.88.58.68,1.22-.63-.18-.87-.59-.68-1.22Z"/><path class="cls-5" d="m265.63,140.34c-.68-.13-.93-.52-.75-1.19.51.23.87.56.75,1.19Z"/><path class="cls-5" d="m429.11,230.58c-.39.15-.52-.04-.55-.39.18.13.37.26.55.39Z"/><path class="cls-4" d="m200.48,248.5c-.37-.91-.84-1.8-.6-2.84.63-1.3.77-2.54-.43-3.62,0-2.41.02-4.82.03-7.23,1.34-1.04.74-2.42.67-3.71.89-6.69,4.12-12.2,8.29-17.4,3.78-4.72,8.52-7.98,13.8-10.63.73.03,1.27-.24,1.55-.95.31-.06.61-.11.92-.16.65.27,1.01-.04,1.22-.63.6-.11,1.19-.21,1.79-.32.76.24,1.38.14,1.66-.73,6.27-.99,12.55-.87,18.82,0,.28.87.9.96,1.66.73.6.11,1.19.21,1.79.32.21.59.57.89,1.22.63.31.06.61.11.92.17.3.64.74,1.08,1.51,1.04,2.42,1.25,4.85,2.51,7.27,3.76.3.39.52.87.9,1.17,6.36,5.12,10.48,11.69,12.83,19.46,2.14,7.08,2.95,14.1.41,21.32-1.98,5.63-4.45,10.87-8.29,15.53-1.81,2.19-4.16,3.76-5.85,6-2.58,1.44-5.16,2.89-7.74,4.33-.48-.14-.82.04-1.04.47-.31.06-.61.11-.92.16-.65-.27-1.01.04-1.22.63-.6.11-1.19.21-1.79.32-.76-.24-1.38-.14-1.66.73-1.09.41-2.19.62-3.38.59-4.1-.11-8.2.55-12.31.04-1.07-.13-2.11-.29-3.12-.63-.28-.86-.9-.96-1.66-.73-.6-.11-1.19-.21-1.79-.32-.21-.59-.57-.89-1.22-.63-.31-.06-.61-.11-.92-.17-.35-.57-.64-1.29-1.49-.57-3.2-1.85-6.31-3.75-9.15-6.2-3.92-3.38-7.09-7.21-9.36-11.83-.32-.66-1.07-1.08-1.05-1.92.09-.47-.06-.82-.51-1.03-.06-.31-.11-.61-.16-.92.26-.89-.16-1.53-.79-2.09-.05-.31-.11-.61-.16-.92.23-.64-.08-1.01-.65-1.23Zm14.32-2.84h0c0,.39-.17.84.39,1.02-.19,1.24.6,2.15,1.11,3.14,3.69,7.21,9.16,12.13,17.38,13.5,3.4,1.26,6.8,1.26,10.2,0,1.57.06,2.73-.95,4.08-1.48,7.78-3.05,12.77-8.53,14.81-16.66.25-.11.5-.21.31-.56.11-.29.21-.58.32-.87.71-.17.82-.54.35-1.09.06-.67.34-1.34,0-2.01.09-.13.15-.27.17-.42.41-2.26.89-4.52-.6-6.6-.74-.94-.65-2.14-1-3.2-3.1-9.34-9.94-13.87-17.53-15.79-1.51-1.69-8.46-2.09-11.12-.63-9.68,2.13-17.64,9.37-19.43,19.64-1.63,2.06-.89,4.37-.7,6.62.08.8.17,1.6.25,2.39-.47.55-.36.92.35,1.09.12.46.24.92.37,1.38-.21.33.02.44.28.54Z"/><path class="cls-4" d="m246.08,365.84c-4.22.05-8.44.09-12.66.17-1.46.03-2.13-.57-2.08-2.06.26-9.59-.52-19.19.43-28.77.04-.43-.02-.82-.38-1.12,0-13.65.02-27.3.03-40.95,0-3.53.27-3.8,3.84-3.83,2.66-.02,5.33-.04,7.99.02,1.82.04,2.93.81,2.93,2.88-.05,24.55-.07,49.1-.09,73.65Z"/><path class="cls-1" d="m285.9,197.5c.26.27.52.53.77.8.02.56.32.89.86,1.03.24.29.48.58.72.87.81,1.92,1.72,3.77,3.53,4.97,0,0,0,0,0,0,.18,1.29.57,2.46,1.83,3.12.5,1.03,1.01,2.06,1.51,3.09-.02.33-.04.65.35.8.25.51.5,1.02.75,1.53,1.13,3.33,2.26,6.65,3.39,9.98.37,2,.74,4,1.11,6-.6,1.11-1.11,2.21.41,3.04.76,3.77.49,7.56.16,11.35-.57.16-1.35.22-.58,1.09.02.69.05,1.37.07,2.06-1.01,7.09-3.3,13.76-6.48,20.15-1.71,3.43-3.67,6.69-6.01,9.73-.89,1.15-1.43,1.28-2.53.34-3.12-2.66-6.33-5.22-9.5-7.81.99-1.95,2.87-3.32,3.57-5.46,1.16.09,1.46-.58,1.38-1.58h0c2.34-3.18,4.26-6.53,4.38-10.63l.14-1.31c1.23-.17.82-.87.5-1.54-.19-.9.34-1.64.55-2.45,1.57-.94,1.04-2.23.57-3.5-.03-.83-.05-1.67-.08-2.5.29-1.66.24-3.32-.1-4.97-.18-1.66.58-3.42-.54-4.98-.1-.66-.21-1.31-.31-1.97.37-.88-.09-1.48-.68-2.04-.06-.32-.12-.65-.18-.97.34-1.03-.14-1.81-.79-2.54.17-1.14-.72-1.95-.94-2.96.16-.73.18-1.4-.75-1.63-.09-.27-.19-.55-.28-.82-.48-1.83-.55-3.9-2.82-4.64-1.08-2.03-2.28-3.97-4.13-5.43-.43-1.12-.43-2.05.67-2.92,1.84-1.46,3.55-3.08,5.31-4.63,1.22-.02,1.79-.79,2.12-1.84,0,0,.04-.03.04-.03.68-.27,1.36-.53,2.04-.8Z"/><path class="cls-4" d="m111.43,232.66c.07-1.29,1.51-.67,1.98-1.41,21.44.01,42.89.03,64.33.04q6.62,0,6.62,6.56c0,1.99-.05,3.99.01,5.98.04,1.38-.53,2-1.91,1.93-.66-.04-1.33,0-1.99,0-22.35.1-44.7.21-67.06.31-.67-.31-1.33-.62-2-.92,0-4.16.01-8.32.02-12.49Z"/><path class="cls-4" d="m231.42,143.76c1.03-1.46-.13-2.88-.12-4.32.07-8.64.05-17.27.02-25.91,0-1.31.1-2.27,1.81-2.22,4.31.11,8.63.12,12.94.18.02,16.78.04,33.56.08,50.34,0,1.87-.56,2.94-2.75,2.82-2.9-.16-5.81-.02-8.72-.04-2.83-.02-3.27-.47-3.27-3.39-.01-5.81,0-11.63,0-17.44Z"/><path class="cls-4" d="m312.89,244.98c0-4.21,0-8.42,0-12.63.51-.16.84-.49.98-1.01,15.71-.02,31.43-.03,47.14-.05.17,0,.33,0,.5,0q4.6.25,4.6,4.87c0,2.41-.03,4.82,0,7.23.02,1.65-.64,2.34-2.38,2.39-16.62.47-33.24.2-49.87.2-.14-.52-.47-.85-.97-1.01Z"/><path class="cls-5" d="m285.41,225.74c.06.32.12.65.18.97-.75,1.01-.17,1.57.68,2.04.1.66.21,1.31.31,1.97-.35,1.72-1.17,3.49.54,4.98.34,1.65.39,3.3.1,4.97-1.53.55-1.16,1.49-.52,2.49,0,1.17.02,2.34.03,3.51-.2.81-.74,1.55-.55,2.45-.46.42-1.02.81-.5,1.54-.05.44-.09.87-.14,1.31-1.46,3.54-3.31,6.92-4.38,10.62,0,0,0,0,0,0-.67.34-1.17.83-1.38,1.58-.69,2.14-2.58,3.51-3.57,5.46-3.66.31-7.24,1.48-10.97.98-.89-.12-1.8-.14-2.71-.2,1.69-2.24,4.04-3.81,5.85-6,3.84-4.66,6.31-9.89,8.29-15.53,2.54-7.23,1.72-14.25-.41-21.32-2.35-7.77-6.47-14.34-12.83-19.46-.37-.3-.6-.78-.9-1.17,4.42-.35,8.83-.53,13.16.79,1.84,1.45,3.05,3.4,4.13,5.43.78,1.64,1.5,3.33,2.82,4.64.09.27.19.55.28.82-.18.74.15,1.25.75,1.63.22,1.02,1.11,1.82.94,2.96-.54,1.09-.09,1.88.79,2.54Z"/><path class="cls-1" d="m273.31,195.29c-.23.28-.47.57-.7.85-1.26.33-1.61,1.39-1.95,2.45,0,0-.03.05-.03.05-1.53,1.26-2.88.96-4.17-.41-.48-.51-.98-1.15-1.86-.82-6.54-3.3-6.67-3.77-3.08-10.07.8-1.41,1.6-2.87,2.08-4.41.45-1.46,1.3-1.42,2.2-.83,3.21,2.12,6.72,3.7,9.96,5.8,2.12,1.37,2.09,2.31.38,3.76-.61.12-.94.46-.83,1.12-.23.29-.45.57-.68.86-.86.21-1.39.69-1.31,1.65Z"/><path class="cls-1" d="m252.86,183.82c-.05.3-.09.61-.14.91-.81.71-1.13,1.57-.79,2.63-.07.45-.14.91-.21,1.36-.72.53-.97,1.25-.82,2.12-.05.12-.11.23-.2.32-.7-.07-1.36-.62-2.11-.21-.61-.06-1.21-.13-1.82-.19-.29-.51-.69-.59-1.18-.31-1.73-.12-3.45-.33-5.18-.34-1.31,0-1.69-.53-1.67-1.78.06-3.55.07-7.1,0-10.64-.03-1.45.53-1.98,1.92-1.7,1.69,1.21,3.73.78,5.58,1.23,2.62.63,5.67.06,7.69,2.53-.09.5-.17,1-.26,1.5-.82.69-1.07,1.55-.82,2.58Z"/><path class="cls-2" d="m253.94,179.74c-2.02-2.47-5.07-1.89-7.69-2.53-1.84-.45-3.89-.02-5.58-1.23,4.07-.83,7.94.41,11.85,1.2,1.25.25,2.39.9,1.42,2.56Z"/><path class="cls-2" d="m299.61,223.67c-1.13-3.33-2.26-6.65-3.39-9.98,2.31,2.92,3.41,6.26,3.39,9.98Z"/><path class="cls-2" d="m264.59,197.4c.88-.33,1.39.32,1.86.82,1.29,1.38,2.64,1.67,4.17.41-.52,2.06-1.6,2.56-3.37,1.23-.97-.73-2.27-1.11-2.67-2.46Z"/><path class="cls-2" d="m291.78,205.16c-1.81-1.21-2.72-3.05-3.53-4.97,1.89,1.15,2.87,2.95,3.53,4.97Z"/><path class="cls-5" d="m200.14,231.1c.07,1.29.67,2.68-.67,3.71,0-1.28-.8-2.7.67-3.71Z"/><path class="cls-5" d="m199.44,242.04c1.2,1.08,1.06,2.32.43,3.62-1.08-1.09-.54-2.38-.43-3.62Z"/><path class="cls-2" d="m293.61,208.27c-1.26-.66-1.65-1.83-1.83-3.12,1.53.5,1.54,1.89,1.83,3.12Z"/><path class="cls-3" d="m301.13,232.71c-1.52-.83-1.02-1.92-.41-3.04.98.9.24,2.03.41,3.04Z"/><path class="cls-2" d="m270.66,198.59c.34-1.06.69-2.12,1.95-2.45-.16,1.21-.7,2.11-1.95,2.45Z"/><path class="cls-2" d="m251.93,187.36c-.34-1.06-.02-1.92.79-2.63.83,1.21.06,1.93-.79,2.63Z"/><path class="cls-2" d="m252.86,183.82c-.25-1.03,0-1.89.82-2.58.6,1.14.1,1.92-.82,2.58Z"/><path class="cls-2" d="m283.81,198.33c-.33,1.05-.9,1.82-2.12,1.84.36-1.02.91-1.81,2.12-1.84Z"/><path class="cls-2" d="m248.6,190.96c.75-.41,1.4.14,2.11.21-.66,1.2-.88,1.18-2.11-.21Z"/><path class="cls-2" d="m250.9,190.84c-.15-.87.1-1.58.82-2.12.86,1.14.08,1.65-.82,2.12Z"/><path class="cls-2" d="m300.77,247.21c-.02-.69-.05-1.37-.07-2.06.23-.02.45-.04.68-.05.24.83.55,1.68-.61,2.11Z"/><path class="cls-5" d="m201.28,250.66c.62.56,1.05,1.19.79,2.09-.74-.51-1.46-1.04-.79-2.09Z"/><path class="cls-2" d="m285.9,197.5c-.68.27-1.36.53-2.04.8.29-1.27.82-1.91,2.04-.8Z"/><path class="cls-5" d="m255.29,203.17c-.77.03-1.21-.41-1.51-1.04,1.22-.69,1.29.29,1.51,1.04Z"/><path class="cls-5" d="m223.78,202.12c-.28.71-.82.98-1.55.95.29-.69.4-1.68,1.55-.95Z"/><path class="cls-5" d="m222.3,274.64c.85-.73,1.14,0,1.49.57-.83.69-1.11-.06-1.49-.57Z"/><path class="cls-2" d="m273.31,195.29c-.09-.96.45-1.44,1.31-1.65.1.97-.49,1.4-1.31,1.65Z"/><path class="cls-5" d="m249.85,201.01c-.76.24-1.38.14-1.66-.73.72-.14,1.38-.13,1.66.73Z"/><path class="cls-5" d="m229.37,200.29c-.28.86-.9.96-1.66.73.28-.86.94-.87,1.66-.73Z"/><path class="cls-5" d="m227.71,276.32c.76-.24,1.38-.14,1.66.73-.72.15-1.38.14-1.66-.73Z"/><path class="cls-5" d="m248.19,277.05c.28-.86.9-.96,1.66-.73-.28.86-.94.87-1.66.73Z"/><path class="cls-3" d="m301.38,245.1c-.23.02-.45.04-.68.05-.76-.88.01-.93.58-1.09.25.33.26.68.1,1.04Z"/><path class="cls-5" d="m312.89,244.98c.51.16.84.49.97,1.01-.87.19-1.2-.14-.97-1.01Z"/><path class="cls-5" d="m200.48,248.5c.57.22.88.59.65,1.23-.66-.18-.87-.59-.65-1.23Z"/><path class="cls-5" d="m313.87,231.34c-.14.52-.47.85-.98,1.01-.22-.87.1-1.2.98-1.01Z"/><path class="cls-5" d="m202.24,253.66c.45.21.59.56.51,1.03-.59-.14-1.14-.29-.51-1.03Z"/><path class="cls-2" d="m295.47,212.17c-.39-.15-.37-.47-.35-.8.31.02.69-.01.77.38.02.11-.27.28-.42.42Z"/><path class="cls-5" d="m252.86,201.96c-.65.27-1.01-.03-1.22-.63.61-.19,1,.05,1.22.63Z"/><path class="cls-5" d="m253.78,275.21c.22-.44.56-.61,1.04-.47-.16.57-.33,1.11-1.04.47Z"/><path class="cls-5" d="m224.7,275.37c.65-.27,1.01.03,1.22.63-.61.19-1-.05-1.22-.63Z"/><path class="cls-5" d="m251.64,276c.21-.59.57-.9,1.22-.63-.22.58-.61.81-1.22.63Z"/><path class="cls-2" d="m287.53,199.32c-.54-.13-.84-.46-.86-1.03.69,0,1.02.31.86,1.03Z"/><path class="cls-2" d="m275.29,192.77c-.11-.66.22-1,.83-1.12.13.68-.2,1.02-.83,1.12Z"/><path class="cls-2" d="m245.6,190.45c.49-.28.9-.2,1.18.31-.57.57-.9.23-1.18-.31Z"/><path class="cls-6" d="m111.43,232.66c0,4.16-.01,8.32-.02,12.49-3.5-.44-6.38-2.42-9.45-3.88-1.49-.71-4.12-1.08-4.11-2.54.01-1.75,2.7-1.96,4.22-2.72,2.96-1.48,5.82-3.44,9.37-3.35Z"/><path class="cls-1" d="m263.4,243.76c-.11.29-.21.58-.32.87-.1.19-.21.37-.31.56-2.04,8.13-7.03,13.61-14.81,16.66-1.35.53-2.51,1.55-4.08,1.48-3.4,0-6.8,0-10.2,0-8.22-1.37-13.69-6.29-17.38-13.5-.51-.99-1.3-1.9-1.11-3.14.8-.7.28-.89-.39-1.02h0c.07-.26,0-.45-.28-.53-.12-.46-.24-.92-.37-1.38.07-.36.14-.73.21-1.09.45-1.11.95-2.23-.51-3.02-.32-2.03,1.04-3.94.39-5.99,1.79-10.27,9.75-17.51,19.43-19.64,3.74-.34,7.43.06,11.12.63,7.58,1.92,14.43,6.45,17.53,15.79.35,1.06.27,2.26,1,3.2-.55,2.27.39,4.4.6,6.6-.02.15-.08.3-.17.42-1.32.35-1.09,1.14-.56,2.01.07.36.14.73.2,1.09Z"/><path class="cls-6" d="m244.8,214.64c-3.69-.58-7.38-.98-11.12-.63,2.66-1.46,9.61-1.06,11.12.63Z"/><path class="cls-6" d="m233.68,263.32c3.4,0,6.8,0,10.2,0-3.4,1.26-6.8,1.26-10.2,0Z"/><path class="cls-6" d="m263.93,240.23c-.21-2.2-1.15-4.33-.6-6.6,1.49,2.08,1.01,4.35.6,6.6Z"/><path class="cls-6" d="m214.25,233.65c.65,2.05-.72,3.96-.39,5.99-.1.21-.2.42-.3.63-.19-2.25-.93-4.56.7-6.62Z"/><path class="cls-2" d="m213.56,240.27c.1-.21.2-.42.3-.63,1.45.79.96,1.91.51,3.02-.19,0-.37,0-.56,0-.08-.8-.17-1.6-.25-2.39Z"/><path class="cls-2" d="m263.2,242.66c-.53-.87-.77-1.65.56-2.01.34.67.06,1.34,0,2.01-.19,0-.37,0-.56,0Z"/><path class="cls-6" d="m263.2,242.66c.19,0,.37,0,.56,0,.47.55.36.92-.35,1.09-.07-.36-.14-.73-.2-1.09Z"/><path class="cls-2" d="m214.8,245.66c.67.13,1.2.32.39,1.02-.56-.17-.39-.63-.39-1.02Z"/><path class="cls-6" d="m213.81,242.66c.19,0,.37,0,.56,0-.07.36-.14.73-.21,1.09-.71-.17-.82-.54-.35-1.09Z"/><path class="cls-2" d="m262.77,245.19c.1-.19.21-.37.31-.56.19.35-.06.45-.31.56Z"/><path class="cls-2" d="m214.52,245.13c.29.08.35.27.28.54-.25-.1-.49-.2-.28-.54Z"/><path class="cls-2" d="m281.18,262.59c1.07-3.7,2.91-7.08,4.38-10.62-.12,4.09-2.04,7.44-4.38,10.62Z"/><path class="cls-6" d="m287.13,235.7c-1.71-1.49-.89-3.26-.54-4.98,1.12,1.56.36,3.32.54,4.98Z"/><path class="cls-2" d="m282.66,217.79c-1.32-1.31-2.04-3-2.82-4.64,2.27.74,2.34,2.82,2.82,4.64Z"/><path class="cls-2" d="m286.74,246.67c0-1.17-.02-2.34-.03-3.51.2,0,.4,0,.6,0,.47,1.27,1,2.56-.57,3.5Z"/><path class="cls-6" d="m287.31,243.16c-.2,0-.4,0-.6,0-.64-1-1.01-1.94.52-2.49.03.83.05,1.67.08,2.5Z"/><path class="cls-6" d="m285.41,225.74c-.88-.65-1.33-1.44-.79-2.54.64.73,1.13,1.5.79,2.54Z"/><path class="cls-6" d="m286.27,228.75c-.86-.47-1.43-1.03-.68-2.04.59.56,1.05,1.16.68,2.04Z"/><path class="cls-2" d="m285.7,250.66c-.52-.73.04-1.12.5-1.54.33.67.73,1.37-.5,1.54Z"/><path class="cls-2" d="m279.8,264.17c.21-.75.7-1.24,1.38-1.58.09,1-.21,1.67-1.38,1.58Z"/><path class="cls-2" d="m283.69,220.24c-.6-.39-.93-.89-.75-1.63.93.23.91.9.75,1.63Z"/></g></g></svg>